<svg width="66" height="58" viewBox="0 0 66 58" fill="none" xmlns="http://www.w3.org/2000/svg">
<rect x="1" y="0.5" width="64" height="57" rx="7.5" fill="white" stroke="#E8ECF4"/>
<path d="M27.5027 41.2847C26.9149 40.8932 26.394 40.4096 25.9599 39.8523C25.4824 39.277 25.04 38.6735 24.6351 38.0449C23.6848 36.6515 22.9396 35.1286 22.4223 33.5229C21.8009 31.6577 21.5 29.87 21.5 28.1214C21.5 26.1686 21.922 24.4639 22.7475 23.0314C23.3594 21.9118 24.2591 20.9762 25.3534 20.3214C26.4139 19.662 27.6325 19.3012 28.8807 19.2769C29.3176 19.2769 29.7881 19.3403 30.2875 19.4615C30.6462 19.5632 31.0831 19.7236 31.617 19.9231C32.2962 20.1852 32.6697 20.3456 32.7965 20.3848C33.1943 20.5303 33.5287 20.5937 33.7915 20.5937C33.9909 20.5937 34.2722 20.5303 34.5918 20.4333C34.7716 20.3699 35.1107 20.2579 35.5961 20.05C36.0769 19.8747 36.4551 19.7245 36.756 19.6126C37.2172 19.4764 37.6635 19.3505 38.0613 19.2871C38.5329 19.2127 39.0115 19.193 39.4877 19.2284C40.3128 19.2824 41.1255 19.4574 41.8998 19.7478C43.1659 20.2579 44.1898 21.0544 44.9519 22.1865C44.6298 22.3852 44.3275 22.6145 44.0491 22.871C43.4432 23.4087 42.927 24.04 42.5203 24.7408C41.9886 25.6986 41.7129 26.7776 41.72 27.8733C41.7395 29.219 42.0842 30.4043 42.7634 31.4292C43.2628 32.1888 43.9117 32.8384 44.6705 33.3382C45.059 33.6003 45.3935 33.7803 45.714 33.9015C45.564 34.3678 45.4038 34.8192 45.2146 35.2668C44.7857 36.2706 44.2658 37.233 43.6616 38.1419C43.123 38.9243 42.701 39.5072 42.3805 39.8951C41.8811 40.4873 41.4004 40.9396 40.915 41.2548C40.3812 41.6092 39.7504 41.7985 39.1094 41.7985C38.6753 41.8152 38.2413 41.7626 37.8237 41.6428C37.465 41.5216 37.1101 41.3901 36.7607 41.2399C36.3975 41.0729 36.023 40.9318 35.6399 40.8175C34.6931 40.574 33.7003 40.5724 32.7527 40.8128C32.3642 40.9247 31.9906 41.0553 31.6216 41.2157C31.1027 41.4339 30.758 41.5803 30.5586 41.6428C30.1608 41.7594 29.748 41.8321 29.3307 41.8564C28.685 41.8564 28.0832 41.6717 27.4869 41.2977L27.5027 41.2847ZM36.0182 18.3294C35.1741 18.7518 34.3682 18.9318 33.5679 18.8731C33.4421 18.0664 33.5679 17.2411 33.9023 16.3374C34.1871 15.5718 34.6078 14.8641 35.1443 14.2484C35.7107 13.6003 36.3981 13.0691 37.1678 12.6845C37.9877 12.2621 38.7694 12.0336 39.5166 12C39.6135 12.8449 39.5166 13.6758 39.2063 14.5739C38.9192 15.3678 38.4992 16.107 37.9644 16.7599C37.4185 17.4089 36.7486 17.9422 35.9939 18.3284L36.0182 18.3294Z" fill="black"/>
</svg>
