<svg width="28" height="27" viewBox="0 0 28 27" fill="none" xmlns="http://www.w3.org/2000/svg">
<path d="M22.4265 11.3442C23.683 12.6097 24.4369 13.6738 24.449 13.6909C24.4224 13.7285 19.8171 20.2358 14.2937 20.2358C13.9432 20.2358 13.6031 20.22 13.2732 20.1919L22.4265 11.3442Z" fill="#979797"/>
<path d="M14.2937 7.14648C15.2709 7.14648 16.2185 7.35302 17.1179 7.68848L14.2937 10.4189C12.4244 10.4191 10.9092 11.8835 10.9089 13.6904L6.99097 17.4775C5.00193 15.7027 4.15143 13.7219 4.13843 13.6914C4.13843 13.6914 6.90805 7.14663 14.2937 7.14648Z" fill="#979797"/>
<rect opacity="0.3" width="21.0849" height="2.21946" transform="matrix(0.718997 -0.695013 0.718997 0.695013 6.50793 20.71)" fill="#979797"/>
</svg>
