<svg width="19" height="12" viewBox="0 0 19 12" fill="none" xmlns="http://www.w3.org/2000/svg">
<path d="M1.19491 7.83865C2.01765 4.07966 5.45699 1.40877 9.3258 1.40877C13.1934 1.40877 16.6327 4.07966 17.4567 7.83865C17.4893 7.98781 17.5829 8.11853 17.7168 8.20205C17.8508 8.28556 18.0141 8.31504 18.1709 8.28399C18.3276 8.25294 18.465 8.16391 18.5528 8.03648C18.6406 7.90905 18.6716 7.75366 18.6389 7.6045C17.7016 3.32901 13.7809 0.260986 9.3258 0.260986C4.8707 0.260986 0.950018 3.32901 0.0126737 7.6045C-0.0199609 7.75366 0.0110194 7.90905 0.0987993 8.03648C0.186579 8.16391 0.323968 8.25294 0.480743 8.28399C0.637517 8.31504 0.800834 8.28556 0.934767 8.20205C1.0687 8.11853 1.16228 7.98781 1.19491 7.83865ZM9.31374 3.70434C10.4336 3.70434 11.5075 4.12758 12.2993 4.88096C13.0912 5.63434 13.536 6.65614 13.536 7.72158C13.536 8.78702 13.0912 9.80882 12.2993 10.5622C11.5075 11.3156 10.4336 11.7388 9.31374 11.7388C8.19392 11.7388 7.11997 11.3156 6.32814 10.5622C5.53631 9.80882 5.09146 8.78702 5.09146 7.72158C5.09146 6.65614 5.53631 5.63434 6.32814 4.88096C7.11997 4.12758 8.19392 3.70434 9.31374 3.70434Z" fill="#6A707C"/>
</svg>
