<svg width="66" height="58" viewBox="0 0 66 58" fill="none" xmlns="http://www.w3.org/2000/svg">
<rect x="1" y="0.5" width="64" height="57" rx="7.5" fill="white" stroke="#E8ECF4"/>
<path d="M26.9201 31.4656L26.0974 34.537L23.0903 34.6006C22.1916 32.9338 21.6818 31.0266 21.6818 29C21.6818 27.0403 22.1584 25.1922 23.0032 23.5649H23.0039L25.6811 24.0558L26.8538 26.7169C26.6084 27.4325 26.4746 28.2007 26.4746 29C26.4747 29.8675 26.6318 30.6987 26.9201 31.4656Z" fill="#E2F0FD"/>
<path d="M45.1117 26.7922C45.2474 27.5071 45.3182 28.2455 45.3182 29C45.3182 29.8461 45.2292 30.6715 45.0598 31.4676C44.4845 34.1767 42.9812 36.5422 40.8987 38.2163L40.8981 38.2156L37.526 38.0436L37.0488 35.0643C38.4306 34.2539 39.5105 32.9857 40.0793 31.4676H33.7598V26.7922H40.1715H45.1117Z" fill="#518EF8"/>
<path d="M40.8981 38.2158L40.8987 38.2164C38.8734 39.8444 36.3007 40.8184 33.5 40.8184C28.9994 40.8184 25.0864 38.3028 23.0903 34.6009L26.9202 31.4658C27.9182 34.1294 30.4877 36.0256 33.5 36.0256C34.7948 36.0256 36.0078 35.6755 37.0487 35.0645L40.8981 38.2158Z" fill="#28B446"/>
<path d="M41.0436 19.9027L37.215 23.0371C36.1377 22.3637 34.8643 21.9747 33.5001 21.9747C30.4195 21.9747 27.802 23.9578 26.8539 26.7169L23.0039 23.565H23.0033C24.9702 19.7728 28.9325 17.1819 33.5001 17.1819C36.3676 17.1819 38.9968 18.2033 41.0436 19.9027Z" fill="#F14336"/>
</svg>
