<svg width="18" height="18" viewBox="0 0 18 18" fill="none" xmlns="http://www.w3.org/2000/svg">
<path d="M14.8846 3.46143H2.42308C2.14766 3.46143 1.88352 3.57813 1.68878 3.78586C1.49403 3.99359 1.38462 4.27534 1.38462 4.56912V13.4307C1.38462 13.7244 1.49403 14.0062 1.68878 14.2139C1.88352 14.4216 2.14766 14.5383 2.42308 14.5383H14.8846C15.16 14.5383 15.4242 14.4216 15.6189 14.2139C15.8137 14.0062 15.9231 13.7244 15.9231 13.4307V4.56912C15.9231 4.27534 15.8137 3.99359 15.6189 3.78586C15.4242 3.57813 15.16 3.46143 14.8846 3.46143ZM13.7423 4.56912L8.65385 8.32419L3.56539 4.56912H13.7423ZM2.42308 13.4307V5.07312L8.35789 9.45404C8.4448 9.51836 8.54806 9.55282 8.65385 9.55282C8.75963 9.55282 8.86289 9.51836 8.94981 9.45404L14.8846 5.07312V13.4307H2.42308Z" fill="#1E90FF"/>
</svg>
