<svg width="208" height="207" viewBox="0 0 208 207" fill="none" xmlns="http://www.w3.org/2000/svg">
<path fill-rule="evenodd" clip-rule="evenodd" d="M74.7009 32.7664C78.3403 28.568 82.8405 25.2019 87.896 22.8966C92.9515 20.5914 98.4438 19.401 104 19.4063C115.704 19.4063 126.192 24.5813 133.299 32.7664C138.842 32.3706 144.406 33.1725 149.612 35.1176C154.818 37.0627 159.544 40.1055 163.469 44.0393C167.402 47.9642 170.443 52.689 172.388 57.8932C174.333 63.0974 175.136 68.6591 174.742 74.2009C178.939 77.8411 182.304 82.3417 184.607 87.3971C186.911 92.4525 188.1 97.9444 188.094 103.5C188.099 109.056 186.909 114.549 184.603 119.604C182.298 124.66 178.932 129.16 174.734 132.799C175.128 138.341 174.325 143.903 172.38 149.107C170.435 154.311 167.393 159.036 163.461 162.961C159.536 166.893 154.811 169.935 149.607 171.88C144.403 173.825 138.841 174.628 133.299 174.234C129.66 178.432 125.16 181.798 120.104 184.103C115.049 186.409 109.556 187.599 104 187.594C98.4438 187.599 92.9515 186.409 87.896 184.103C82.8405 181.798 78.3403 178.432 74.7009 174.234C69.1583 174.631 63.5952 173.83 58.3894 171.886C53.1835 169.943 48.457 166.902 44.5307 162.969C40.5974 159.044 37.5549 154.317 35.6098 149.111C33.6647 143.906 32.8625 138.342 33.2578 132.799C29.0609 129.159 25.6965 124.658 23.3927 119.603C21.089 114.548 19.8999 109.056 19.9063 103.5C19.9063 91.7959 25.0813 81.3079 33.2664 74.2009C32.8719 68.659 33.6744 63.0972 35.6195 57.8929C37.5646 52.6887 40.6067 47.9638 44.5393 44.0393C48.4639 40.1067 53.1887 37.0645 58.3929 35.1195C63.5972 33.1744 69.1591 32.3719 74.7009 32.7664ZM135.136 87.8543C135.654 87.1647 136.028 86.3787 136.238 85.5423C136.447 84.706 136.487 83.8362 136.355 82.9842C136.224 82.1321 135.923 81.315 135.471 80.5808C135.02 79.8466 134.425 79.2101 133.724 78.7088C133.023 78.2074 132.228 77.8514 131.387 77.6615C130.546 77.4716 129.676 77.4518 128.827 77.6031C127.978 77.7545 127.168 78.074 126.445 78.5428C125.721 79.0117 125.099 79.6204 124.614 80.3333L96.7033 119.405L82.6963 105.398C81.47 104.255 79.8481 103.633 78.1723 103.662C76.4964 103.692 74.8975 104.371 73.7123 105.556C72.5271 106.741 71.8482 108.34 71.8186 110.016C71.7891 111.692 72.4111 113.314 73.5538 114.54L92.96 133.946C93.6241 134.61 94.4246 135.121 95.3059 135.444C96.1873 135.767 97.1284 135.894 98.064 135.817C98.9995 135.74 99.9071 135.46 100.724 134.997C101.54 134.534 102.246 133.899 102.793 133.136L135.136 87.8543Z" fill="#1E90FF"/>
</svg>
