<svg width="400" height="65" viewBox="0 0 400 65" fill="none" xmlns="http://www.w3.org/2000/svg">
<rect width="400" height="65" rx="32.5" fill="#1E90FF" fill-opacity="0.1"/>
<circle cx="37" cy="33" r="20" fill="white"/>
<path d="M43.5385 26.8462H29.6923C29.3863 26.8462 29.0928 26.9759 28.8764 27.2067C28.66 27.4375 28.5385 27.7505 28.5385 28.077V37.9231C28.5385 38.2495 28.66 38.5626 28.8764 38.7934C29.0928 39.0242 29.3863 39.1539 29.6923 39.1539H43.5385C43.8445 39.1539 44.138 39.0242 44.3543 38.7934C44.5707 38.5626 44.6923 38.2495 44.6923 37.9231V28.077C44.6923 27.7505 44.5707 27.4375 44.3543 27.2067C44.138 26.9759 43.8445 26.8462 43.5385 26.8462ZM42.2692 28.077L36.6154 32.2493L30.9615 28.077H42.2692ZM29.6923 37.9231V28.637L36.2865 33.5047C36.3831 33.5761 36.4978 33.6144 36.6154 33.6144C36.7329 33.6144 36.8476 33.5761 36.9442 33.5047L43.5385 28.637V37.9231H29.6923Z" fill="#1E90FF"/>
<path d="M72.0547 35.9219L75.0469 26.625H77.2109L73.1328 38H71.6719L72.0547 35.9219ZM69.2891 26.625L72.2578 35.9219L72.6641 38H71.1953L67.1328 26.625H69.2891ZM80.3125 29.5469V38H78.4219V29.5469H80.3125ZM78.2969 27.3281C78.2969 27.0417 78.3906 26.8047 78.5781 26.6172C78.7708 26.4245 79.0365 26.3281 79.375 26.3281C79.7083 26.3281 79.9714 26.4245 80.1641 26.6172C80.3568 26.8047 80.4531 27.0417 80.4531 27.3281C80.4531 27.6094 80.3568 27.8438 80.1641 28.0312C79.9714 28.2188 79.7083 28.3125 79.375 28.3125C79.0365 28.3125 78.7708 28.2188 78.5781 28.0312C78.3906 27.8438 78.2969 27.6094 78.2969 27.3281ZM87.1406 36.3047V32.2734C87.1406 31.9714 87.0859 31.7109 86.9766 31.4922C86.8672 31.2734 86.7005 31.1042 86.4766 30.9844C86.2578 30.8646 85.9818 30.8047 85.6484 30.8047C85.3411 30.8047 85.0755 30.8568 84.8516 30.9609C84.6276 31.0651 84.4531 31.2057 84.3281 31.3828C84.2031 31.5599 84.1406 31.7604 84.1406 31.9844H82.2656C82.2656 31.651 82.3464 31.3281 82.5078 31.0156C82.6693 30.7031 82.9036 30.4245 83.2109 30.1797C83.5182 29.9349 83.8854 29.7422 84.3125 29.6016C84.7396 29.4609 85.2188 29.3906 85.75 29.3906C86.3854 29.3906 86.9479 29.4974 87.4375 29.7109C87.9323 29.9245 88.3203 30.2474 88.6016 30.6797C88.888 31.1068 89.0312 31.6432 89.0312 32.2891V36.0469C89.0312 36.4323 89.0573 36.7786 89.1094 37.0859C89.1667 37.388 89.2474 37.651 89.3516 37.875V38H87.4219C87.3333 37.7969 87.263 37.5391 87.2109 37.2266C87.1641 36.9089 87.1406 36.6016 87.1406 36.3047ZM87.4141 32.8594L87.4297 34.0234H86.0781C85.7292 34.0234 85.4219 34.0573 85.1562 34.125C84.8906 34.1875 84.6693 34.2812 84.4922 34.4062C84.3151 34.5312 84.1823 34.6823 84.0938 34.8594C84.0052 35.0365 83.9609 35.237 83.9609 35.4609C83.9609 35.6849 84.013 35.8906 84.1172 36.0781C84.2214 36.2604 84.3724 36.4036 84.5703 36.5078C84.7734 36.612 85.0182 36.6641 85.3047 36.6641C85.6901 36.6641 86.026 36.5859 86.3125 36.4297C86.6042 36.2682 86.8333 36.0729 87 35.8438C87.1667 35.6094 87.2552 35.388 87.2656 35.1797L87.875 36.0156C87.8125 36.2292 87.7057 36.4583 87.5547 36.7031C87.4036 36.9479 87.2057 37.1823 86.9609 37.4062C86.7214 37.625 86.4323 37.8047 86.0938 37.9453C85.7604 38.0859 85.375 38.1562 84.9375 38.1562C84.3854 38.1562 83.8932 38.0469 83.4609 37.8281C83.0286 37.6042 82.6901 37.3047 82.4453 36.9297C82.2005 36.5495 82.0781 36.1198 82.0781 35.6406C82.0781 35.1927 82.1615 34.7969 82.3281 34.4531C82.5 34.1042 82.75 33.8125 83.0781 33.5781C83.4115 33.3438 83.8177 33.1667 84.2969 33.0469C84.776 32.9219 85.3229 32.8594 85.9375 32.8594H87.4141ZM102.617 36.4453V38H96.5781V36.4453H102.617ZM97.1328 26.625V38H95.1719V26.625H97.1328ZM101.828 31.375V32.9062H96.5781V31.375H101.828ZM102.578 26.625V28.1875H96.5781V26.625H102.578ZM105.914 31.2656V38H104.031V29.5469H105.805L105.914 31.2656ZM105.609 33.4609L104.969 33.4531C104.969 32.8698 105.042 32.3307 105.188 31.8359C105.333 31.3411 105.547 30.9115 105.828 30.5469C106.109 30.1771 106.458 29.8932 106.875 29.6953C107.297 29.4922 107.784 29.3906 108.336 29.3906C108.721 29.3906 109.073 29.4479 109.391 29.5625C109.714 29.6719 109.992 29.8464 110.227 30.0859C110.466 30.3255 110.648 30.6328 110.773 31.0078C110.904 31.3828 110.969 31.8359 110.969 32.3672V38H109.086V32.5312C109.086 32.1198 109.023 31.7969 108.898 31.5625C108.779 31.3281 108.604 31.1615 108.375 31.0625C108.151 30.9583 107.883 30.9062 107.57 30.9062C107.216 30.9062 106.914 30.974 106.664 31.1094C106.419 31.2448 106.219 31.4297 106.062 31.6641C105.906 31.8984 105.792 32.1693 105.719 32.4766C105.646 32.7839 105.609 33.112 105.609 33.4609ZM110.852 32.9609L109.969 33.1562C109.969 32.6458 110.039 32.1641 110.18 31.7109C110.326 31.2526 110.536 30.8516 110.812 30.5078C111.094 30.1589 111.44 29.8854 111.852 29.6875C112.263 29.4896 112.734 29.3906 113.266 29.3906C113.698 29.3906 114.083 29.4505 114.422 29.5703C114.766 29.6849 115.057 29.8672 115.297 30.1172C115.536 30.3672 115.719 30.6927 115.844 31.0938C115.969 31.4896 116.031 31.9688 116.031 32.5312V38H114.141V32.5234C114.141 32.0964 114.078 31.7656 113.953 31.5312C113.833 31.2969 113.661 31.1354 113.438 31.0469C113.214 30.9531 112.945 30.9062 112.633 30.9062C112.341 30.9062 112.083 30.9609 111.859 31.0703C111.641 31.1745 111.456 31.3229 111.305 31.5156C111.154 31.7031 111.039 31.9193 110.961 32.1641C110.888 32.4089 110.852 32.6745 110.852 32.9609ZM122.734 36.3047V32.2734C122.734 31.9714 122.68 31.7109 122.57 31.4922C122.461 31.2734 122.294 31.1042 122.07 30.9844C121.852 30.8646 121.576 30.8047 121.242 30.8047C120.935 30.8047 120.669 30.8568 120.445 30.9609C120.221 31.0651 120.047 31.2057 119.922 31.3828C119.797 31.5599 119.734 31.7604 119.734 31.9844H117.859C117.859 31.651 117.94 31.3281 118.102 31.0156C118.263 30.7031 118.497 30.4245 118.805 30.1797C119.112 29.9349 119.479 29.7422 119.906 29.6016C120.333 29.4609 120.812 29.3906 121.344 29.3906C121.979 29.3906 122.542 29.4974 123.031 29.7109C123.526 29.9245 123.914 30.2474 124.195 30.6797C124.482 31.1068 124.625 31.6432 124.625 32.2891V36.0469C124.625 36.4323 124.651 36.7786 124.703 37.0859C124.76 37.388 124.841 37.651 124.945 37.875V38H123.016C122.927 37.7969 122.857 37.5391 122.805 37.2266C122.758 36.9089 122.734 36.6016 122.734 36.3047ZM123.008 32.8594L123.023 34.0234H121.672C121.323 34.0234 121.016 34.0573 120.75 34.125C120.484 34.1875 120.263 34.2812 120.086 34.4062C119.909 34.5312 119.776 34.6823 119.688 34.8594C119.599 35.0365 119.555 35.237 119.555 35.4609C119.555 35.6849 119.607 35.8906 119.711 36.0781C119.815 36.2604 119.966 36.4036 120.164 36.5078C120.367 36.612 120.612 36.6641 120.898 36.6641C121.284 36.6641 121.62 36.5859 121.906 36.4297C122.198 36.2682 122.427 36.0729 122.594 35.8438C122.76 35.6094 122.849 35.388 122.859 35.1797L123.469 36.0156C123.406 36.2292 123.299 36.4583 123.148 36.7031C122.997 36.9479 122.799 37.1823 122.555 37.4062C122.315 37.625 122.026 37.8047 121.688 37.9453C121.354 38.0859 120.969 38.1562 120.531 38.1562C119.979 38.1562 119.487 38.0469 119.055 37.8281C118.622 37.6042 118.284 37.3047 118.039 36.9297C117.794 36.5495 117.672 36.1198 117.672 35.6406C117.672 35.1927 117.755 34.7969 117.922 34.4531C118.094 34.1042 118.344 33.8125 118.672 33.5781C119.005 33.3438 119.411 33.1667 119.891 33.0469C120.37 32.9219 120.917 32.8594 121.531 32.8594H123.008ZM128.609 29.5469V38H126.719V29.5469H128.609ZM126.594 27.3281C126.594 27.0417 126.688 26.8047 126.875 26.6172C127.068 26.4245 127.333 26.3281 127.672 26.3281C128.005 26.3281 128.268 26.4245 128.461 26.6172C128.654 26.8047 128.75 27.0417 128.75 27.3281C128.75 27.6094 128.654 27.8438 128.461 28.0312C128.268 28.2188 128.005 28.3125 127.672 28.3125C127.333 28.3125 127.068 28.2188 126.875 28.0312C126.688 27.8438 126.594 27.6094 126.594 27.3281ZM132.688 26V38H130.797V26H132.688Z" fill="#1E90FF"/>
</svg>
