<svg width="400" height="65" viewBox="0 0 400 65" fill="none" xmlns="http://www.w3.org/2000/svg">
<rect width="400" height="65" rx="32.5" fill="#1E90FF" fill-opacity="0.1"/>
<path d="M72.0547 35.9219L75.0469 26.625H77.2109L73.1328 38H71.6719L72.0547 35.9219ZM69.2891 26.625L72.2578 35.9219L72.6641 38H71.1953L67.1328 26.625H69.2891ZM80.3125 29.5469V38H78.4219V29.5469H80.3125ZM78.2969 27.3281C78.2969 27.0417 78.3906 26.8047 78.5781 26.6172C78.7708 26.4245 79.0365 26.3281 79.375 26.3281C79.7083 26.3281 79.9714 26.4245 80.1641 26.6172C80.3568 26.8047 80.4531 27.0417 80.4531 27.3281C80.4531 27.6094 80.3568 27.8438 80.1641 28.0312C79.9714 28.2188 79.7083 28.3125 79.375 28.3125C79.0365 28.3125 78.7708 28.2188 78.5781 28.0312C78.3906 27.8438 78.2969 27.6094 78.2969 27.3281ZM87.1406 36.3047V32.2734C87.1406 31.9714 87.0859 31.7109 86.9766 31.4922C86.8672 31.2734 86.7005 31.1042 86.4766 30.9844C86.2578 30.8646 85.9818 30.8047 85.6484 30.8047C85.3411 30.8047 85.0755 30.8568 84.8516 30.9609C84.6276 31.0651 84.4531 31.2057 84.3281 31.3828C84.2031 31.5599 84.1406 31.7604 84.1406 31.9844H82.2656C82.2656 31.651 82.3464 31.3281 82.5078 31.0156C82.6693 30.7031 82.9036 30.4245 83.2109 30.1797C83.5182 29.9349 83.8854 29.7422 84.3125 29.6016C84.7396 29.4609 85.2188 29.3906 85.75 29.3906C86.3854 29.3906 86.9479 29.4974 87.4375 29.7109C87.9323 29.9245 88.3203 30.2474 88.6016 30.6797C88.888 31.1068 89.0312 31.6432 89.0312 32.2891V36.0469C89.0312 36.4323 89.0573 36.7786 89.1094 37.0859C89.1667 37.388 89.2474 37.651 89.3516 37.875V38H87.4219C87.3333 37.7969 87.263 37.5391 87.2109 37.2266C87.1641 36.9089 87.1406 36.6016 87.1406 36.3047ZM87.4141 32.8594L87.4297 34.0234H86.0781C85.7292 34.0234 85.4219 34.0573 85.1562 34.125C84.8906 34.1875 84.6693 34.2812 84.4922 34.4062C84.3151 34.5312 84.1823 34.6823 84.0938 34.8594C84.0052 35.0365 83.9609 35.237 83.9609 35.4609C83.9609 35.6849 84.013 35.8906 84.1172 36.0781C84.2214 36.2604 84.3724 36.4036 84.5703 36.5078C84.7734 36.612 85.0182 36.6641 85.3047 36.6641C85.6901 36.6641 86.026 36.5859 86.3125 36.4297C86.6042 36.2682 86.8333 36.0729 87 35.8438C87.1667 35.6094 87.2552 35.388 87.2656 35.1797L87.875 36.0156C87.8125 36.2292 87.7057 36.4583 87.5547 36.7031C87.4036 36.9479 87.2057 37.1823 86.9609 37.4062C86.7214 37.625 86.4323 37.8047 86.0938 37.9453C85.7604 38.0859 85.375 38.1562 84.9375 38.1562C84.3854 38.1562 83.8932 38.0469 83.4609 37.8281C83.0286 37.6042 82.6901 37.3047 82.4453 36.9297C82.2005 36.5495 82.0781 36.1198 82.0781 35.6406C82.0781 35.1927 82.1615 34.7969 82.3281 34.4531C82.5 34.1042 82.75 33.8125 83.0781 33.5781C83.4115 33.3438 83.8177 33.1667 84.2969 33.0469C84.776 32.9219 85.3229 32.8594 85.9375 32.8594H87.4141ZM101.156 35.0703C101.156 34.8359 101.12 34.6276 101.047 34.4453C100.979 34.263 100.857 34.0964 100.68 33.9453C100.503 33.7943 100.253 33.6484 99.9297 33.5078C99.612 33.362 99.2057 33.2135 98.7109 33.0625C98.1693 32.8958 97.6693 32.7109 97.2109 32.5078C96.7578 32.2995 96.362 32.0599 96.0234 31.7891C95.6849 31.513 95.4219 31.1979 95.2344 30.8438C95.0469 30.4844 94.9531 30.0703 94.9531 29.6016C94.9531 29.138 95.0495 28.7161 95.2422 28.3359C95.4401 27.9557 95.7188 27.6276 96.0781 27.3516C96.4427 27.0703 96.8724 26.8542 97.3672 26.7031C97.862 26.5469 98.4089 26.4688 99.0078 26.4688C99.8516 26.4688 100.578 26.625 101.188 26.9375C101.802 27.25 102.273 27.6693 102.602 28.1953C102.935 28.7214 103.102 29.3021 103.102 29.9375H101.156C101.156 29.5625 101.076 29.2318 100.914 28.9453C100.758 28.6536 100.518 28.4245 100.195 28.2578C99.8776 28.0911 99.474 28.0078 98.9844 28.0078C98.5208 28.0078 98.1354 28.0781 97.8281 28.2188C97.5208 28.3594 97.2917 28.5495 97.1406 28.7891C96.9896 29.0286 96.9141 29.2995 96.9141 29.6016C96.9141 29.8151 96.9635 30.0104 97.0625 30.1875C97.1615 30.3594 97.3125 30.5208 97.5156 30.6719C97.7188 30.8177 97.974 30.9557 98.2812 31.0859C98.5885 31.2161 98.9505 31.3411 99.3672 31.4609C99.9974 31.6484 100.547 31.8568 101.016 32.0859C101.484 32.3099 101.875 32.5651 102.188 32.8516C102.5 33.138 102.734 33.4635 102.891 33.8281C103.047 34.1875 103.125 34.5964 103.125 35.0547C103.125 35.5339 103.029 35.9661 102.836 36.3516C102.643 36.7318 102.367 37.0573 102.008 37.3281C101.654 37.5938 101.227 37.7995 100.727 37.9453C100.232 38.0859 99.6797 38.1562 99.0703 38.1562C98.5234 38.1562 97.9844 38.0833 97.4531 37.9375C96.9271 37.7917 96.4479 37.5703 96.0156 37.2734C95.5833 36.9714 95.2396 36.5964 94.9844 36.1484C94.7292 35.6953 94.6016 35.1667 94.6016 34.5625H96.5625C96.5625 34.9323 96.625 35.2474 96.75 35.5078C96.8802 35.7682 97.0599 35.9818 97.2891 36.1484C97.5182 36.3099 97.7839 36.4297 98.0859 36.5078C98.3932 36.5859 98.7214 36.625 99.0703 36.625C99.5286 36.625 99.9115 36.5599 100.219 36.4297C100.531 36.2995 100.766 36.1172 100.922 35.8828C101.078 35.6484 101.156 35.3776 101.156 35.0703ZM105.656 26.625H107.406L110.695 35.3984L113.977 26.625H115.727L111.383 38H109.992L105.656 26.625ZM104.859 26.625H106.523L106.812 34.2188V38H104.859V26.625ZM114.859 26.625H116.531V38H114.57V34.2188L114.859 26.625ZM124.844 35.0703C124.844 34.8359 124.807 34.6276 124.734 34.4453C124.667 34.263 124.544 34.0964 124.367 33.9453C124.19 33.7943 123.94 33.6484 123.617 33.5078C123.299 33.362 122.893 33.2135 122.398 33.0625C121.857 32.8958 121.357 32.7109 120.898 32.5078C120.445 32.2995 120.049 32.0599 119.711 31.7891C119.372 31.513 119.109 31.1979 118.922 30.8438C118.734 30.4844 118.641 30.0703 118.641 29.6016C118.641 29.138 118.737 28.7161 118.93 28.3359C119.128 27.9557 119.406 27.6276 119.766 27.3516C120.13 27.0703 120.56 26.8542 121.055 26.7031C121.549 26.5469 122.096 26.4688 122.695 26.4688C123.539 26.4688 124.266 26.625 124.875 26.9375C125.49 27.25 125.961 27.6693 126.289 28.1953C126.622 28.7214 126.789 29.3021 126.789 29.9375H124.844C124.844 29.5625 124.763 29.2318 124.602 28.9453C124.445 28.6536 124.206 28.4245 123.883 28.2578C123.565 28.0911 123.161 28.0078 122.672 28.0078C122.208 28.0078 121.823 28.0781 121.516 28.2188C121.208 28.3594 120.979 28.5495 120.828 28.7891C120.677 29.0286 120.602 29.2995 120.602 29.6016C120.602 29.8151 120.651 30.0104 120.75 30.1875C120.849 30.3594 121 30.5208 121.203 30.6719C121.406 30.8177 121.661 30.9557 121.969 31.0859C122.276 31.2161 122.638 31.3411 123.055 31.4609C123.685 31.6484 124.234 31.8568 124.703 32.0859C125.172 32.3099 125.562 32.5651 125.875 32.8516C126.188 33.138 126.422 33.4635 126.578 33.8281C126.734 34.1875 126.812 34.5964 126.812 35.0547C126.812 35.5339 126.716 35.9661 126.523 36.3516C126.331 36.7318 126.055 37.0573 125.695 37.3281C125.341 37.5938 124.914 37.7995 124.414 37.9453C123.919 38.0859 123.367 38.1562 122.758 38.1562C122.211 38.1562 121.672 38.0833 121.141 37.9375C120.615 37.7917 120.135 37.5703 119.703 37.2734C119.271 36.9714 118.927 36.5964 118.672 36.1484C118.417 35.6953 118.289 35.1667 118.289 34.5625H120.25C120.25 34.9323 120.312 35.2474 120.438 35.5078C120.568 35.7682 120.747 35.9818 120.977 36.1484C121.206 36.3099 121.471 36.4297 121.773 36.5078C122.081 36.5859 122.409 36.625 122.758 36.625C123.216 36.625 123.599 36.5599 123.906 36.4297C124.219 36.2995 124.453 36.1172 124.609 35.8828C124.766 35.6484 124.844 35.3776 124.844 35.0703Z" fill="#1E90FF"/>
<circle cx="37" cy="33" r="20" fill="white"/>
<path d="M37 39.875C41.1417 39.875 44.5 36.7967 44.5 33C44.5 29.2033 41.1417 26.125 37 26.125C32.8583 26.125 29.5 29.2033 29.5 33C29.5 34.7533 30.2158 36.3525 31.3942 37.5667C31.7542 37.9392 32.0108 38.4333 31.8825 38.9342C31.742 39.4818 31.479 39.9904 31.1133 40.4217C31.406 40.4742 31.7027 40.5004 32 40.5C33.0683 40.5 34.0583 40.165 34.8708 39.5942C35.5458 39.7775 36.2608 39.875 37 39.875Z" stroke="#1E90FF" stroke-width="1.5" stroke-linecap="round" stroke-linejoin="round"/>
</svg>
