<svg width="150" height="150" viewBox="0 0 150 150" fill="none" xmlns="http://www.w3.org/2000/svg">
<mask id="mask0_75_3047" style="mask-type:luminance" maskUnits="userSpaceOnUse" x="0" y="0" width="150" height="150">
<path d="M150 0H0V150H150V0Z" fill="white"/>
</mask>
<g mask="url(#mask0_75_3047)">
<path d="M75.0108 150.022C116.438 150.022 150.022 116.438 150.022 75.0108C150.022 33.5835 116.438 0 75.0108 0C33.5835 0 0 33.5835 0 75.0108C0 116.438 33.5835 150.022 75.0108 150.022Z" fill="white"/>
<path d="M76.6237 99.082C74.9892 99.1894 73.763 100.609 73.763 102.244V108.87L79.8938 108.848V102.136C79.8938 100.373 78.4092 98.9742 76.6237 99.082Z" fill="#1E90FF"/>
<path d="M89.9395 37.4084C75.5484 37.4084 63.1791 45.927 57.5002 58.1887C55.177 57.5001 52.7461 57.1345 50.2078 57.1345C35.9026 57.1345 24.3078 68.7291 24.3078 83.0344C24.3078 97.3397 35.9026 108.934 50.2078 108.934H61.4367H61.6088C59.6728 107.472 58.4034 105.148 58.4034 102.546V93.5967C57.0483 92.7792 55.9514 91.5314 55.3059 89.9827C54.1444 87.1214 54.7898 83.8734 56.9841 81.7223L71.5256 67.3739C72.9455 65.9541 74.8383 65.1797 76.8605 65.1797C78.8611 65.1797 80.7539 65.9541 82.1953 67.3739L96.7158 81.7223C98.91 83.895 99.5766 87.143 98.3934 89.9827C97.7484 91.5314 96.6511 92.7792 95.2959 93.5967V103.277C95.2959 105.493 94.3064 107.45 92.7577 108.784H93.0802C111.365 107.213 125.735 91.8755 125.735 73.1606C125.692 53.4131 109.687 37.4084 89.9395 37.4084Z" fill="#1E90FF"/>
</g>
</svg>
