<svg width="355" height="323" viewBox="0 0 355 323" fill="none" xmlns="http://www.w3.org/2000/svg">
<g clip-path="url(#clip0_9_1244)">
<path d="M65.0618 123.388C59.7784 115.754 50.7861 110.727 40.5817 110.727C39.5206 110.727 38.4602 110.781 37.4048 110.89C36.3116 105.245 31.1968 100.973 25.0482 100.973C18.503 100.973 13.1275 105.815 12.5296 112.001C6.28246 112.45 1.3053 117.315 0.921631 123.385L65.0618 123.388Z" fill="#C1C7D7"/>
<path d="M115.266 38.1507C109.982 30.5163 100.99 25.4919 90.7858 25.4919C89.7247 25.4914 88.6643 25.5458 87.6089 25.6548C86.5149 20.0089 81.4001 15.7363 75.2515 15.7363C68.7063 15.7363 63.3308 20.5783 62.7337 26.7651C56.4857 27.2147 51.5086 32.0795 51.1257 38.149L115.266 38.1507Z" fill="#C1C7D7"/>
<path d="M94.4644 81.6173H90.9536C88.2444 81.6143 85.6471 80.5368 83.7315 78.6211C81.8159 76.7055 80.7383 74.1082 80.7353 71.3991V40.4543C80.7353 31.6331 73.5596 24.4574 64.7383 24.4574C55.9171 24.4574 48.7422 31.6331 48.7422 40.4543V63.7997H54.5201V40.4543C54.508 39.1047 54.7635 37.7661 55.2716 36.5157C55.7797 35.2654 56.5305 34.1281 57.4806 33.1695C58.4307 32.2109 59.5612 31.4499 60.807 30.9307C62.0528 30.4114 63.3891 30.144 64.7387 30.144C66.0884 30.144 67.4247 30.4114 68.6705 30.9307C69.9162 31.4499 71.0468 32.2109 71.9969 33.1695C72.947 34.1281 73.6978 35.2654 74.2059 36.5157C74.714 37.7661 74.9694 39.1047 74.9574 40.4543V71.4007C74.9574 80.2211 82.1331 87.3977 90.9536 87.3977H94.4644V81.6173Z" fill="white" stroke="#C1C7D7" stroke-width="0.814592" stroke-linecap="round" stroke-linejoin="round"/>
<path d="M87.4671 77.8538H108.719V63.7997H87.4671V77.8538Z" fill="white" stroke="#C1C7D7" stroke-width="0.814592" stroke-linecap="round" stroke-linejoin="round"/>
<path d="M122.15 213.344V89.1058C122.15 79.6052 116.605 71.3371 108.591 67.3782H87.2813C79.2673 71.3371 73.7224 79.6052 73.7224 89.1058V213.344H122.15Z" fill="white" stroke="#C1C7D7" stroke-width="0.814592" stroke-linecap="round" stroke-linejoin="round"/>
<path d="M110.057 63.7997H86.2029" stroke="#C1C7D7" stroke-width="0.814592" stroke-linecap="round" stroke-linejoin="round"/>
<path d="M48.001 77.8538H69.2529V63.7997H48.001V77.8538Z" fill="white" stroke="#C1C7D7" stroke-width="0.814592" stroke-linecap="round" stroke-linejoin="round"/>
<path d="M82.6846 213.344V89.1058C82.6846 79.6052 77.1397 71.3371 69.1257 67.3782H47.816C39.802 71.3371 34.2571 79.6052 34.2571 89.1058V213.344H82.6846Z" fill="white" stroke="#C1C7D7" stroke-width="0.814592" stroke-linecap="round" stroke-linejoin="round"/>
<path d="M70.5913 63.7997H46.7375" stroke="#C1C7D7" stroke-width="0.814592" stroke-linecap="round" stroke-linejoin="round"/>
<path d="M61.0449 63.7997H66.8236V59.3341C66.8254 57.239 67.6584 55.2303 69.1399 53.7488C70.6213 52.2673 72.6301 51.4343 74.7252 51.4326H80.9715C83.0666 51.4343 85.0754 52.2673 86.5568 53.7488C88.0383 55.2303 88.8713 57.239 88.873 59.3341V63.7997H94.6493V59.3341C94.6493 51.7926 88.5138 45.6563 80.9715 45.6563H74.7252C67.1837 45.6563 61.0474 51.7926 61.0474 59.3341L61.0449 63.7997Z" fill="white" stroke="#C1C7D7" stroke-width="0.814592" stroke-linecap="round" stroke-linejoin="round"/>
<path d="M260.259 249.622H273.72V54.3113H260.259V249.622Z" stroke="#C1C7D7" stroke-width="0.814592" stroke-linecap="round" stroke-linejoin="round"/>
<path d="M273.72 249.622L260.237 236.418" stroke="#C1C7D7" stroke-width="0.814592" stroke-linecap="round" stroke-linejoin="round"/>
<path d="M260.197 249.622L273.68 236.418" stroke="#C1C7D7" stroke-width="0.814592" stroke-linecap="round" stroke-linejoin="round"/>
<path d="M273.72 236.621L260.237 223.418" stroke="#C1C7D7" stroke-width="0.814592" stroke-linecap="round" stroke-linejoin="round"/>
<path d="M260.197 236.621L273.68 223.418" stroke="#C1C7D7" stroke-width="0.814592" stroke-linecap="round" stroke-linejoin="round"/>
<path d="M273.72 223.621L260.237 210.417" stroke="#C1C7D7" stroke-width="0.814592" stroke-linecap="round" stroke-linejoin="round"/>
<path d="M260.197 223.621L273.68 210.417" stroke="#C1C7D7" stroke-width="0.814592" stroke-linecap="round" stroke-linejoin="round"/>
<path d="M273.72 210.621L260.237 197.417" stroke="#C1C7D7" stroke-width="0.814592" stroke-linecap="round" stroke-linejoin="round"/>
<path d="M260.197 210.621L273.68 197.417" stroke="#C1C7D7" stroke-width="0.814592" stroke-linecap="round" stroke-linejoin="round"/>
<path d="M273.72 197.62L260.237 184.417" stroke="#C1C7D7" stroke-width="0.814592" stroke-linecap="round" stroke-linejoin="round"/>
<path d="M260.197 197.62L273.68 184.417" stroke="#C1C7D7" stroke-width="0.814592" stroke-linecap="round" stroke-linejoin="round"/>
<path d="M273.72 184.62L260.237 171.416" stroke="#C1C7D7" stroke-width="0.814592" stroke-linecap="round" stroke-linejoin="round"/>
<path d="M260.197 184.62L273.68 171.416" stroke="#C1C7D7" stroke-width="0.814592" stroke-linecap="round" stroke-linejoin="round"/>
<path d="M273.72 171.619L260.237 158.416" stroke="#C1C7D7" stroke-width="0.814592" stroke-linecap="round" stroke-linejoin="round"/>
<path d="M260.197 171.619L273.68 158.416" stroke="#C1C7D7" stroke-width="0.814592" stroke-linecap="round" stroke-linejoin="round"/>
<path d="M273.72 158.619L260.237 145.415" stroke="#C1C7D7" stroke-width="0.814592" stroke-linecap="round" stroke-linejoin="round"/>
<path d="M260.197 158.619L273.68 145.415" stroke="#C1C7D7" stroke-width="0.814592" stroke-linecap="round" stroke-linejoin="round"/>
<path d="M273.72 145.619L260.237 132.415" stroke="#C1C7D7" stroke-width="0.814592" stroke-linecap="round" stroke-linejoin="round"/>
<path d="M260.197 145.619L273.68 132.415" stroke="#C1C7D7" stroke-width="0.814592" stroke-linecap="round" stroke-linejoin="round"/>
<path d="M273.72 132.618L260.237 119.415" stroke="#C1C7D7" stroke-width="0.814592" stroke-linecap="round" stroke-linejoin="round"/>
<path d="M260.197 132.618L273.68 119.415" stroke="#C1C7D7" stroke-width="0.814592" stroke-linecap="round" stroke-linejoin="round"/>
<path d="M273.72 119.618L260.237 106.414" stroke="#C1C7D7" stroke-width="0.814592" stroke-linecap="round" stroke-linejoin="round"/>
<path d="M260.197 119.618L273.68 106.414" stroke="#C1C7D7" stroke-width="0.814592" stroke-linecap="round" stroke-linejoin="round"/>
<path d="M273.72 106.617L260.237 93.4142" stroke="#C1C7D7" stroke-width="0.814592" stroke-linecap="round" stroke-linejoin="round"/>
<path d="M260.197 106.617L273.68 93.4142" stroke="#C1C7D7" stroke-width="0.814592" stroke-linecap="round" stroke-linejoin="round"/>
<path d="M273.72 93.617L260.237 80.4132" stroke="#C1C7D7" stroke-width="0.814592" stroke-linecap="round" stroke-linejoin="round"/>
<path d="M260.197 93.617L273.68 80.4132" stroke="#C1C7D7" stroke-width="0.814592" stroke-linecap="round" stroke-linejoin="round"/>
<path d="M273.72 80.617L260.237 67.4132" stroke="#C1C7D7" stroke-width="0.814592" stroke-linecap="round" stroke-linejoin="round"/>
<path d="M260.197 80.617L273.68 67.4132" stroke="#C1C7D7" stroke-width="0.814592" stroke-linecap="round" stroke-linejoin="round"/>
<path d="M273.72 67.616L260.237 54.4123" stroke="#C1C7D7" stroke-width="0.814592" stroke-linecap="round" stroke-linejoin="round"/>
<path d="M260.197 67.616L273.68 54.4123" stroke="#C1C7D7" stroke-width="0.814592" stroke-linecap="round" stroke-linejoin="round"/>
<path d="M253.918 42.8345L247.514 51.773" stroke="#C1C7D7" stroke-width="0.814592" stroke-linecap="round" stroke-linejoin="round"/>
<path d="M247.514 51.6859L241.173 42.8345L234.769 51.7738" stroke="#C1C7D7" stroke-width="0.814592" stroke-linecap="round" stroke-linejoin="round"/>
<path d="M234.769 51.6859L228.428 42.8345L222.024 51.7738" stroke="#C1C7D7" stroke-width="0.814592" stroke-linecap="round" stroke-linejoin="round"/>
<path d="M260.259 51.685H120.063" stroke="#C1C7D7" stroke-width="0.814592" stroke-linecap="round" stroke-linejoin="round"/>
<path d="M253.918 42.8345H126.436" stroke="#C1C7D7" stroke-width="0.814592" stroke-linecap="round" stroke-linejoin="round"/>
<path d="M222.024 51.6859L215.683 42.8345L209.279 51.7738" stroke="#C1C7D7" stroke-width="0.814592" stroke-linecap="round" stroke-linejoin="round"/>
<path d="M209.279 51.6859L202.938 42.8345L196.534 51.7738" stroke="#C1C7D7" stroke-width="0.814592" stroke-linecap="round" stroke-linejoin="round"/>
<path d="M196.534 51.6859L190.193 42.8345L183.789 51.7738" stroke="#C1C7D7" stroke-width="0.814592" stroke-linecap="round" stroke-linejoin="round"/>
<path d="M183.789 51.6859L177.448 42.8345L171.043 51.7738" stroke="#C1C7D7" stroke-width="0.814592" stroke-linecap="round" stroke-linejoin="round"/>
<path d="M171.043 51.6859L164.703 42.8345L158.298 51.7738" stroke="#C1C7D7" stroke-width="0.814592" stroke-linecap="round" stroke-linejoin="round"/>
<path d="M158.298 51.6859L151.958 42.8345L145.553 51.7738" stroke="#C1C7D7" stroke-width="0.814592" stroke-linecap="round" stroke-linejoin="round"/>
<path d="M145.553 51.6859L139.212 42.8345L132.808 51.7738" stroke="#C1C7D7" stroke-width="0.814592" stroke-linecap="round" stroke-linejoin="round"/>
<path d="M132.808 51.6859L126.467 42.8345L120.063 51.7738" stroke="#C1C7D7" stroke-width="0.814592" stroke-linecap="round" stroke-linejoin="round"/>
<path d="M324.33 51.6843H279.822" stroke="#C1C7D7" stroke-width="0.814592" stroke-linecap="round" stroke-linejoin="round"/>
<path d="M324.33 42.8337H279.822" stroke="#C1C7D7" stroke-width="0.814592" stroke-linecap="round" stroke-linejoin="round"/>
<path d="M323.937 51.6713L317.603 42.8337L311.2 51.7731" stroke="#C1C7D7" stroke-width="0.814592" stroke-linecap="round" stroke-linejoin="round"/>
<path d="M311.201 51.6859L304.861 42.8345L298.456 51.7738" stroke="#C1C7D7" stroke-width="0.814592" stroke-linecap="round" stroke-linejoin="round"/>
<path d="M298.456 51.6859L292.115 42.8345L285.711 51.7738" stroke="#C1C7D7" stroke-width="0.814592" stroke-linecap="round" stroke-linejoin="round"/>
<path d="M285.712 51.6852L279.822 43.4635" stroke="#C1C7D7" stroke-width="0.814592" stroke-linecap="round" stroke-linejoin="round"/>
<path d="M324.329 56.9327H329.64V37.8052H324.329V56.9327Z" stroke="#C1C7D7" stroke-width="0.814592" stroke-linecap="round" stroke-linejoin="round"/>
<path d="M331.657 56.9327H336.967V37.8052H331.657V56.9327Z" stroke="#C1C7D7" stroke-width="0.814592" stroke-linecap="round" stroke-linejoin="round"/>
<path d="M338.983 56.9327H344.293V37.8052H338.983V56.9327Z" stroke="#C1C7D7" stroke-width="0.814592" stroke-linecap="round" stroke-linejoin="round"/>
<path d="M329.641 51.685H331.656" stroke="#C1C7D7" stroke-width="0.814592" stroke-linecap="round" stroke-linejoin="round"/>
<path d="M336.967 51.685H338.983" stroke="#C1C7D7" stroke-width="0.814592" stroke-linecap="round" stroke-linejoin="round"/>
<path d="M329.641 42.8345H331.656" stroke="#C1C7D7" stroke-width="0.814592" stroke-linecap="round" stroke-linejoin="round"/>
<path d="M336.967 42.8345H338.983" stroke="#C1C7D7" stroke-width="0.814592" stroke-linecap="round" stroke-linejoin="round"/>
<path d="M274.385 54.3113H259.174C258.478 54.3113 257.81 54.0346 257.317 53.5421C256.825 53.0496 256.548 52.3816 256.548 51.6851H277.011C277.011 52.3816 276.735 53.0496 276.242 53.5421C275.75 54.0346 275.082 54.3113 274.385 54.3113Z" stroke="#C1C7D7" stroke-width="0.814592" stroke-linecap="round" stroke-linejoin="round"/>
<path d="M253.918 51.6842H279.822V28.3633H267.343C265.16 28.3631 263.013 28.9228 261.108 29.9888C259.202 31.0549 257.602 32.5916 256.46 34.4523L255.808 35.5203C254.575 37.5299 253.922 39.8419 253.922 42.1999L253.918 51.6842Z" stroke="#C1C7D7" stroke-width="0.814592" stroke-linecap="round" stroke-linejoin="round"/>
<path d="M267.96 40.952H257.152C257.152 38.334 258.192 35.8232 260.044 33.972C261.895 32.1208 264.406 31.0808 267.024 31.0808H267.96V40.952Z" stroke="#C1C7D7" stroke-width="0.814592" stroke-linecap="round" stroke-linejoin="round"/>
<path d="M267.964 28.3641L275.282 2.85678H279.821V28.3641" stroke="#C1C7D7" stroke-width="0.814592" stroke-linecap="round" stroke-linejoin="round"/>
<path d="M279.821 28.3641L270.31 20.654L279.821 16.331L272.871 11.2626L279.821 7.57409L275.282 2.85678" stroke="#C1C7D7" stroke-width="0.814592" stroke-linecap="round" stroke-linejoin="round"/>
<path d="M275.57 2.85678L279.605 2.85678C280.282 2.85678 280.83 2.30845 280.83 1.63204C280.83 0.955636 280.282 0.407301 279.605 0.407301L275.57 0.407301C274.894 0.407301 274.345 0.955636 274.345 1.63204C274.345 2.30845 274.894 2.85678 275.57 2.85678Z" stroke="#C1C7D7" stroke-width="0.814592" stroke-linecap="round" stroke-linejoin="round"/>
<path d="M275.282 2.85678L126.467 42.8345" stroke="#C1C7D7" stroke-width="0.814592" stroke-linecap="round" stroke-linejoin="round"/>
<path d="M279.605 2.85678L323.96 42.8345" stroke="#C1C7D7" stroke-width="0.814592" stroke-linecap="round" stroke-linejoin="round"/>
<path d="M146.641 51.6843V52.0533C146.641 52.5824 146.851 53.0898 147.225 53.4639C147.599 53.8381 148.107 54.0482 148.636 54.0482H158.565C158.827 54.0484 159.086 53.9968 159.328 53.8966C159.571 53.7964 159.79 53.6494 159.976 53.4642C160.161 53.2789 160.308 53.0589 160.408 52.8169C160.508 52.5748 160.56 52.3153 160.56 52.0533V51.6843" stroke="#C1C7D7" stroke-width="0.814592" stroke-linecap="round" stroke-linejoin="round"/>
<path d="M148.61 74.5327V54.0482" stroke="#C1C7D7" stroke-width="0.814592" stroke-linecap="round" stroke-linejoin="round"/>
<path d="M158.459 54.0482V74.5327" stroke="#C1C7D7" stroke-width="0.814592" stroke-linecap="round" stroke-linejoin="round"/>
<path d="M153.535 74.5303C153.546 73.8851 153.811 73.2703 154.271 72.8181C154.732 72.3659 155.351 72.1126 155.997 72.1126C156.642 72.1126 157.262 72.3659 157.722 72.8181C158.183 73.2703 158.447 73.8851 158.459 74.5303" stroke="#C1C7D7" stroke-width="0.814592" stroke-linecap="round" stroke-linejoin="round"/>
<path d="M148.61 74.5303C148.622 73.8851 148.887 73.2703 149.347 72.8181C149.808 72.3659 150.427 72.1126 151.072 72.1126C151.718 72.1126 152.337 72.3659 152.798 72.8181C153.258 73.2703 153.523 73.8851 153.535 74.5303" stroke="#C1C7D7" stroke-width="0.814592" stroke-linecap="round" stroke-linejoin="round"/>
<path d="M147.848 74.6378H159.165V76.0226C159.166 76.3662 159.035 76.6969 158.8 76.9472L156.512 79.3869C156.346 79.5638 156.146 79.7048 155.923 79.8012C155.7 79.8976 155.46 79.9473 155.218 79.9473H151.878C151.64 79.9473 151.405 79.8993 151.186 79.8064C150.967 79.7135 150.768 79.5775 150.603 79.4064L148.229 76.9504C147.985 76.6983 147.849 76.3616 147.849 76.0112L147.848 74.6378Z" stroke="#C1C7D7" stroke-width="0.814592" stroke-linecap="round" stroke-linejoin="round"/>
<path d="M152.567 82.0075C152.587 82.6062 152.546 83.2009 151.977 83.5829C150.73 84.3437 150.139 86.021 150.697 87.3822C151.466 89.5253 154.49 90.0394 155.876 88.2326C156.308 87.6937 156.539 87.0206 156.527 86.3297C156.496 85.441 155.185 85.4475 155.156 86.3297C155.101 87.9206 152.837 88.3222 152.342 86.7842C152.263 86.5272 152.265 86.252 152.347 85.996C152.43 85.74 152.589 85.5155 152.803 85.353C153.841 84.7901 154.613 83.6823 154.651 82.471C154.651 82.471 154.658 82.2266 154.665 82.0075" stroke="#C1C7D7" stroke-width="0.814592" stroke-linecap="round" stroke-linejoin="round"/>
<path d="M151.567 79.9473V80.9322C151.567 81.2173 151.68 81.4908 151.882 81.6925C152.083 81.8941 152.357 82.0074 152.642 82.0074H154.507C154.793 82.0074 155.066 81.8941 155.268 81.6925C155.469 81.4908 155.583 81.2173 155.583 80.9322V79.9473" stroke="#C1C7D7" stroke-width="0.814592" stroke-linecap="round" stroke-linejoin="round"/>
<path d="M313.268 276.974H266.122V132.683L313.268 118.266V276.974Z" fill="white" stroke="#C1C7D7" stroke-width="0.814592" stroke-linecap="round" stroke-linejoin="round"/>
<path d="M335.651 276.974H288.506V132.683L335.651 118.266V276.974Z" fill="white" stroke="#C1C7D7" stroke-width="0.814592" stroke-linecap="round" stroke-linejoin="round"/>
<path d="M82.27 166.793H14.7346V322.223H82.27V166.793Z" fill="white" stroke="#C1C7D7" stroke-width="0.814592" stroke-linecap="round" stroke-linejoin="round"/>
<path d="M348.87 197.399H256.486V322.223H348.87V197.399Z" fill="white" stroke="#C1C7D7" stroke-width="0.814592" stroke-linecap="round" stroke-linejoin="round"/>
<path d="M293.65 197.399V322.223" stroke="#C1C7D7" stroke-width="0.814592" stroke-linecap="round" stroke-linejoin="round"/>
<path d="M302.854 197.399V322.223" stroke="#C1C7D7" stroke-width="0.814592" stroke-linecap="round" stroke-linejoin="round"/>
<path d="M312.057 197.399V322.223" stroke="#C1C7D7" stroke-width="0.814592" stroke-linecap="round" stroke-linejoin="round"/>
<path d="M321.261 197.399V322.223" stroke="#C1C7D7" stroke-width="0.814592" stroke-linecap="round" stroke-linejoin="round"/>
<path d="M330.464 197.399V322.223" stroke="#C1C7D7" stroke-width="0.814592" stroke-linecap="round" stroke-linejoin="round"/>
<path d="M339.667 197.399V322.223" stroke="#C1C7D7" stroke-width="0.814592" stroke-linecap="round" stroke-linejoin="round"/>
<path d="M348.871 197.399V322.223" stroke="#C1C7D7" stroke-width="0.814592" stroke-linecap="round" stroke-linejoin="round"/>
<path d="M284.446 197.399V322.223" stroke="#C1C7D7" stroke-width="0.814592" stroke-linecap="round" stroke-linejoin="round"/>
<path d="M348.87 197.399H256.486V322.223H348.87V197.399Z" stroke="#C1C7D7" stroke-width="0.814592" stroke-linecap="round" stroke-linejoin="round"/>
<path d="M348.87 194.512H267.335V200.286H348.87V194.512Z" fill="white" stroke="#C1C7D7" stroke-width="0.814592" stroke-linecap="round" stroke-linejoin="round"/>
<path d="M272.739 285.563H162.574V291.148H272.739V285.563Z" fill="#27618E"/>
<path d="M48.502 154.898V322.223H18.9526H120.307H275.864V154.898H48.502Z" fill="white" stroke="#C1C7D7" stroke-width="0.814592" stroke-linecap="round" stroke-linejoin="round"/>
<path d="M47.7852 181.945H275.864" stroke="#C1C7D7" stroke-width="0.814592" stroke-linecap="round" stroke-linejoin="round"/>
<path d="M48.5019 220.021H14.7346H120.307H275.864" stroke="#C1C7D7" stroke-width="0.814592" stroke-linecap="round" stroke-linejoin="round"/>
<path d="M48.5019 258.096H14.7346H120.307H275.864" stroke="#C1C7D7" stroke-width="0.814592" stroke-linecap="round" stroke-linejoin="round"/>
<path d="M48.5019 296.172H14.7346L120.307 296.171H275.864" stroke="#C1C7D7" stroke-width="0.814592" stroke-linecap="round" stroke-linejoin="round"/>
<path d="M87.6301 154.897V322.223" stroke="#C1C7D7" stroke-width="0.814592" stroke-linecap="round" stroke-linejoin="round"/>
<path d="M125 154.897V322.223" stroke="#C1C7D7" stroke-width="0.814592" stroke-linecap="round" stroke-linejoin="round"/>
<path d="M162.369 154.897V322.223" stroke="#C1C7D7" stroke-width="0.814592" stroke-linecap="round" stroke-linejoin="round"/>
<path d="M199.738 154.897V322.223" stroke="#C1C7D7" stroke-width="0.814592" stroke-linecap="round" stroke-linejoin="round"/>
<path d="M237.108 154.897V322.223" stroke="#C1C7D7" stroke-width="0.814592" stroke-linecap="round" stroke-linejoin="round"/>
<path d="M278.267 149.123H45.9287V154.897H278.267V149.123Z" fill="white" stroke="#C1C7D7" stroke-width="0.814592" stroke-linecap="round" stroke-linejoin="round"/>
<path d="M90.1377 93.3276C92.6245 90.8409 92.6245 86.8091 90.1377 84.3224C87.651 81.8356 83.6192 81.8356 81.1325 84.3224C78.6458 86.8091 78.6458 90.8409 81.1325 93.3276C83.6192 95.8143 87.651 95.8143 90.1377 93.3276Z" fill="#2E2E2E"/>
<path d="M128.928 97.0155C131.415 94.5288 131.415 90.497 128.928 88.0103C126.441 85.5236 122.409 85.5236 119.923 88.0103C117.436 90.497 117.436 94.5288 119.923 97.0155C122.409 99.5023 126.441 99.5023 128.928 97.0155Z" fill="#2E2E2E"/>
<path d="M126.458 103.827C128.945 101.34 128.945 97.3085 126.458 94.8217C123.971 92.335 119.939 92.335 117.453 94.8217C114.966 97.3085 114.966 101.34 117.453 103.827C119.939 106.314 123.971 106.314 126.458 103.827Z" fill="#2E2E2E"/>
<path d="M123.294 111.134C125.781 108.647 125.781 104.616 123.294 102.129C120.808 99.642 116.776 99.6421 114.289 102.129C111.802 104.616 111.802 108.647 114.289 111.134C116.776 113.621 120.808 113.621 123.294 111.134Z" fill="#2E2E2E"/>
<path d="M93.1526 99.6959C95.6394 97.2092 95.6394 93.1774 93.1526 90.6906C90.6659 88.2039 86.6341 88.2039 84.1474 90.6906C81.6607 93.1774 81.6607 97.2092 84.1474 99.6959C86.6341 102.183 90.6659 102.183 93.1526 99.6959Z" fill="#2E2E2E"/>
<path d="M79.5241 130.009C49.864 124.154 54.3654 206.634 54.3654 206.634L89.3473 209.322C89.3473 209.322 100.777 134.205 79.5241 130.009Z" fill="#C1C7D7"/>
<path d="M54.3652 206.634L77.419 208.405" stroke="#2E2E2E" stroke-width="0.814592" stroke-linecap="round" stroke-linejoin="round"/>
<path d="M160.169 322.222C159.838 293.328 157.992 268.518 153.489 255.52C137.76 210.147 72.8794 255.988 72.8794 255.988C69.5249 270.524 65.0593 294.676 60.3257 322.222H107.165C110.855 304.971 113.266 293.704 113.266 293.704C113.266 293.704 113.38 304.981 113.555 322.222H160.169Z" fill="#1E90FF"/>
<path d="M100.86 296.081L125.187 291.328" stroke="#2E2E2E" stroke-width="0.814592" stroke-linecap="round" stroke-linejoin="round"/>
<path d="M104.186 289.968L127.134 299.255" stroke="#2E2E2E" stroke-width="0.814592" stroke-linecap="round" stroke-linejoin="round"/>
<path d="M108.022 264.526C107.702 283.384 112.217 289.452 112.217 289.452" stroke="#2E2E2E" stroke-width="0.814592" stroke-linecap="round" stroke-linejoin="round"/>
<path d="M71.9907 287.383C69.9909 298.196 67.8583 309.987 65.6785 322.222" stroke="#2E2E2E" stroke-width="0.814592" stroke-linecap="round" stroke-linejoin="round"/>
<path d="M113.263 293.704L105.711 322.222" stroke="#2E2E2E" stroke-width="0.814592" stroke-linecap="round" stroke-linejoin="round"/>
<path d="M153.612 299.496C154.279 306.655 154.733 314.298 155.014 322.223" stroke="#2E2E2E" stroke-width="0.814592" stroke-linecap="round" stroke-linejoin="round"/>
<path d="M69.2927 136.572C66.7178 170.906 75.3614 169.825 78.1856 264.018L146.892 266.649C146.708 268.068 160.881 140.757 159.494 137.819C152.428 122.855 70.416 121.598 69.2927 136.572Z" fill="#C1C7D7"/>
<path d="M80.3231 178.289L130.679 180.9L156.131 201.983L151.231 273.014L72.8753 271.763L70.2319 204.39L80.3231 178.289Z" fill="#1E90FF"/>
<path d="M83.4487 256.999C127.304 262.846 152.156 251.736 152.156 251.736" stroke="#2E2E2E" stroke-width="0.814592" stroke-linecap="round" stroke-linejoin="round"/>
<path d="M142.846 129.271C142.777 129.255 126.593 184.5 126.593 184.5L134.719 189.702L151.839 131.889L142.846 129.271Z" fill="#1E90FF"/>
<path d="M78.2761 128.951C78.2761 128.951 69.2235 171.391 74.2031 192.221C76.8229 203.176 89.6177 185.665 89.6177 185.665C81.8408 183.547 84.3937 139.458 86.6493 126.739L78.2761 128.951Z" fill="#1E90FF"/>
<path d="M68.8324 144.714C62.8411 160.418 68.272 199.928 68.272 199.928" stroke="#2E2E2E" stroke-width="0.814592" stroke-linecap="round" stroke-linejoin="round"/>
<path d="M112.053 69.7544C122.06 74.1206 118.896 78.3646 125.802 84.1254C127.315 83.7825 127.934 85.1656 127.968 86.3867C135.201 96.0958 121.688 109.704 119.099 113.206C116.3 116.99 112.053 69.7544 112.053 69.7544Z" fill="#2E2E2E"/>
<path d="M92.2871 126.835C98.5888 126.132 106.963 118.828 114.093 118.956C121.765 119.093 128.202 126.729 135.135 127.801C143.199 147.571 83.6524 139.098 92.2871 126.835Z" fill="white"/>
<path d="M135.135 127.805C143.204 147.575 83.6573 139.102 92.2871 126.839" stroke="#2E2E2E" stroke-width="0.814592" stroke-linecap="round" stroke-linejoin="round"/>
<path d="M96.0879 104.116L99.9915 129.848C101.44 138.772 127.802 138.588 126.554 129.306C125.306 120.024 117.398 85.481 117.398 85.481C117.398 85.481 94.9752 79.2004 96.0879 104.116Z" fill="white"/>
<path d="M98.7069 64.1598C134.488 59.3471 121.08 116.83 106.063 118.85C93.6418 120.521 89.3921 107.539 87.2888 93.8997C85.1497 80.0321 82.9494 66.2793 98.7069 64.1598Z" fill="white"/>
<path d="M107.31 118.681C91.5646 120.799 89.4206 107.17 87.3173 93.5307C85.1782 79.6639 84.195 66.1107 99.9532 63.9911" stroke="#2E2E2E" stroke-width="0.814592" stroke-linecap="round" stroke-linejoin="round"/>
<path d="M100.641 90.7154C102.133 88.8777 104.137 92.3315 102.2 93.4435C100.263 94.5554 100.02 91.4795 100.641 90.7154Z" fill="#2E2E2E"/>
<path d="M88.9546 91.7745C90.4461 89.9367 92.4508 93.3906 90.5137 94.5025C88.5766 95.6145 88.3331 92.5385 88.9546 91.7745Z" fill="#2E2E2E"/>
<path d="M86.9182 87.9344C88.2216 86.6709 91.5752 87.3283 92.3809 87.5499" stroke="#2E2E2E" stroke-width="0.814592" stroke-linecap="round" stroke-linejoin="round"/>
<path d="M98.8982 86.9056C99.6183 86.0731 104.171 85.1021 108.128 86.5187" stroke="#2E2E2E" stroke-width="0.814592" stroke-linecap="round" stroke-linejoin="round"/>
<path d="M95.9992 89.8984C95.9178 97.1914 95.1138 99.636 95.1138 99.636C95.1138 99.636 95.7736 100.608 97.8834 100.324" stroke="#2E2E2E" stroke-width="0.814592" stroke-linecap="round" stroke-linejoin="round"/>
<path d="M86.1305 81.9578C85.9773 74.8358 89.5599 73.7385 92.4224 75.0077C95.2849 76.2768 100.135 79.4219 115.778 76.7688C115.778 76.7688 117.509 91.8559 119.877 93.6626C122.246 95.4694 125.274 92.914 125.927 85.8727C128.132 62.1151 117.628 61.6149 106.656 61.3429C103.914 61.2753 98.5188 61.2565 98.698 58.7289C90.4242 59.2974 80.5383 70.8573 86.1305 81.9578Z" fill="#2E2E2E"/>
<path d="M117.214 99.5489C111.89 94.1343 120.944 84.0578 124.506 88.9673C128.068 93.8769 122.196 104.615 117.214 99.5489Z" fill="white"/>
<path d="M120.5 96.6131C120.5 96.6131 123.252 94.285 121.216 92.4644" stroke="#2E2E2E" stroke-width="0.814592" stroke-linecap="round" stroke-linejoin="round"/>
<path d="M117.54 90.3774C119.583 87.8017 122.731 86.5154 124.51 88.9673C127.56 93.1715 123.695 101.651 119.389 100.817" stroke="#2E2E2E" stroke-width="0.814592" stroke-linecap="round" stroke-linejoin="round"/>
<path d="M95.315 101.133C100.752 99.4014 106.16 101.79 107.8 106.222C112.631 105.68 116.149 95.4474 116.149 95.4474C116.149 95.4474 117.075 102.779 118.418 104.755C119.762 106.731 115.052 118.603 109.941 122.529C104.402 126.788 94.8873 128.369 91.3357 122.622C87.4436 116.325 89.4866 105.004 89.4866 105.004C89.4866 105.004 90.7712 107.518 92.046 107.223C91.4725 103.714 92.6073 101.996 95.315 101.133Z" fill="#2E2E2E"/>
<path d="M93.1905 108.341C92.5722 103.711 103.409 105.082 104.639 108.391C105.421 110.497 103.893 113.706 99.7871 113.605C95.6807 113.504 93.5905 111.35 93.1905 108.341Z" fill="white"/>
<path d="M94.7373 109.431C94.7373 109.431 98.8103 109.812 101.975 107.933" stroke="#2E2E2E" stroke-width="0.814592" stroke-linecap="round" stroke-linejoin="round"/>
<path d="M140.015 132.248C136.152 150.652 101.037 143.584 93.4316 137.788" stroke="#2E2E2E" stroke-width="0.814592" stroke-linecap="round" stroke-linejoin="round"/>
<path d="M125.361 123.376L134.81 128.215" stroke="#2E2E2E" stroke-width="0.814592" stroke-linecap="round" stroke-linejoin="round"/>
<path d="M86.9368 126.835C80.9959 157.121 84.3928 179.086 84.3928 179.086L127.692 180.745L132.395 164.706" stroke="#2E2E2E" stroke-width="0.814592" stroke-linecap="round" stroke-linejoin="round"/>
<path d="M151.874 131.78L135.886 185.342L147.215 195.887" stroke="#2E2E2E" stroke-width="0.814592" stroke-linecap="round" stroke-linejoin="round"/>
<path d="M120.952 101.479L126.553 129.306" stroke="#2E2E2E" stroke-width="0.814592" stroke-linecap="round" stroke-linejoin="round"/>
<path d="M73.9425 130.009C60.4691 133.089 56.4287 161.864 56.4287 161.864" stroke="#2E2E2E" stroke-width="0.814592" stroke-linecap="round" stroke-linejoin="round"/>
<path d="M129.001 83.7825C129.902 43.9204 77.5364 50.7011 82.112 82.5508C82.112 82.5508 99.9711 79.7274 112.676 80.7587C125.381 81.79 129.001 83.7825 129.001 83.7825Z" fill="white" stroke="#2E2E2E" stroke-width="0.814592" stroke-linecap="round" stroke-linejoin="round"/>
<path d="M125.68 83.9372C97.5631 77.4783 72.7401 85.2552 85.5544 86.9887C85.5544 86.9887 75.3924 88.323 73.9245 84.8113C72.4566 81.2995 105.36 78.0135 122.661 81.5912C136.442 84.4422 130.404 86.684 127.881 86.5243C127.881 86.5243 127.921 85.221 127.24 84.5775C126.744 84.1099 125.68 83.9372 125.68 83.9372Z" fill="white" stroke="#2E2E2E" stroke-width="0.814592" stroke-linecap="round" stroke-linejoin="round"/>
<path d="M93.5596 66.9359C99.0043 51.0367 116.457 58.1684 116.457 58.1684" stroke="#2E2E2E" stroke-width="0.814592" stroke-linecap="round" stroke-linejoin="round"/>
<path d="M87.4321 68.1023C89.3872 61.4031 93.4601 59.1752 93.4601 59.1752" stroke="#2E2E2E" stroke-width="0.814592" stroke-linecap="round" stroke-linejoin="round"/>
<path d="M99.0923 74.4823C125.715 73.9235 129.302 78.763 129.302 78.763" stroke="#2E2E2E" stroke-width="0.814592" stroke-linecap="round" stroke-linejoin="round"/>
<path d="M32.7607 177.734H70.4307C74.7619 177.028 73.742 166.446 63.76 166.446H30.0188L32.7607 177.734Z" fill="white" stroke="#2E2E2E" stroke-width="0.814592" stroke-linecap="round" stroke-linejoin="round"/>
<path d="M55.2483 174.673H64.7139C74.489 184.926 76.9515 166.446 63.76 166.446" stroke="#2E2E2E" stroke-width="0.814592" stroke-linecap="round" stroke-linejoin="round"/>
<path d="M62.6791 176.565L106.604 235.225H57.3615L13.437 176.565H62.6791Z" fill="white" stroke="#2E2E2E" stroke-width="0.814592" stroke-linecap="round" stroke-linejoin="round"/>
<path d="M61.01 178.83L104.934 237.49H55.6923L11.8787 172.081L61.01 178.83Z" fill="#2E2E2E" stroke="#2E2E2E" stroke-width="0.814592" stroke-linecap="round" stroke-linejoin="round"/>
<path d="M76.0408 204.241C50.0487 193.749 50.5253 166.444 63.76 166.444H14.1611C0.927185 166.444 0.449835 193.747 26.4418 204.241H76.0408Z" fill="white" stroke="#2E2E2E" stroke-width="0.814592" stroke-linecap="round" stroke-linejoin="round"/>
<path d="M158.432 136.521C153.183 133.874 142.323 168.783 140.582 178.689C138.588 190.024 139.308 201.753 138.301 207.363L120.798 205.714C120.798 205.714 114.992 233.166 115.548 235.068C115.548 235.068 142.869 243.515 151.58 239.128C167.44 231.137 177.383 146.074 158.432 136.521Z" fill="#C1C7D7"/>
<path d="M139.686 181.513L138.297 207.364L120.922 206.001" stroke="#2E2E2E" stroke-width="0.814592" stroke-linecap="round" stroke-linejoin="round"/>
<path d="M165.671 205.895C159.084 229.643 156.185 237.257 150.727 239.425C143.478 242.305 122.837 236.684 122.837 236.684" stroke="#2E2E2E" stroke-width="0.814592" stroke-linecap="round" stroke-linejoin="round"/>
<path d="M145.952 213.933L138.297 207.364V213.933" stroke="#2E2E2E" stroke-width="0.814592" stroke-linecap="round" stroke-linejoin="round"/>
<path d="M80.0355 203.454C87.041 203.373 122.191 208.389 126.06 208.576C129.928 208.764 130.321 228.029 121.692 231.863L81.0643 221.288C81.0643 221.288 73.0316 203.54 80.0355 203.454Z" fill="white"/>
<path d="M77.4891 200.044C77.4891 200.044 56.4987 198.646 53.3226 198.669C50.1465 198.693 49.9575 202.547 54.2708 203.348C51.4482 204.325 51.0621 208.207 58.98 209.397C56.4474 210.929 58.1874 212.503 63.1792 213.517C61.7879 214.383 72.2717 217.78 75.2474 219.278C78.2231 220.775 86.672 223.531 88.7541 221.951C90.8362 220.371 92.7969 213.855 91.0505 208.459C89.304 203.063 85.0176 200.531 77.4891 200.044Z" fill="white"/>
<path d="M73.04 185.782C70.2362 189.651 72.7231 193.882 75.1506 196.231C77.5781 198.581 77.2197 204.152 77.2197 204.152C77.2197 204.152 86.875 209.973 89.6618 208.522C92.4485 207.071 87.7515 198.527 81.1794 193.66C74.6073 188.792 73.04 185.782 73.04 185.782Z" fill="white"/>
<path d="M90.4503 206.376C90.0666 203.153 86.1623 197.349 81.1794 193.66C74.6065 188.792 73.04 185.782 73.04 185.782C70.2362 189.651 72.7231 193.882 75.1506 196.231" stroke="#2E2E2E" stroke-width="0.814592" stroke-linecap="round" stroke-linejoin="round"/>
<path d="M54.2708 203.348L68.2532 206.483" stroke="#2E2E2E" stroke-width="0.814592" stroke-linecap="round" stroke-linejoin="round"/>
<path d="M58.9792 209.398L70.3583 213.222" stroke="#2E2E2E" stroke-width="0.814592" stroke-linecap="round" stroke-linejoin="round"/>
<path d="M115.782 206.907C126.046 211.203 120.447 231.392 116.021 230.295C111.958 229.287 110.425 228.857 110.425 228.857C111.374 231.593 114.24 238.184 120.079 239.125C135.012 241.534 141.318 214.782 132.727 205.238C124.135 195.694 115.782 206.907 115.782 206.907Z" fill="#C1C7D7"/>
<path d="M120.079 239.125C135.013 241.534 141.318 214.782 132.727 205.238" stroke="#2E2E2E" stroke-width="0.814592" stroke-linecap="round" stroke-linejoin="round"/>
<path d="M121.514 219.587C122.799 208.194 115.782 206.906 115.782 206.906L88.8145 204.043" stroke="#2E2E2E" stroke-width="0.814592" stroke-linecap="round" stroke-linejoin="round"/>
<path d="M109.449 206.232L111.208 220.07L100.975 219.529L103.221 205.65L109.449 206.232Z" fill="#2E2E2E"/>
<path d="M113.289 223.159C113.453 220.392 110.26 217.951 106.157 217.708C102.054 217.465 98.5948 219.512 98.4308 222.279C98.2669 225.046 101.46 227.487 105.563 227.73C109.666 227.973 113.125 225.927 113.289 223.159Z" fill="white" stroke="#2E2E2E" stroke-width="0.814592" stroke-linecap="round" stroke-linejoin="round"/>
<path d="M109.993 224.913L105.545 222.736L103.695 226.427" fill="white"/>
<path d="M109.993 224.913L105.545 222.736L103.695 226.427" stroke="#2E2E2E" stroke-width="0.814592" stroke-linecap="round" stroke-linejoin="round"/>
<path d="M76.7847 199.846C76.7847 199.846 56.3873 198.456 54.1203 198.146C51.8533 197.837 51.0811 199.28 51.0811 200.361" stroke="#2E2E2E" stroke-width="0.814592" stroke-linecap="round" stroke-linejoin="round"/>
<path d="M72.3386 261.094C80.8177 266.941 99.2365 266.063 99.2365 266.063" stroke="#2E2E2E" stroke-width="0.814592" stroke-linecap="round" stroke-linejoin="round"/>
<path d="M227.527 207.363L242.905 160.674C242.905 160.674 250.659 198.501 253.251 217.658C255.842 236.815 255.924 261.094 255.924 261.094C255.924 261.094 231.799 233.938 227.527 207.363Z" fill="#1E90FF"/>
<path d="M243.784 86.1122L245.658 150.542C245.658 150.542 241.293 154.906 241.293 152.828C241.293 150.75 240.255 87.9866 240.255 87.9866L243.784 86.1122Z" fill="#2E2E2E"/>
<path d="M243.195 86.4234C245.119 132.072 247.579 147.734 247.579 147.734" stroke="#2E2E2E" stroke-width="0.814592" stroke-linecap="round" stroke-linejoin="round"/>
<path d="M239.844 86.4234C245.383 128.716 227.527 165.662 227.527 165.662" stroke="#2E2E2E" stroke-width="0.814592" stroke-linecap="round" stroke-linejoin="round"/>
<path d="M243.161 79.0456C243.992 120.197 229.443 151.789 229.443 151.789L208.916 146.901L214.194 74.9873L243.161 79.0456Z" fill="#2E2E2E"/>
<path d="M180.555 322.222C178.751 277.48 178.887 237.532 184.098 225.906L245.141 226.427C249.243 239.906 262.504 278.756 271.708 322.223H229.919L223.232 285.347C223.232 285.347 223.863 300.627 224.755 322.226L180.555 322.222Z" fill="#C1C7D7"/>
<path d="M224.401 247.878L223.082 284.895" stroke="#2E2E2E" stroke-width="0.814592" stroke-linecap="round" stroke-linejoin="round"/>
<path d="M185.867 272.619C185.867 272.619 187.008 293.789 188.532 322.222" stroke="#2E2E2E" stroke-width="0.814592" stroke-linecap="round" stroke-linejoin="round"/>
<path d="M227.606 276.193C230.179 291.95 232.738 307.368 235.24 322.222" stroke="#2E2E2E" stroke-width="0.814592" stroke-linecap="round" stroke-linejoin="round"/>
<path d="M263.59 288.299C263.59 288.299 267.326 302.108 271.41 322.222" stroke="#2E2E2E" stroke-width="0.814592" stroke-linecap="round" stroke-linejoin="round"/>
<path d="M245.744 229.2C245.744 229.2 179.144 225.504 180.397 226.756C181.65 228.009 186.628 156.473 186.628 156.473C186.628 156.473 245.327 142.936 245.264 143.096C245.201 143.256 245.744 229.2 245.744 229.2Z" fill="white"/>
<path d="M245.744 229.2L194.106 226.737" stroke="#2E2E2E" stroke-width="0.814592" stroke-linecap="round" stroke-linejoin="round"/>
<path d="M241.42 148.132C225.5 127.686 203.017 125.831 200.049 139.281C197.08 152.732 183.952 133.446 189.239 131.169C194.527 128.892 218.809 124.857 230.488 130.074C242.166 135.292 241.42 148.132 241.42 148.132Z" fill="#1E90FF"/>
<path d="M210.098 126.304C187.296 128.569 205.455 155.158 230.369 169.276C240.31 148.332 229.582 124.369 210.098 126.304Z" fill="white"/>
<path d="M224.734 154.11C226.07 154.895 227.435 155.683 228.829 156.473C238.767 135.538 229.583 124.369 210.098 126.304" fill="white"/>
<path d="M224.734 154.11C226.07 154.895 227.435 155.683 228.829 156.473C238.767 135.538 229.583 124.369 210.098 126.304" stroke="#2E2E2E" stroke-width="0.814592" stroke-linecap="round" stroke-linejoin="round"/>
<path d="M227.527 131.744C259.319 124.68 260.297 193.746 260.297 193.746C260.297 193.746 271.415 193.181 282.983 199.357C284.042 212.968 275.561 224.84 257.052 231.22C251.597 157.978 227.527 131.744 227.527 131.744Z" fill="#1E90FF"/>
<path d="M225.978 128.717C254.819 130.654 259.187 194.486 259.797 206.171C260.058 211.18 260.096 222.789 260.052 234.427L264.962 265.036L253.207 268.363C258.464 204.951 225.978 128.717 225.978 128.717Z" fill="#1E90FF"/>
<path d="M249.184 161.738C253.103 177.966 259.785 227.195 259.719 233.188" stroke="#2E2E2E" stroke-width="0.814592" stroke-linecap="round" stroke-linejoin="round"/>
<path d="M229.824 131.169C238.801 136.201 241.891 143.987 241.891 143.987L239.162 148.134L244.176 149.851C244.176 149.851 247.398 170.221 247.579 179.161" stroke="#2E2E2E" stroke-width="0.814592" stroke-linecap="round" stroke-linejoin="round"/>
<path d="M196.93 134.484C173.715 120.174 155.631 180.054 150.737 205.598C145.842 231.142 172.251 231.991 190.66 220.458L201.75 212.475L193.398 181.496L184.672 186.081C184.672 186.081 222.677 150.351 196.93 134.484Z" fill="#1E90FF"/>
<path d="M180.792 135.252C186.983 130.27 195.21 128.028 202.092 127.682C202.092 127.682 201.65 133.635 203.531 136.712C207.534 143.262 211.231 150.208 211.768 162.966C212.855 188.78 200.899 270.358 200.899 270.358H175.629L182.366 211.351C182.366 211.351 171.755 142.524 180.792 135.252Z" fill="#1E90FF"/>
<path d="M194.564 130.074C191.41 137.664 200.308 144.203 199.498 153.086C200.292 152.841 206.707 154.072 206.707 154.072L200.609 160.611C200.609 160.611 208.434 179.485 207.571 188.367" stroke="#2E2E2E" stroke-width="0.814592" stroke-linecap="round" stroke-linejoin="round"/>
<path d="M205.108 206.476L231.718 186.7C231.718 186.7 234.492 177.332 228.603 178.042C222.713 178.752 205.522 187.379 200.042 189.958C194.562 192.537 205.108 206.476 205.108 206.476Z" fill="white"/>
<path d="M320.599 190.981C320.599 190.981 309.851 201.517 307.892 203.475L292.524 201.311C292.524 201.311 288.996 204.72 287.784 205.818C284.739 208.572 272.037 220.155 272.037 220.155C272.037 220.155 254.652 205.806 269.867 196.532C287.29 192.794 314.506 192.794 314.506 192.794L320.599 190.981Z" fill="white"/>
<path d="M219.003 188.372C230.051 193.564 234.71 191.7 240.965 184.912C247.22 178.124 247.753 175.329 246.955 175.329C246.156 175.329 234.749 176.521 228.106 177.936C221.462 179.35 219.003 188.372 219.003 188.372Z" fill="white"/>
<path d="M235.411 179.106C235.43 179.225 235.457 179.343 235.492 179.458L239.484 191.961C239.682 192.582 240.118 193.098 240.697 193.397C241.276 193.696 241.95 193.752 242.57 193.554C243.191 193.356 243.707 192.92 244.006 192.341C244.305 191.762 244.362 191.089 244.164 190.468L240.539 179.106H235.411Z" fill="white"/>
<path d="M237.421 185.502L239.482 191.961C239.68 192.582 240.117 193.098 240.696 193.397C241.274 193.696 241.948 193.752 242.569 193.554C243.189 193.356 243.706 192.92 244.005 192.341C244.304 191.762 244.36 191.089 244.162 190.468L240.537 179.106" stroke="#2E2E2E" stroke-width="0.814592" stroke-linecap="round" stroke-linejoin="round"/>
<path d="M251.554 191.709C252.045 191.709 252.525 191.562 252.932 191.287C253.339 191.012 253.654 190.621 253.836 190.165C254.018 189.709 254.06 189.208 253.955 188.728C253.85 188.249 253.604 187.811 253.248 187.473L243.128 177.839C242.824 177.549 242.45 177.342 242.043 177.238C241.635 177.133 241.208 177.136 240.802 177.244L233.618 179.158C232.995 179.332 232.465 179.744 232.144 180.306C231.823 180.867 231.737 181.533 231.904 182.158C232.07 182.783 232.477 183.317 233.035 183.644C233.593 183.971 234.257 184.065 234.884 183.906L240.737 182.346L249.861 191.031C250.317 191.467 250.923 191.71 251.554 191.709Z" fill="white"/>
<path d="M255.893 189.127C256.384 189.127 256.864 188.98 257.271 188.705C257.678 188.43 257.993 188.039 258.175 187.583C258.357 187.127 258.399 186.627 258.294 186.147C258.189 185.667 257.943 185.23 257.587 184.891L247.467 175.258C247.163 174.968 246.789 174.761 246.382 174.657C245.974 174.553 245.547 174.555 245.141 174.663L237.957 176.578C237.645 176.661 237.353 176.804 237.097 177C236.84 177.196 236.625 177.441 236.464 177.72C236.302 177.999 236.197 178.307 236.155 178.627C236.112 178.947 236.133 179.272 236.216 179.583C236.299 179.895 236.443 180.187 236.639 180.443C236.835 180.7 237.079 180.915 237.358 181.076C237.637 181.238 237.946 181.343 238.265 181.386C238.585 181.428 238.91 181.407 239.222 181.324L245.075 179.764L254.199 188.45C254.655 188.886 255.262 189.128 255.893 189.127Z" fill="white"/>
<path d="M247.86 189.127L240.727 181.878" stroke="#2E2E2E" stroke-width="0.814592" stroke-linecap="round" stroke-linejoin="round"/>
<path d="M253.247 187.474L245.424 179.226" stroke="#2E2E2E" stroke-width="0.814592" stroke-linecap="round" stroke-linejoin="round"/>
<path d="M275.496 193.333L322.646 192.867C324.39 192.867 326.011 191.898 326.949 190.429L352.067 151.059C352.237 150.793 352.332 150.486 352.342 150.17C352.353 149.854 352.278 149.542 352.127 149.265C351.975 148.988 351.751 148.757 351.48 148.596C351.208 148.435 350.898 148.35 350.582 148.35H302.018C300.885 148.35 299.774 148.665 298.809 149.258C297.844 149.852 297.062 150.701 296.55 151.712L275.496 193.333Z" fill="#2E2E2E"/>
<path d="M323.306 193.652L322.923 193.79C320.644 194.608 318.241 195.026 315.819 195.025H242.002C239.485 195.026 236.988 194.574 234.631 193.691V192.788H323.306V193.652Z" fill="#2E2E2E"/>
<path d="M194.106 156.473C195.634 169.675 183.196 191.18 183.196 191.18" stroke="#2E2E2E" stroke-width="0.814592" stroke-linecap="round" stroke-linejoin="round"/>
<path d="M206.378 75.0191C214.831 61.3681 237.752 65.0419 244.065 76.39C250.315 87.6257 239.945 101.389 226.493 99.0642C213.04 96.7394 206.378 75.0191 206.378 75.0191Z" fill="#2E2E2E"/>
<path d="M230.332 107.474L225.023 134.424C223.047 142.551 200.435 137.083 202.251 128.611L210.836 88.5559C210.836 88.5559 233.142 84.5742 230.332 107.474Z" fill="white"/>
<path d="M223.907 68.7133C190.547 70.2765 205.854 118.292 229.315 120.952C233.01 121.371 240.664 106.257 240.312 93.4998C239.955 80.5209 238.599 68.0242 223.907 68.7133Z" fill="white"/>
<path d="M220.748 117.867C223.411 119.515 226.296 120.609 229.315 120.951C233.01 121.37 240.663 106.256 240.312 93.4989C239.954 80.5241 238.601 68.0274 223.906 68.7165" stroke="#2E2E2E" stroke-width="0.814592" stroke-linecap="round" stroke-linejoin="round"/>
<path d="M228.305 96.6C226.643 95.1761 225.392 98.6519 227.339 99.3419C229.286 100.032 228.998 97.193 228.305 96.6Z" fill="#2E2E2E"/>
<path d="M238.003 97.7071C236.34 96.2824 235.09 99.7582 237.038 100.449C238.985 101.14 238.695 98.3001 238.003 97.7071Z" fill="#2E2E2E"/>
<path d="M240.061 92.2339C237.488 90.3953 233.373 92.5125 233.373 92.5125" stroke="#2E2E2E" stroke-width="0.814592" stroke-linecap="round" stroke-linejoin="round"/>
<path d="M228.08 91.7084C224.099 89.9163 220.127 90.6674 220.127 90.6674" stroke="#2E2E2E" stroke-width="0.814592" stroke-linecap="round" stroke-linejoin="round"/>
<path d="M231.489 94.7982C231.941 101.53 232.705 105.062 232.705 105.062C232.705 105.062 232.438 106.491 230.309 106.634" stroke="#2E2E2E" stroke-width="0.814592" stroke-linecap="round" stroke-linejoin="round"/>
<path d="M241.232 86.7492C223.42 85.0556 214.407 84.2419 214.407 84.2419C214.407 84.2419 211.22 86.4005 210.964 99.2523C208.872 100.201 208.056 102.158 207.252 105.383C202.655 102.532 201.924 94.0707 201.726 83.2391C201.528 72.4075 206.196 64.756 220.233 63.4787C234.269 62.2014 245.139 77.5858 241.232 86.7492Z" fill="#2E2E2E"/>
<path d="M213.043 99.3689C216.988 93.5576 207.076 85.8923 204.653 90.9517C202.229 96.0111 209.352 104.806 213.043 99.3689Z" fill="white"/>
<path d="M211.087 96.8127L207.469 92.7332" stroke="#2E2E2E" stroke-width="0.814592" stroke-linecap="round" stroke-linejoin="round"/>
<path d="M212.454 92.3894C210.21 89.4447 206.1 87.9328 204.65 90.9517C202.572 95.2837 207.501 102.356 211.279 100.884" stroke="#2E2E2E" stroke-width="0.814592" stroke-linecap="round" stroke-linejoin="round"/>
<path d="M224.734 109.847C229.257 112.937 231.848 111.843 231.848 111.843" stroke="#2E2E2E" stroke-width="0.814592" stroke-linecap="round" stroke-linejoin="round"/>
<path d="M220.124 82.7162C216.362 98.8801 218.323 160.12 226.055 169.276C211.629 174.663 203.463 162.596 203.463 162.596V138.695C203.463 138.695 201.385 128.926 194.07 129.75C194.07 129.75 200.554 108.355 201.243 91.7084C207.083 87.5695 213.366 80.0345 220.124 82.7162Z" fill="#2E2E2E"/>
<path d="M219.805 78.9234C214.836 128.851 223.785 164.22 227.527 168.333" stroke="#2E2E2E" stroke-width="0.814592" stroke-linecap="round" stroke-linejoin="round"/>
<path d="M199.42 92.1255C193.213 52.7392 246.014 52.4793 245.726 84.6549C245.726 84.6549 227.649 84.237 215.196 86.9569C202.742 89.6769 199.42 92.1255 199.42 92.1255Z" fill="white" stroke="#2E2E2E" stroke-width="0.814592" stroke-linecap="round" stroke-linejoin="round"/>
<path d="M202.636 92.0441C227.861 82.3749 255.375 86.0902 242.905 89.5188C242.905 89.5188 253.155 89.4871 254.142 85.8108C255.129 82.1346 222.149 83.4607 205.411 89.1164C193.699 93.0745 197.093 94.4007 201.353 93.4264C201.353 93.4264 201.483 92.9377 201.72 92.6656C202.061 92.264 202.636 92.0441 202.636 92.0441Z" fill="white" stroke="#2E2E2E" stroke-width="0.814592" stroke-linecap="round" stroke-linejoin="round"/>
<path d="M232.299 70.7066C224.784 55.6758 208.437 65.0696 208.437 65.0696" stroke="#2E2E2E" stroke-width="0.814592" stroke-linecap="round" stroke-linejoin="round"/>
<path d="M238.528 71.0463C235.698 64.6672 231.359 63.003 231.359 63.003" stroke="#2E2E2E" stroke-width="0.814592" stroke-linecap="round" stroke-linejoin="round"/>
<path d="M227.821 78.9234C201.362 81.9187 198.452 87.1931 198.452 87.1931" stroke="#2E2E2E" stroke-width="0.814592" stroke-linecap="round" stroke-linejoin="round"/>
<path d="M216.61 222.229H245.469" stroke="#2E2E2E" stroke-width="0.814592" stroke-linecap="round" stroke-linejoin="round"/>
<path d="M238.273 187.328C232.708 192.322 225.859 190.749 225.859 190.749L205.111 206.471" stroke="#2E2E2E" stroke-width="0.814592" stroke-linecap="round" stroke-linejoin="round"/>
<path d="M165.504 206.019C172.781 197.173 193.042 190.895 193.042 190.895" stroke="#2E2E2E" stroke-width="0.814592" stroke-linecap="round" stroke-linejoin="round"/>
<path d="M164.363 200.883C170.07 197.886 174.351 198.743 174.351 198.743" stroke="#2E2E2E" stroke-width="0.814592" stroke-linecap="round" stroke-linejoin="round"/>
<path d="M249.951 211.351C254.739 242.191 253.209 268.363 253.209 268.363L264.964 265.036" stroke="#2E2E2E" stroke-width="0.814592" stroke-linecap="round" stroke-linejoin="round"/>
<path d="M264.125 208.286C266.233 215.757 272.039 220.152 272.039 220.152L291.325 202.348" stroke="#2E2E2E" stroke-width="0.814592" stroke-linecap="round" stroke-linejoin="round"/>
<path d="M175.629 270.358H200.899C200.899 270.358 207.617 226.483 207.617 219.587" stroke="#2E2E2E" stroke-width="0.814592" stroke-linecap="round" stroke-linejoin="round"/>
<path d="M316.495 194.965L307.893 203.475L297.805 201.951" stroke="#2E2E2E" stroke-width="0.814592" stroke-linecap="round" stroke-linejoin="round"/>
<path d="M198.108 189.411C195.658 200.342 209.415 210.517 208.472 210.706C207.53 210.894 192.643 222.201 173.608 226.916" stroke="#2E2E2E" stroke-width="0.814592" stroke-linecap="round" stroke-linejoin="round"/>
<path d="M200.042 189.958C200.042 189.958 224.782 178.428 229.825 177.597C234.867 176.767 245.139 174.665 245.139 174.665" stroke="#2E2E2E" stroke-width="0.814592" stroke-linecap="round" stroke-linejoin="round"/>
<path d="M227.655 120.687L224.734 137.076" stroke="#2E2E2E" stroke-width="0.814592" stroke-linecap="round" stroke-linejoin="round"/>
<path d="M8.37671 322.223H353.673" stroke="#2E2E2E" stroke-width="0.814592" stroke-linecap="round" stroke-linejoin="round"/>
</g>
<defs>
<clipPath id="clip0_9_1244">
<rect width="353.16" height="322.63" fill="white" transform="translate(0.919922)"/>
</clipPath>
</defs>
</svg>
