<svg width="401" height="300" viewBox="0 0 401 300" fill="none" xmlns="http://www.w3.org/2000/svg">
<g clip-path="url(#clip0_9_1494)">
<path d="M401 263.513H0V263.714H401V263.513Z" fill="#EBEBEB"/>
<path d="M360.82 276.417H334.258V276.618H360.82V276.417Z" fill="#EBEBEB"/>
<path d="M265.639 278.599H258.669V278.799H265.639V278.599Z" fill="#EBEBEB"/>
<path d="M333.456 268.975H318.065V269.175H333.456V268.975Z" fill="#EBEBEB"/>
<path d="M76.7114 270.322H42.073V270.523H76.7114V270.322Z" fill="#EBEBEB"/>
<path d="M88.9338 270.322H83.8571V270.523H88.9338V270.322Z" fill="#EBEBEB"/>
<path d="M180.57 273.707H105.439V273.907H180.57V273.707Z" fill="#EBEBEB"/>
<path d="M190.09 227.736H35.2239C34.0094 227.736 32.8446 227.254 31.9858 226.395C31.1269 225.536 30.6445 224.371 30.6445 223.157V5.46971C30.6466 4.25657 31.13 3.09383 31.9886 2.23676C32.8472 1.37969 34.0108 0.898314 35.2239 0.898315H190.09C191.302 0.900436 192.463 1.38274 193.32 2.23959C194.177 3.09643 194.659 4.25795 194.661 5.46971V223.157C194.661 224.37 194.18 225.533 193.323 226.392C192.466 227.25 191.303 227.734 190.09 227.736ZM35.2239 1.09882C34.0639 1.09881 32.9513 1.55906 32.1304 2.37853C31.3094 3.19801 30.8471 4.30974 30.845 5.46971V223.157C30.8471 224.317 31.3091 225.43 32.1299 226.251C32.9506 227.071 34.0632 227.533 35.2239 227.536H190.09C191.25 227.533 192.362 227.071 193.181 226.25C194.001 225.429 194.461 224.317 194.461 223.157V5.46971C194.459 4.31113 193.998 3.20062 193.178 2.38137C192.359 1.56213 191.249 1.10094 190.09 1.09882H35.2239Z" fill="#EBEBEB"/>
<path d="M363.555 227.736H208.688C207.475 227.734 206.313 227.25 205.456 226.392C204.598 225.533 204.117 224.37 204.117 223.157V5.46971C204.119 4.25795 204.602 3.09643 205.458 2.23959C206.315 1.38274 207.477 0.900436 208.688 0.898315H363.555C364.768 0.898314 365.931 1.37969 366.79 2.23676C367.649 3.09383 368.132 4.25657 368.134 5.46971V223.157C368.134 224.371 367.652 225.536 366.793 226.395C365.934 227.254 364.769 227.736 363.555 227.736ZM208.688 1.09882C208.114 1.09882 207.546 1.21187 207.016 1.43153C206.485 1.65119 206.004 1.97315 205.598 2.37902C205.192 2.7849 204.87 3.26675 204.65 3.79705C204.431 4.32735 204.318 4.89572 204.318 5.46971V223.157C204.318 224.317 204.778 225.429 205.597 226.25C206.417 227.071 207.529 227.533 208.688 227.536H363.555C364.715 227.533 365.828 227.071 366.649 226.251C367.469 225.43 367.932 224.317 367.934 223.157V5.46971C367.932 4.30974 367.469 3.19801 366.648 2.37853C365.827 1.55906 364.715 1.09881 363.555 1.09882H208.688Z" fill="#EBEBEB"/>
<path d="M299.274 61.0965H287.91V96.4727H299.274V61.0965Z" fill="#E6E6E6"/>
<path d="M330.079 96.4727H292.369L286.675 55.0654H324.385L330.079 96.4727Z" fill="#F0F0F0"/>
<path d="M334.161 96.4727H295.216L289.522 55.0654H328.467L334.161 96.4727Z" fill="#F5F5F5"/>
<path d="M298.031 93.2085L293.235 58.3295H325.652L330.456 93.2085H298.031Z" fill="white"/>
<path d="M304.439 82.6301L302.635 69.5334C302.582 69.1886 302.606 68.8365 302.703 68.5016C302.8 68.1666 302.969 67.8568 303.198 67.5936C303.427 67.3304 303.71 67.1201 304.028 66.9773C304.347 66.8345 304.692 66.7626 305.041 66.7665H316.83C317.419 66.7618 317.989 66.973 318.432 67.3603C318.876 67.7475 319.162 68.2838 319.236 68.8678L321.033 81.9644C321.085 82.3093 321.062 82.6614 320.964 82.9963C320.867 83.3313 320.698 83.6411 320.47 83.9043C320.241 84.1675 319.957 84.3777 319.639 84.5206C319.321 84.6634 318.975 84.7353 318.627 84.7313H306.845C306.257 84.7361 305.687 84.5249 305.243 84.1376C304.8 83.7504 304.514 83.214 304.439 82.6301Z" fill="#F5F5F5"/>
<path d="M228.53 22.3358H58.6744V127.117H228.53V22.3358Z" fill="#E6E6E6"/>
<path d="M232.893 22.3358H60.7114V127.117H232.893V22.3358Z" fill="#F0F0F0"/>
<path d="M228.53 127.117H58.6744V135.225H228.53V127.117Z" fill="#E6E6E6"/>
<path d="M240.159 127.117H67.9776V135.225H240.159V127.117Z" fill="#F0F0F0"/>
<path d="M226.774 121.006V28.439L66.8147 28.439V121.006L226.774 121.006Z" fill="#FAFAFA"/>
<path d="M78.564 121.014L114.421 28.447H131.344L95.4862 121.014H78.564Z" fill="white"/>
<path d="M99.1272 121.014L134.985 28.447H141.577L105.72 121.014H99.1272Z" fill="white"/>
<path d="M161.86 121.014L197.717 28.447H204.31L168.46 121.014H161.86Z" fill="white"/>
<path d="M226.782 121.014V28.447H226.004V121.014H226.782Z" fill="#E6E6E6"/>
<path d="M357.291 96.4727H321.329V263.513H357.291V96.4727Z" fill="#E6E6E6"/>
<path d="M353.674 263.513H357.291V253.224H349.881L353.674 263.513Z" fill="#F0F0F0"/>
<path d="M294.278 96.4727H258.316V263.513H294.278V96.4727Z" fill="#E6E6E6"/>
<path d="M357.291 96.4727H291.118V257.202H357.291V96.4727Z" fill="#F0F0F0"/>
<path d="M294.735 263.513H291.118V253.224H298.528L294.735 263.513Z" fill="#F0F0F0"/>
<path d="M354.484 99.416H293.925V175.237H354.484V99.416Z" fill="#E6E6E6"/>
<path d="M330.769 105.311H317.648C314.829 105.31 312.04 104.736 309.45 103.622C306.86 102.507 304.525 100.877 302.587 98.8305H345.83C343.892 100.877 341.556 102.507 338.967 103.622C336.377 104.736 333.588 105.31 330.769 105.311Z" fill="#F0F0F0"/>
<path d="M354.484 178.309H293.925V254.13H354.484V178.309Z" fill="#E6E6E6"/>
<path d="M330.769 184.203H317.648C314.829 184.203 312.04 183.628 309.45 182.514C306.86 181.4 304.525 179.77 302.587 177.723H345.83C343.892 179.77 341.556 181.4 338.967 182.514C336.377 183.628 333.588 184.203 330.769 184.203Z" fill="#F0F0F0"/>
<path d="M103.859 149.22H163.704L172.382 184.556H112.529L103.859 149.22Z" fill="#E6E6E6"/>
<path d="M112.529 184.556L112.777 186.513H172.623L172.382 184.556H112.529Z" fill="#E6E6E6"/>
<path d="M105.704 149.22H165.549L174.226 184.556H114.373L105.704 149.22Z" fill="#F0F0F0"/>
<path d="M115.64 182.944L107.757 150.832H164.282L172.165 182.944H115.64Z" fill="white"/>
<path d="M129.972 184.556L130.213 186.513H196.113L195.873 184.556H129.972Z" fill="#F0F0F0"/>
<path d="M211.151 186.513H203.981V263.505H211.151V186.513Z" fill="#E6E6E6"/>
<path d="M213.42 186.513H208.44V263.505H213.42V186.513Z" fill="#F0F0F0"/>
<path d="M122.562 195.327H214.96V186.513H122.562V195.327Z" fill="#F0F0F0"/>
<path d="M119.354 195.327H112.184V263.505H119.354V195.327Z" fill="#E6E6E6"/>
<path d="M121.615 195.327H116.635V263.505H121.615V195.327Z" fill="#F0F0F0"/>
<path d="M73.9685 195.327H66.7986V263.505H73.9685V195.327Z" fill="#E6E6E6"/>
<path d="M76.2381 195.327H71.2577V263.505H76.2381V195.327Z" fill="#F0F0F0"/>
<path d="M165.773 195.327H158.604V263.505H165.773V195.327Z" fill="#E6E6E6"/>
<path d="M168.035 195.327H163.055V263.505H168.035V195.327Z" fill="#F0F0F0"/>
<path d="M122.562 186.513H66.7986V195.327H122.562V186.513Z" fill="#E6E6E6"/>
<path d="M234.457 263.505H232.716L227.728 238.932L226.854 234.625L221.416 207.846H200.564L189.264 263.505H187.54L199.056 206.82C199.094 206.633 199.194 206.464 199.339 206.34C199.485 206.216 199.668 206.145 199.858 206.138H222.106C222.297 206.145 222.48 206.216 222.625 206.34C222.771 206.464 222.87 206.633 222.908 206.82L227.68 230.343L228.562 234.641L234.457 263.505Z" fill="#F0F0F0"/>
<path d="M267.94 263.505H266.192L254.884 207.846H234.032L228.594 234.641L227.72 238.932L222.732 263.505H220.983L226.846 234.633L227.712 230.351L232.524 206.828C232.562 206.641 232.661 206.472 232.807 206.348C232.952 206.224 233.135 206.153 233.326 206.146H255.573C255.765 206.152 255.948 206.222 256.094 206.346C256.24 206.47 256.339 206.64 256.375 206.828L267.94 263.505Z" fill="#F0F0F0"/>
<path d="M216.532 206.988H254.852C262.174 206.988 266.224 202.016 268.293 193.827L269.312 189.144C269.654 187.726 269.67 186.249 269.359 184.824C269.047 183.399 268.415 182.063 267.511 180.919C266.607 179.774 265.455 178.849 264.141 178.215C262.827 177.581 261.387 177.254 259.928 177.258H235.868C230.896 177.258 229.581 178.445 226.148 185.944L216.532 206.988Z" fill="#F0F0F0"/>
<path d="M237.432 206.988H196.594C196.343 206.988 196.093 206.939 195.861 206.842C195.628 206.746 195.417 206.605 195.239 206.427C195.061 206.249 194.92 206.038 194.823 205.805C194.727 205.572 194.678 205.323 194.678 205.071V204.895C194.678 203.504 195.23 202.17 196.214 201.186C197.197 200.203 198.532 199.65 199.923 199.65H237.432V206.996V206.988Z" fill="#F0F0F0"/>
<path d="M200.5 299.731C286.38 299.731 356 295.667 356 290.653C356 285.639 286.38 281.574 200.5 281.574C114.62 281.574 45.0002 285.639 45.0002 290.653C45.0002 295.667 114.62 299.731 200.5 299.731Z" fill="#F5F5F5"/>
<path d="M162.83 264.997L157.697 268.301L148.394 257.482L153.527 254.178L162.83 264.997Z" fill="#FFBE9D"/>
<path opacity="0.2" d="M153.535 254.178L148.394 257.482L153.198 263.056L158.331 259.752L153.535 254.178Z" fill="black"/>
<path d="M123.604 282.641L117.702 283.218L111.566 269.183L117.469 268.606L123.604 282.641Z" fill="#FFBE9D"/>
<path opacity="0.2" d="M111.574 269.183L114.734 276.425H120.885L117.469 268.614L111.574 269.183Z" fill="black"/>
<path d="M78.7805 93.1685C75.8131 93.4411 75.7328 88.4046 70.5279 90.7625C63.9033 93.778 66.1329 98.4616 60.968 98.2611C55.8032 98.0606 52.3225 102.103 53.4774 105.118C54.6323 108.134 56.4207 110.965 52.7636 112.176C49.1065 113.387 46.6203 114.462 47.1496 117.485C47.6789 120.509 50.2694 121.736 45.9065 123.669C41.5436 125.601 41.9847 133.958 46.2594 133.966C50.534 133.974 46.4438 138.145 50.2694 142.371C54.0949 146.598 59.8934 147.223 62.3635 145.098C64.8337 142.973 67.5124 141.28 72.0758 144.488C76.6391 147.696 84.3864 148.498 84.0336 143.422C83.6807 138.345 79.2216 135.001 83.424 132.346C87.6265 129.692 93.048 128.392 91.3478 123.251C90.2651 120.003 86.9929 117.253 89.6395 114.847C93.9222 110.949 93.9463 102.127 88.6852 99.8892C85.6295 98.598 88.5809 92.2542 78.7805 93.1685Z" fill="#263238"/>
<path d="M73.0702 132.795C72.9173 135.077 72.6496 137.35 72.2682 139.604C71.8913 141.834 71.402 144.047 70.8246 146.253C70.2474 148.481 69.5186 150.668 68.6432 152.797C68.2101 153.872 67.7129 154.939 67.1835 156.005C66.9189 156.534 66.6302 157.056 66.3334 157.609C66.1971 157.866 66.0287 158.122 65.8763 158.411L65.6437 158.796C65.4856 159.045 65.3086 159.281 65.1144 159.502C64.6712 160.006 64.124 160.408 63.5104 160.681C62.9659 160.936 62.3782 161.086 61.7781 161.122C60.8971 161.177 60.014 161.057 59.1796 160.769C57.9341 160.345 56.7482 159.763 55.6508 159.037C53.7113 157.776 51.8792 156.357 50.1731 154.794C46.8761 151.795 43.8017 148.56 40.9742 145.114L43.2278 142.997C44.8318 144.408 46.4358 145.844 48.12 147.207C49.8042 148.571 51.4322 149.934 53.1325 151.217C54.7601 152.467 56.4755 153.598 58.2653 154.602C59.024 155.03 59.8319 155.363 60.6713 155.596C60.8744 155.654 61.0867 155.673 61.2969 155.652C61.2969 155.652 61.2969 155.652 61.1365 155.652C61.0293 155.698 60.9314 155.764 60.8478 155.845C60.8506 155.858 60.8506 155.872 60.8478 155.885C60.8478 155.885 60.8478 155.941 60.8478 155.885L61.0162 155.564C61.1365 155.34 61.2568 155.131 61.369 154.906C61.5936 154.465 61.8101 154.024 62.0106 153.559C62.4196 152.645 62.8126 151.714 63.1334 150.752C63.8071 148.827 64.3685 146.83 64.8657 144.809C65.363 142.788 65.7399 140.727 66.0768 138.658C66.4136 136.589 66.6783 134.447 66.8788 132.474L73.0702 132.795Z" fill="#FFBE9D"/>
<path d="M77.7298 133.549C77.409 135.49 75.797 139.163 74.5218 141.89C73.5755 143.863 72.8055 145.347 72.8055 145.347L71.6827 144.849L62.3876 140.711C63.0933 135.698 64.2402 130.245 69.766 127.823C73.2146 126.299 78.2993 130.084 77.7298 133.549Z" fill="#1E90FF"/>
<path opacity="0.6" d="M77.7298 133.549C77.409 135.49 75.797 139.163 74.5218 141.89C73.5755 143.863 72.8055 145.347 72.8055 145.347L71.6827 144.849L62.3876 140.711C63.0933 135.698 64.2402 130.245 69.766 127.823C73.2146 126.299 78.2993 130.084 77.7298 133.549Z" fill="black"/>
<path opacity="0.3" d="M74.4978 141.89C73.5514 143.863 72.7815 145.347 72.7815 145.347L71.6587 144.849C71.8111 142.868 72.2041 139.749 73.2627 138.345C73.9239 139.424 74.3451 140.633 74.4978 141.89Z" fill="black"/>
<path d="M43.6047 144.729L44.3506 139.324L38.2875 141.313C38.2875 141.313 39.2498 144.585 41.4072 145.916L43.6047 144.729Z" fill="#FFBE9D"/>
<path d="M41.5998 134.72L37.3732 137.038L38.2875 141.321L44.3426 139.332L41.5998 134.72Z" fill="#FFBE9D"/>
<path d="M155.805 266.681L161.419 262.671C161.514 262.601 161.632 262.568 161.75 262.579C161.868 262.589 161.978 262.642 162.06 262.727L165.854 266.681C165.946 266.784 166.015 266.905 166.058 267.036C166.1 267.167 166.114 267.306 166.099 267.443C166.083 267.58 166.04 267.712 165.97 267.831C165.9 267.95 165.806 268.053 165.693 268.133C163.728 269.496 162.71 270.05 160.256 271.814C158.748 272.889 155.572 275.503 153.495 276.995C151.418 278.487 149.822 276.514 150.559 275.704C153.84 272.079 154.714 269.608 155.235 267.571C155.319 267.219 155.52 266.905 155.805 266.681Z" fill="#263238"/>
<path d="M116.964 281.39H124.182C124.312 281.392 124.437 281.436 124.54 281.516C124.642 281.595 124.717 281.706 124.751 281.831L126.355 287.565C126.393 287.701 126.398 287.844 126.37 287.982C126.343 288.12 126.284 288.25 126.197 288.362C126.111 288.473 126 288.563 125.873 288.624C125.745 288.684 125.606 288.715 125.465 288.712C122.915 288.712 121.704 288.712 118.52 288.712H108.751C106.105 288.712 105.543 286.033 106.642 285.793C111.55 284.71 114.381 283.21 115.897 281.783C116.187 281.517 116.57 281.376 116.964 281.39Z" fill="#263238"/>
<path d="M105.904 155.283L82.2692 162.758C65.9084 130.373 68.2422 128.657 68.2422 128.657C68.2422 128.657 72.0197 126.5 75.9495 124.703C76.5429 124.43 77.1445 124.166 77.7379 123.901C81.2293 122.514 84.8153 121.377 88.4687 120.501C89.006 120.356 89.5433 120.228 90.0727 120.1C92.982 119.442 95.9279 118.957 98.8947 118.648C99.2475 123.131 99.6005 126.925 99.9854 130.221C100.483 134.52 101.02 137.96 101.589 140.936C102.642 145.826 104.085 150.624 105.904 155.283Z" fill="#1E90FF"/>
<path opacity="0.6" d="M105.904 155.283L82.2692 162.758C65.9084 130.373 68.2422 128.657 68.2422 128.657C68.2422 128.657 72.0197 126.5 75.9495 124.703C76.5429 124.43 77.1445 124.166 77.7379 123.901C81.2293 122.514 84.8153 121.377 88.4687 120.501C89.006 120.356 89.5433 120.228 90.0727 120.1C92.982 119.442 95.9279 118.957 98.8947 118.648C99.2475 123.131 99.6005 126.925 99.9854 130.221C100.483 134.52 101.02 137.96 101.589 140.936C102.642 145.826 104.085 150.624 105.904 155.283Z" fill="black"/>
<path opacity="0.3" d="M101.653 140.952C99.3838 137.744 97.2104 130.277 97.7718 127.478L100.017 130.237C100.515 134.536 101.052 137.968 101.653 140.952Z" fill="black"/>
<path d="M83.1113 134.704C83.1113 134.704 89.0701 133.421 90.9869 136.003C93.6175 133.421 92.6872 123.292 91.42 119.683C90.4134 119.865 89.4275 120.147 88.4766 120.525L84.2661 127.029L83.1113 134.704Z" fill="white"/>
<path d="M83.1113 134.704C83.1113 134.704 79.1013 135.61 78.6762 138.883C73.0622 134.704 73.4552 128.585 74.7224 124.976C75.6859 124.514 76.6971 124.159 77.7379 123.917L81.9484 128.553L83.1113 134.704Z" fill="white"/>
<path d="M84.4827 113.692C85.2847 116.635 86.5118 119.554 88.4927 120.525C88.4927 120.525 90.3453 125.826 83.1273 134.704C75.5725 129.323 77.762 123.917 77.762 123.917C81.3148 121.776 80.3123 118.953 78.7965 116.483L80.8737 113.106C81.0824 112.778 81.3829 112.517 81.7379 112.358C82.093 112.199 82.487 112.147 82.8712 112.209C83.2554 112.271 83.6129 112.445 83.8993 112.709C84.1858 112.972 84.3886 113.314 84.4827 113.692Z" fill="#FFBE9D"/>
<path opacity="0.2" d="M84.4907 113.684C84.397 113.304 84.1936 112.961 83.906 112.697C83.6184 112.432 83.2593 112.259 82.8735 112.197C82.4877 112.135 82.0923 112.189 81.7367 112.35C81.381 112.512 81.0809 112.775 80.8737 113.106L80.2 114.181C80.2562 114.895 80.2883 115.48 80.2802 115.785C80.2161 117.87 83.1434 117.774 85.5253 116.771C85.1015 115.77 84.7556 114.738 84.4907 113.684Z" fill="black"/>
<path d="M69.9745 105.624C72.0597 111.31 72.8216 113.764 76.6311 115.865C82.3654 119.033 88.9017 115.232 88.5569 109.032C88.2521 103.458 84.8998 95.0933 78.5399 94.4757C77.1384 94.3321 75.7235 94.5494 74.4296 95.1068C73.1357 95.6642 72.0059 96.5432 71.1476 97.6604C70.2892 98.7775 69.7308 100.096 69.5255 101.489C69.3202 102.883 69.4747 104.306 69.9745 105.624Z" fill="#FFBE9D"/>
<path d="M84.7233 97.0662C82.7664 95.1815 80.7134 92.992 76.7836 93.4171C72.4367 93.8903 70.7204 96.5208 70.7204 96.5208L66.9831 104.693C66.9831 104.693 69.3009 115.215 73.1264 110.307C75.3319 107.476 75.4201 103.193 74.562 99.9774C76.0649 99.7655 77.5463 99.422 78.9891 98.9509C80.7535 99.6085 82.7344 99.6165 84.2021 98.2611C84.5229 97.9644 84.7554 97.7318 84.9238 97.5554L85.0602 97.395C85.5173 96.8416 85.1564 96.9058 84.7233 97.0662ZM79.6707 98.7423C81.0385 98.2917 82.4309 97.9195 83.8411 97.6276C83.3184 98.1829 82.6515 98.5819 81.9151 98.7802C81.1787 98.9784 80.4016 98.9681 79.6707 98.7504V98.7423Z" fill="#263238"/>
<path d="M70.2713 111.406C70.8669 112.413 71.835 113.144 72.966 113.443C74.4737 113.82 75.1875 112.465 74.7304 111.037C74.3214 109.778 73.0542 108.062 71.5224 108.31C71.1953 108.371 70.8888 108.514 70.6313 108.724C70.3738 108.935 70.1735 109.207 70.0488 109.515C69.9241 109.824 69.8792 110.159 69.9181 110.489C69.9569 110.82 70.0784 111.135 70.2713 111.406Z" fill="#FFBE9D"/>
<path d="M82.2691 162.766C82.2691 162.766 81.4671 211.207 87.7949 228.706C93.8981 245.484 112.071 274.308 112.071 274.308L122.61 274.036C122.61 274.036 105.872 237.52 103.129 223.076C98.5738 199.121 99.5763 157.272 99.5763 157.272L82.2691 162.766Z" fill="#1E90FF"/>
<path opacity="0.3" d="M91.7328 166.904L94.5639 158.884L99.5764 157.28C99.5764 157.28 99.1192 176.312 100.218 196.049C95.6786 187.331 91.7328 171.291 91.7328 166.904Z" fill="black"/>
<path d="M110.588 274.87L123.604 274.541L122.85 270.539L108.639 271.212L110.588 274.87Z" fill="#263238"/>
<path d="M87.4581 161.226C87.4581 161.226 103.891 198.84 114.518 220.237C123.099 237.528 149.806 260.722 149.806 260.722L157.128 255.646C157.128 255.646 137.014 228.145 131.111 216.428C112.152 178.87 116.819 163.44 105.904 155.291L87.4581 161.226Z" fill="#1E90FF"/>
<path d="M150.207 263.128L158.804 257.009L156.855 253.256L147.408 260.401L150.207 263.128Z" fill="#263238"/>
<path d="M105.824 153.792L107.556 155.564C107.693 155.708 107.556 155.933 107.276 156.021L82.4777 163.865C82.2692 163.929 82.0607 163.865 82.0045 163.752L81.1223 161.707C81.0582 161.563 81.2025 161.379 81.4351 161.306L105.375 153.736C105.448 153.704 105.528 153.693 105.607 153.703C105.686 153.713 105.761 153.743 105.824 153.792Z" fill="#263238"/>
<path d="M103.458 157.481L104.092 157.28C104.22 157.24 104.3 157.144 104.268 157.064L103.097 154.409C103.057 154.329 102.929 154.305 102.8 154.345L102.159 154.546C102.03 154.586 101.958 154.682 101.99 154.762L103.161 157.417C103.193 157.489 103.33 157.521 103.458 157.481Z" fill="#1E90FF"/>
<path d="M84.3623 163.52L85.004 163.319C85.1323 163.279 85.2044 163.183 85.1724 163.103L84.0015 160.424C84.0015 160.352 83.841 160.32 83.7127 160.36L83.0711 160.561C82.9428 160.601 82.8626 160.697 82.8947 160.777L84.0656 163.432C84.0987 163.477 84.1456 163.51 84.1992 163.526C84.2527 163.542 84.31 163.54 84.3623 163.52Z" fill="#1E90FF"/>
<path d="M93.9062 160.504L94.5478 160.296C94.6761 160.296 94.7563 160.159 94.7162 160.087L93.5533 157.433C93.5189 157.389 93.4711 157.359 93.4173 157.346C93.3636 157.333 93.307 157.338 93.2566 157.361L92.615 157.569C92.4867 157.609 92.4064 157.705 92.4465 157.778L93.6175 160.432C93.6496 160.512 93.7779 160.544 93.9062 160.504Z" fill="#1E90FF"/>
<path d="M79.9513 104.372C80.0957 104.846 80.4566 105.174 80.7533 105.062C81.0501 104.95 81.1944 104.517 81.0581 104.044C80.9218 103.57 80.5528 103.242 80.2561 103.354C79.9594 103.466 79.815 103.907 79.9513 104.372Z" fill="#263238"/>
<path d="M85.2847 102.784C85.4291 103.258 85.79 103.586 86.0867 103.474C86.3834 103.362 86.5278 102.929 86.3915 102.456C86.2551 101.982 85.8862 101.654 85.5895 101.766C85.2927 101.878 85.1484 102.319 85.2847 102.784Z" fill="#263238"/>
<path d="M85.4611 101.83L86.5038 101.172C86.5038 101.172 86.1829 102.231 85.4611 101.83Z" fill="#263238"/>
<path d="M83.9614 104.012C84.7017 104.961 85.5678 105.806 86.5358 106.522C86.3438 106.765 86.1005 106.963 85.8233 107.102C85.546 107.24 85.2417 107.316 84.9318 107.324L83.9614 104.012Z" fill="#FFBE9D"/>
<path d="M83.3519 109.898C83.3671 109.876 83.3751 109.849 83.3751 109.822C83.3751 109.795 83.3671 109.768 83.3519 109.746C83.3474 109.727 83.339 109.71 83.3275 109.695C83.3159 109.68 83.3014 109.668 83.2848 109.659C83.2682 109.65 83.2499 109.644 83.2311 109.643C83.2123 109.641 83.1933 109.643 83.1754 109.65C82.5922 109.835 81.9738 109.881 81.3696 109.785C80.7653 109.689 80.1918 109.453 79.6948 109.096C79.6813 109.082 79.6651 109.071 79.6472 109.063C79.6293 109.056 79.61 109.052 79.5905 109.052C79.571 109.052 79.5517 109.056 79.5338 109.063C79.5159 109.071 79.4997 109.082 79.4863 109.096C79.462 109.124 79.4486 109.16 79.4486 109.196C79.4486 109.233 79.462 109.269 79.4863 109.297C80.0164 109.693 80.6346 109.956 81.2881 110.062C81.9417 110.168 82.6112 110.115 83.2396 109.906C83.2576 109.914 83.2772 109.917 83.2967 109.916C83.3163 109.915 83.3353 109.909 83.3519 109.898Z" fill="#263238"/>
<path d="M77.9384 103.081C77.9741 103.046 78.0038 103.005 78.0266 102.961C78.144 102.617 78.341 102.305 78.6017 102.051C78.8623 101.798 79.1791 101.609 79.5263 101.501C79.6007 101.484 79.6652 101.438 79.7057 101.373C79.7463 101.309 79.7597 101.231 79.7429 101.156C79.7257 101.082 79.6797 101.017 79.6151 100.977C79.5505 100.936 79.4724 100.923 79.398 100.94C78.9575 101.068 78.5538 101.299 78.2205 101.614C77.8871 101.93 77.6337 102.32 77.4812 102.752C77.4549 102.825 77.4577 102.905 77.4891 102.975C77.5205 103.045 77.5781 103.101 77.6496 103.129C77.6979 103.146 77.7497 103.151 77.8001 103.142C77.8506 103.134 77.8982 103.113 77.9384 103.081Z" fill="#263238"/>
<path d="M86.9128 99.7609C86.9128 99.7609 86.9128 99.7609 86.9128 99.7128C86.9198 99.6754 86.9192 99.637 86.9113 99.5998C86.9033 99.5626 86.8881 99.5274 86.8665 99.4961C86.8449 99.4648 86.8173 99.438 86.7853 99.4174C86.7534 99.3968 86.7176 99.3827 86.6802 99.376C86.2316 99.2773 85.7658 99.2877 85.322 99.4063C84.8782 99.525 84.4694 99.7483 84.1298 100.058C84.0774 100.113 84.0481 100.186 84.0481 100.262C84.0481 100.338 84.0774 100.412 84.1298 100.467C84.1561 100.495 84.1878 100.517 84.2229 100.532C84.2581 100.547 84.296 100.555 84.3344 100.555C84.3727 100.555 84.4106 100.547 84.4458 100.532C84.4809 100.517 84.5126 100.495 84.5389 100.467C84.8115 100.228 85.1364 100.056 85.4874 99.9657C85.8384 99.8752 86.2058 99.8682 86.5599 99.9454C86.5952 99.9566 86.6323 99.9607 86.6692 99.9574C86.706 99.9542 86.7419 99.9437 86.7747 99.9266C86.8075 99.9094 86.8366 99.886 86.8603 99.8575C86.884 99.8291 86.9018 99.7963 86.9128 99.7609Z" fill="#263238"/>
<path d="M102.528 124.334C103.482 125.048 104.284 125.714 105.126 126.443C105.968 127.173 106.73 127.887 107.532 128.633C109.136 130.141 110.604 131.713 112.031 133.373C113.474 135.035 114.813 136.784 116.041 138.61C116.354 139.059 116.635 139.54 116.94 140.005C117.244 140.47 117.525 140.944 117.798 141.441C118.07 141.938 118.335 142.387 118.6 142.933L119.025 143.823L119.37 144.721C120.103 147 120.447 149.386 120.388 151.779C120.34 154.003 120.101 156.219 119.674 158.403C119.248 160.528 118.712 162.629 118.07 164.699C117.423 166.753 116.669 168.771 115.809 170.746L112.954 169.671C113.451 167.738 113.924 165.717 114.277 163.728C114.667 161.75 114.956 159.753 115.143 157.745C115.333 155.8 115.376 153.843 115.271 151.891C115.215 150.965 115.102 150.044 114.935 149.132C114.76 148.287 114.516 147.458 114.205 146.654L113.964 146.1L113.683 145.595C113.467 145.226 113.178 144.793 112.93 144.384C112.681 143.975 112.392 143.582 112.128 143.173C111.863 142.764 111.574 142.371 111.269 141.986C110.099 140.382 108.783 138.923 107.46 137.439C106.137 135.955 104.701 134.56 103.233 133.196C102.512 132.507 101.766 131.841 101.02 131.183C100.274 130.526 99.4801 129.86 98.7823 129.307L102.528 124.334Z" fill="#FFBE9D"/>
<path d="M113.82 167.746L109.433 170.954L115.047 173.914C115.047 173.914 116.715 170.946 116.178 168.468L113.82 167.746Z" fill="#FFBE9D"/>
<path d="M108.037 176.159L112.633 177.587L115.079 173.946L109.425 170.979L108.037 176.159Z" fill="#FFBE9D"/>
<path d="M98.9267 118.664C101.998 118.528 108.037 126.074 108.037 126.074L101.774 134.945C101.774 134.945 94.7242 129.331 94.1788 125.425C93.7057 122.097 95.0209 118.848 98.9267 118.664Z" fill="#1E90FF"/>
<path opacity="0.6" d="M98.9267 118.664C101.998 118.528 108.037 126.074 108.037 126.074L101.774 134.945C101.774 134.945 94.7242 129.331 94.1788 125.425C93.7057 122.097 95.0209 118.848 98.9267 118.664Z" fill="black"/>
<path d="M153.695 269.191H153.599C153.458 269.174 153.325 269.119 153.212 269.033C153.1 268.947 153.012 268.833 152.957 268.702C152.913 268.627 152.89 268.541 152.89 268.454C152.89 268.366 152.913 268.28 152.957 268.205C153.342 267.531 155.548 267.403 155.796 267.403C155.824 267.404 155.851 267.412 155.874 267.427C155.898 267.442 155.917 267.462 155.929 267.487C155.941 267.512 155.947 267.539 155.945 267.567C155.942 267.595 155.933 267.621 155.917 267.644C155.404 268.229 154.457 269.191 153.695 269.191ZM155.46 267.716C154.577 267.788 153.407 267.988 153.206 268.341C153.186 268.375 153.176 268.414 153.176 268.454C153.176 268.493 153.186 268.532 153.206 268.566C153.242 268.652 153.299 268.727 153.372 268.784C153.445 268.842 153.531 268.88 153.623 268.895C154.048 268.943 154.722 268.51 155.46 267.716Z" fill="#1E90FF"/>
<path d="M155.66 267.7C154.914 267.7 153.463 267.299 153.198 266.705C153.15 266.599 153.139 266.48 153.168 266.368C153.198 266.255 153.265 266.156 153.358 266.088C153.44 266.013 153.536 265.957 153.642 265.924C153.747 265.89 153.859 265.881 153.968 265.895C154.85 265.983 155.877 267.403 155.925 267.499C155.937 267.521 155.943 267.546 155.943 267.571C155.943 267.597 155.937 267.621 155.925 267.644C155.917 267.667 155.901 267.687 155.881 267.701C155.861 267.716 155.837 267.723 155.813 267.724L155.66 267.7ZM153.872 266.176C153.752 266.175 153.637 266.221 153.551 266.304C153.415 266.432 153.431 266.521 153.455 266.585C153.631 266.97 154.77 267.387 155.516 267.387C155.147 266.93 154.465 266.208 153.912 266.152L153.872 266.176Z" fill="#1E90FF"/>
<path d="M113.756 282.585C113.259 282.622 112.763 282.504 112.336 282.248C112.226 282.167 112.135 282.063 112.071 281.942C112.007 281.821 111.972 281.687 111.967 281.55C111.961 281.474 111.975 281.398 112.008 281.329C112.04 281.261 112.09 281.201 112.152 281.157C112.809 280.716 115.271 281.839 115.761 282.064C115.787 282.077 115.81 282.098 115.825 282.123C115.841 282.149 115.849 282.178 115.849 282.208C115.845 282.238 115.832 282.266 115.812 282.289C115.792 282.312 115.766 282.328 115.737 282.336C115.087 282.489 114.423 282.572 113.756 282.585ZM112.601 281.342C112.501 281.334 112.402 281.354 112.312 281.398C112.293 281.415 112.278 281.436 112.268 281.46C112.259 281.483 112.254 281.509 112.256 281.534C112.258 281.629 112.283 281.722 112.327 281.805C112.372 281.889 112.435 281.961 112.513 282.015C112.938 282.344 113.94 282.384 115.231 282.144C114.388 281.74 113.487 281.469 112.561 281.342H112.601Z" fill="#1E90FF"/>
<path d="M115.664 282.328H115.608C114.806 281.991 113.138 280.676 113.202 279.994C113.202 279.842 113.323 279.649 113.699 279.609C115.135 279.441 115.745 282.055 115.769 282.16C115.776 282.186 115.775 282.214 115.767 282.239C115.758 282.265 115.742 282.288 115.721 282.304C115.704 282.317 115.685 282.325 115.664 282.328ZM113.86 279.922H113.756C113.603 279.922 113.523 279.986 113.515 280.05C113.459 280.451 114.598 281.494 115.432 281.951C115.247 281.294 114.726 279.922 113.86 279.922Z" fill="#1E90FF"/>
<path d="M80.1279 103.418L81.1624 102.76C81.1624 102.76 80.8737 103.819 80.1279 103.418Z" fill="#263238"/>
<path d="M231.481 44.7757H114.927C113.682 44.7672 112.448 45.0139 111.302 45.5005C110.157 45.9872 109.123 46.7036 108.264 47.6055C107.406 48.5073 106.742 49.5755 106.312 50.744C105.883 51.9126 105.698 53.1568 105.768 54.3997L116.691 281.021C116.847 283.603 117.974 286.03 119.845 287.815C121.717 289.6 124.194 290.611 126.78 290.645H243.335C244.58 290.653 245.813 290.407 246.959 289.92C248.105 289.433 249.139 288.717 249.997 287.815C250.856 286.913 251.52 285.845 251.949 284.677C252.379 283.508 252.564 282.264 252.494 281.021L241.571 54.3997C241.415 51.8181 240.288 49.3909 238.417 47.6057C236.545 45.8205 234.068 44.8095 231.481 44.7757Z" fill="black"/>
<path d="M235.756 44.7758H119.201C117.956 44.7672 116.723 45.0139 115.577 45.5006C114.431 45.9873 113.397 46.7036 112.539 47.6055C111.681 48.5073 111.016 49.5755 110.587 50.744C110.158 51.9126 109.972 53.1568 110.042 54.3998L120.974 281.021C121.129 283.603 122.256 286.03 124.128 287.815C125.999 289.6 128.477 290.611 131.063 290.645H247.61C248.855 290.653 250.089 290.407 251.235 289.92C252.381 289.434 253.416 288.717 254.274 287.816C255.133 286.914 255.798 285.846 256.229 284.677C256.659 283.509 256.845 282.264 256.776 281.021L245.845 54.3998C245.689 51.8181 244.563 49.3909 242.691 47.6057C240.82 45.8206 238.342 44.8095 235.756 44.7758Z" fill="#263238"/>
<path d="M130.75 284.229C129.89 284.209 129.068 283.869 128.446 283.276C127.823 282.683 127.443 281.879 127.382 281.021L116.458 54.3997C116.44 53.9864 116.505 53.5735 116.651 53.1861C116.796 52.7986 117.018 52.4444 117.303 52.1448C117.588 51.8452 117.931 51.6064 118.311 51.4426C118.691 51.2788 119.1 51.1935 119.514 51.1917H236.069C236.928 51.2098 237.75 51.5491 238.372 52.1429C238.994 52.7367 239.371 53.5418 239.429 54.3997L250.36 281.021C250.379 281.434 250.313 281.847 250.168 282.235C250.023 282.622 249.801 282.976 249.516 283.276C249.231 283.575 248.888 283.814 248.508 283.978C248.128 284.142 247.719 284.227 247.305 284.229H130.75Z" fill="#1E90FF"/>
<path opacity="0.1" d="M130.67 282.625C130.241 282.612 129.831 282.442 129.52 282.146C129.21 281.849 129.019 281.449 128.986 281.021L118.062 54.3997C118.055 54.1938 118.089 53.9884 118.162 53.7957C118.234 53.603 118.345 53.4267 118.487 53.2773C118.629 53.1279 118.799 53.0084 118.988 52.9257C119.177 52.843 119.38 52.7988 119.586 52.7957H236.149C236.577 52.8102 236.984 52.9818 237.293 53.2777C237.602 53.5736 237.792 53.9731 237.825 54.3997L248.756 281.021C248.763 281.227 248.728 281.433 248.654 281.626C248.58 281.818 248.469 281.994 248.326 282.144C248.184 282.293 248.013 282.412 247.824 282.495C247.635 282.578 247.431 282.622 247.225 282.625H130.67Z" fill="black"/>
<g opacity="0.3">
<path d="M165.886 269.568H142.724C142.091 269.561 141.485 269.315 141.027 268.879C140.568 268.443 140.292 267.85 140.254 267.218L138.57 232.155C138.549 231.844 138.592 231.533 138.697 231.24C138.803 230.947 138.967 230.679 139.181 230.453C139.395 230.227 139.654 230.048 139.941 229.927C140.227 229.805 140.536 229.745 140.847 229.749H163.969C164.601 229.756 165.206 230.003 165.663 230.439C166.12 230.875 166.395 231.468 166.431 232.099L168.123 267.162C168.144 267.473 168.101 267.784 167.996 268.077C167.89 268.37 167.725 268.638 167.511 268.864C167.297 269.09 167.039 269.27 166.752 269.391C166.466 269.512 166.157 269.572 165.846 269.568H165.886ZM140.887 230.567C140.687 230.564 140.488 230.603 140.303 230.681C140.118 230.759 139.951 230.874 139.812 231.019C139.674 231.165 139.567 231.337 139.498 231.525C139.429 231.714 139.4 231.915 139.412 232.115L141.096 267.178C141.118 267.608 141.303 268.012 141.613 268.31C141.923 268.608 142.334 268.777 142.764 268.782H165.886C166.086 268.785 166.286 268.746 166.471 268.668C166.655 268.59 166.822 268.475 166.961 268.33C167.099 268.185 167.206 268.013 167.275 267.824C167.344 267.636 167.374 267.435 167.361 267.235L165.677 232.171C165.655 231.742 165.47 231.337 165.16 231.039C164.85 230.741 164.439 230.573 164.009 230.567H140.887Z" fill="#FAFAFA"/>
<path d="M163.672 238.739H141.93C141.824 238.739 141.722 238.697 141.646 238.622C141.571 238.547 141.529 238.445 141.529 238.338C141.529 238.232 141.571 238.13 141.646 238.055C141.722 237.98 141.824 237.937 141.93 237.937H163.672C163.778 237.939 163.879 237.982 163.953 238.057C164.028 238.132 164.071 238.233 164.073 238.338C164.073 238.445 164.031 238.547 163.956 238.622C163.881 238.697 163.779 238.739 163.672 238.739Z" fill="#FAFAFA"/>
<path d="M163.889 243.271H142.147C142.04 243.271 141.938 243.228 141.863 243.153C141.788 243.078 141.746 242.976 141.746 242.87C141.748 242.764 141.79 242.663 141.865 242.588C141.94 242.514 142.041 242.471 142.147 242.469H163.889C163.994 242.471 164.095 242.514 164.17 242.588C164.245 242.663 164.288 242.764 164.29 242.87C164.29 242.976 164.247 243.078 164.172 243.153C164.097 243.228 163.995 243.271 163.889 243.271Z" fill="#FAFAFA"/>
<path d="M164.105 247.842H142.371C142.265 247.842 142.163 247.8 142.088 247.725C142.012 247.649 141.97 247.547 141.97 247.441C141.97 247.335 142.012 247.233 142.088 247.158C142.163 247.082 142.265 247.04 142.371 247.04H164.105C164.212 247.04 164.314 247.082 164.389 247.158C164.464 247.233 164.506 247.335 164.506 247.441C164.506 247.547 164.464 247.649 164.389 247.725C164.314 247.8 164.212 247.842 164.105 247.842Z" fill="#FAFAFA"/>
<path d="M164.322 252.333H142.628C142.521 252.333 142.419 252.291 142.344 252.216C142.269 252.141 142.227 252.039 142.227 251.932C142.227 251.826 142.269 251.724 142.344 251.649C142.419 251.574 142.521 251.531 142.628 251.531H164.362C164.468 251.531 164.57 251.574 164.645 251.649C164.721 251.724 164.763 251.826 164.763 251.932C164.763 252.039 164.721 252.141 164.645 252.216C164.57 252.291 164.468 252.333 164.362 252.333H164.322Z" fill="#FAFAFA"/>
<path d="M164.546 256.865H142.804C142.698 256.865 142.596 256.822 142.521 256.747C142.445 256.672 142.403 256.57 142.403 256.464C142.403 256.357 142.445 256.255 142.521 256.18C142.596 256.105 142.698 256.063 142.804 256.063H164.546C164.653 256.063 164.755 256.105 164.83 256.18C164.905 256.255 164.947 256.357 164.947 256.464C164.947 256.57 164.905 256.672 164.83 256.747C164.755 256.822 164.653 256.865 164.546 256.865Z" fill="#FAFAFA"/>
<path d="M160.272 261.396H143.021C142.914 261.396 142.812 261.354 142.737 261.278C142.662 261.203 142.62 261.101 142.62 260.995C142.62 260.889 142.662 260.787 142.737 260.711C142.812 260.636 142.914 260.594 143.021 260.594H160.272C160.378 260.594 160.48 260.636 160.555 260.711C160.631 260.787 160.673 260.889 160.673 260.995C160.673 261.101 160.631 261.203 160.555 261.278C160.48 261.354 160.378 261.396 160.272 261.396Z" fill="#FAFAFA"/>
</g>
<g opacity="0.3">
<path d="M180.402 140.984L164.546 143.518C163.938 142.007 163.129 140.586 162.14 139.291C161.189 138.298 160.067 137.483 158.828 136.885L159.422 149.308C168.244 151.624 174.176 154.072 177.218 156.655C179.162 158.275 180.739 160.29 181.845 162.566C182.951 164.842 183.561 167.326 183.634 169.856C183.818 172.817 183.244 175.776 181.966 178.453C180.779 180.961 179.07 183.187 176.953 184.981C174.982 186.668 172.706 187.961 170.249 188.791C167.369 189.655 164.385 190.125 161.378 190.186L161.483 192.368C161.507 192.773 161.448 193.179 161.308 193.56C161.169 193.942 160.953 194.29 160.673 194.584C160.393 194.878 160.055 195.112 159.682 195.27C159.308 195.428 158.905 195.508 158.499 195.504C157.656 195.495 156.847 195.166 156.237 194.584C155.626 194.002 155.26 193.21 155.211 192.368L155.107 190.186C151.587 189.954 148.112 189.267 144.769 188.141C142.207 187.219 139.838 185.83 137.784 184.043C135.919 182.449 134.338 180.551 133.108 178.429C131.873 176.128 130.974 173.662 130.437 171.107L147.688 169.086C148.346 171.917 149.132 173.97 150.094 175.229C151.291 176.692 152.827 177.841 154.57 178.573L153.856 163.392C147.974 161.788 143.807 160.397 141.353 159.221C138.721 157.92 136.462 155.975 134.784 153.567C132.82 150.793 131.734 147.494 131.664 144.095C131.478 141.748 131.805 139.387 132.622 137.178C133.439 134.97 134.727 132.965 136.396 131.304C139.797 127.882 145.01 125.984 152.035 125.609L151.979 124.495C151.955 124.089 152.014 123.683 152.154 123.302C152.293 122.921 152.509 122.572 152.789 122.278C153.069 121.984 153.406 121.751 153.78 121.592C154.154 121.434 154.557 121.355 154.962 121.359C155.806 121.366 156.616 121.694 157.227 122.276C157.838 122.859 158.204 123.652 158.251 124.495L158.307 125.609C164.723 126.01 169.698 127.529 173.232 130.165C176.79 132.844 179.321 136.663 180.402 140.984ZM152.581 136.693C151.148 137.063 149.854 137.843 148.859 138.939C148.182 139.844 147.855 140.963 147.937 142.09C147.979 143.297 148.419 144.456 149.188 145.387C150.259 146.51 151.614 147.322 153.11 147.737L152.581 136.693ZM160.889 178.999C163.295 178.464 165.033 177.566 166.102 176.304C167.14 175.157 167.679 173.646 167.602 172.101C167.517 170.712 166.95 169.396 165.998 168.38C164.987 167.241 163.071 166.191 160.24 165.212L160.889 178.999Z" fill="#FAFAFA"/>
</g>
<path opacity="0.2" d="M222.314 74.3615H142.916L150.648 234.85C151.024 241.425 153.883 247.612 158.648 252.16C163.412 256.707 169.726 259.274 176.312 259.343H255.71L247.978 98.8546C247.603 92.2792 244.743 86.092 239.979 81.5448C235.214 76.9977 228.9 74.4301 222.314 74.3615Z" fill="black"/>
<path d="M241.763 74.3615H142.949C149.534 74.4301 155.848 76.9977 160.613 81.5448C165.377 86.092 168.237 92.2792 168.613 98.8546L174.908 229.492C175.284 236.068 178.143 242.255 182.908 246.802C187.673 251.349 193.986 253.917 200.572 253.985H250.4C253.572 254.017 256.716 253.397 259.637 252.162C262.559 250.927 265.195 249.104 267.381 246.806C269.568 244.509 271.259 241.787 272.348 238.808C273.438 235.829 273.903 232.658 273.715 229.492L267.419 98.8546C267.043 92.2805 264.185 86.0945 259.422 81.5475C254.659 77.0006 248.347 74.4321 241.763 74.3615Z" fill="#FAFAFA"/>
<path d="M223.91 229.492C224.097 232.658 223.632 235.829 222.542 238.807C221.452 241.785 219.761 244.507 217.574 246.804C215.388 249.101 212.752 250.924 209.832 252.159C206.911 253.395 203.767 254.016 200.596 253.986H299.411C302.582 254.018 305.726 253.397 308.648 252.162C311.569 250.927 314.205 249.104 316.392 246.806C318.578 244.509 320.269 241.787 321.359 238.808C322.448 235.829 322.913 232.658 322.725 229.492H223.91Z" fill="#E6E6E6"/>
<path d="M255.71 155.452H185.839C185.35 155.446 184.881 155.256 184.526 154.918C184.172 154.58 183.959 154.12 183.931 153.631C183.918 153.396 183.953 153.161 184.034 152.94C184.115 152.719 184.241 152.517 184.403 152.346C184.565 152.176 184.761 152.04 184.978 151.948C185.194 151.856 185.428 151.809 185.663 151.811H255.501C255.991 151.816 256.46 152.007 256.814 152.345C257.169 152.683 257.382 153.142 257.41 153.631C257.423 153.864 257.389 154.096 257.31 154.315C257.23 154.534 257.107 154.734 256.949 154.904C256.79 155.075 256.598 155.211 256.385 155.305C256.172 155.399 255.942 155.449 255.71 155.452Z" fill="#1E90FF"/>
<path d="M256.231 166.84H186.385C185.895 166.835 185.426 166.644 185.072 166.306C184.717 165.968 184.504 165.508 184.476 165.02C184.463 164.785 184.498 164.549 184.579 164.328C184.661 164.107 184.786 163.905 184.949 163.735C185.111 163.564 185.306 163.429 185.523 163.337C185.74 163.244 185.973 163.198 186.208 163.199H256.055C256.544 163.204 257.013 163.395 257.368 163.733C257.722 164.071 257.935 164.531 257.963 165.02C257.977 165.255 257.941 165.49 257.86 165.711C257.779 165.932 257.653 166.134 257.491 166.305C257.329 166.475 257.133 166.611 256.916 166.703C256.7 166.795 256.466 166.842 256.231 166.84Z" fill="#1E90FF"/>
<path d="M256.776 178.188H186.93C186.442 178.179 185.975 177.987 185.621 177.65C185.268 177.313 185.054 176.855 185.021 176.368C185.008 176.133 185.043 175.898 185.125 175.677C185.206 175.456 185.332 175.254 185.494 175.083C185.656 174.912 185.852 174.777 186.068 174.685C186.285 174.593 186.518 174.546 186.754 174.547H256.6C257.09 174.553 257.559 174.743 257.913 175.081C258.268 175.419 258.48 175.879 258.509 176.368C258.522 176.603 258.487 176.838 258.405 177.059C258.324 177.28 258.199 177.482 258.036 177.653C257.874 177.823 257.678 177.959 257.462 178.051C257.245 178.143 257.012 178.19 256.776 178.188Z" fill="#1E90FF"/>
<path d="M257.314 189.553H187.484C186.994 189.548 186.525 189.357 186.17 189.019C185.816 188.681 185.603 188.221 185.575 187.732C185.562 187.497 185.597 187.262 185.678 187.041C185.759 186.82 185.885 186.618 186.047 186.447C186.21 186.277 186.405 186.141 186.622 186.049C186.838 185.957 187.072 185.91 187.307 185.912H257.145C257.635 185.917 258.104 186.108 258.458 186.446C258.813 186.784 259.026 187.243 259.054 187.732C259.067 187.968 259.032 188.204 258.95 188.426C258.868 188.647 258.742 188.849 258.579 189.02C258.416 189.191 258.219 189.326 258.002 189.418C257.784 189.509 257.55 189.555 257.314 189.553Z" fill="#1E90FF"/>
<path d="M230.102 200.917H188.029C187.539 200.912 187.07 200.721 186.716 200.383C186.361 200.045 186.149 199.585 186.12 199.097C186.107 198.862 186.142 198.626 186.223 198.405C186.305 198.184 186.43 197.982 186.593 197.812C186.755 197.641 186.95 197.506 187.167 197.414C187.384 197.321 187.617 197.275 187.852 197.276H229.933C230.422 197.283 230.889 197.475 231.242 197.813C231.594 198.151 231.806 198.609 231.834 199.097C231.847 199.332 231.812 199.567 231.731 199.788C231.65 200.009 231.524 200.211 231.362 200.382C231.199 200.552 231.004 200.688 230.787 200.78C230.57 200.872 230.337 200.919 230.102 200.917Z" fill="#1E90FF"/>
<path d="M234.956 131.902C243.22 123.437 242.718 109.543 233.834 100.871C224.95 92.198 211.048 92.0303 202.784 100.496C194.52 108.962 195.022 122.855 203.906 131.528C212.79 140.2 226.692 140.368 234.956 131.902Z" fill="#1E90FF"/>
<path d="M236.975 116.186C237.132 119.164 236.521 122.133 235.203 124.807C233.778 127.682 231.571 130.098 228.836 131.776C226.101 133.454 222.949 134.327 219.74 134.295C216.422 134.269 213.168 133.381 210.297 131.718C207.425 130.054 205.036 127.673 203.363 124.807C201.8 122.191 200.905 119.23 200.757 116.186C200.617 113.843 200.961 111.496 201.767 109.292C202.574 107.088 203.826 105.074 205.445 103.375C207.064 101.676 209.016 100.329 211.179 99.4173C213.342 98.5058 215.669 98.0494 218.016 98.0767C222.883 98.1299 227.548 100.029 231.068 103.391C234.587 106.753 236.699 111.326 236.975 116.186Z" fill="white"/>
<path opacity="0.4" d="M235.203 124.807C233.778 127.682 231.571 130.098 228.836 131.776C226.101 133.454 222.949 134.327 219.74 134.295C216.422 134.269 213.168 133.381 210.296 131.718C207.425 130.054 205.036 127.673 203.363 124.807C207.978 121.64 213.453 119.96 219.05 119.995C224.786 120.004 230.397 121.676 235.203 124.807Z" fill="#1E90FF"/>
<path opacity="0.4" d="M224.46 115.726C227.499 112.614 227.315 107.507 224.051 104.32C220.786 101.133 215.677 101.073 212.638 104.185C209.6 107.298 209.783 112.404 213.048 115.591C216.312 118.778 221.422 118.839 224.46 115.726Z" fill="#1E90FF"/>
<path d="M286.122 284.63H280.235L279.641 270.988H285.536L286.122 284.63Z" fill="#FFBE9D"/>
<path opacity="0.2" d="M279.649 270.996L279.946 278.029H285.841L285.536 270.996H279.649Z" fill="black"/>
<path d="M336.271 268.646L330.673 270.475L323.623 258.413L329.229 256.592L336.271 268.646Z" fill="#FFBE9D"/>
<path opacity="0.2" d="M329.229 256.592L323.623 258.421L327.264 264.636L332.862 262.808L329.229 256.592Z" fill="black"/>
<path d="M306.043 87.4822C306.773 88.3724 307.391 89.1744 308.024 90.0406C308.658 90.9068 309.259 91.7489 309.861 92.615C311.048 94.3554 312.186 96.1358 313.253 97.9724C315.472 101.7 317.284 105.655 318.659 109.77L318.787 110.171L318.851 110.379L318.939 110.708L319.1 111.366L319.188 111.967C319.283 112.688 319.312 113.415 319.276 114.141C319.201 115.367 319.024 116.585 318.747 117.782C318.238 119.918 317.565 122.012 316.734 124.045C315.147 127.932 313.228 131.675 310.999 135.233L306.989 133.317C308.192 129.563 309.396 125.706 310.27 121.96C310.734 120.156 311.082 118.323 311.312 116.475C311.411 115.677 311.441 114.872 311.4 114.069C311.388 113.782 311.351 113.498 311.288 113.218V113.074C311.286 113.05 311.286 113.026 311.288 113.002V112.962L311.232 112.809L311.096 112.497L310.558 111.245L309.957 109.986C309.564 109.184 309.155 108.318 308.674 107.492C307.768 105.832 306.773 104.188 305.746 102.56C304.72 100.932 303.629 99.3518 302.538 97.7478C301.448 96.1438 300.253 94.5398 299.17 93.0962L306.043 87.4822Z" fill="#FFBE9D"/>
<path d="M307.35 132.354L305.049 137.447H311.633C311.633 137.447 312.684 133.581 310.294 132.017L307.35 132.354Z" fill="#FFBE9D"/>
<path d="M305.819 143.189L311.93 142.002L311.633 137.463H305.049L305.819 143.189Z" fill="#FFBE9D"/>
<path d="M276.874 61.6418C276.874 62.115 276.618 62.4999 276.305 62.4999C275.992 62.4999 275.744 62.115 275.744 61.6418C275.744 61.1686 276 60.7756 276.305 60.7756C276.61 60.7756 276.874 61.1606 276.874 61.6418Z" fill="#263238"/>
<path d="M276.666 62.5C276.098 63.9525 275.335 65.3205 274.396 66.5661C274.72 66.7987 275.092 66.9573 275.484 67.0308C275.876 67.1042 276.28 67.0907 276.666 66.9912V62.5Z" fill="#FFBE9D"/>
<path d="M278.559 59.0031C278.499 59.0035 278.441 58.9868 278.39 58.955C278.112 58.7429 277.788 58.599 277.444 58.535C277.1 58.4709 276.745 58.4884 276.409 58.5861C276.342 58.6044 276.271 58.5971 276.209 58.5657C276.147 58.5343 276.099 58.4809 276.074 58.416C276.049 58.3511 276.049 58.2793 276.074 58.2144C276.099 58.1495 276.147 58.0962 276.209 58.0648C276.632 57.9333 277.08 57.9039 277.516 57.9792C277.952 58.0545 278.365 58.2323 278.719 58.4979C278.749 58.5194 278.775 58.5467 278.794 58.5781C278.814 58.6095 278.827 58.6445 278.833 58.681C278.839 58.7176 278.838 58.7549 278.829 58.7909C278.82 58.8269 278.805 58.8609 278.783 58.8909C278.756 58.9249 278.722 58.9525 278.683 58.9719C278.645 58.9913 278.602 59.002 278.559 59.0031Z" fill="#263238"/>
<path d="M292.209 67.1195C291.407 71.4262 290.517 79.3259 293.54 82.2051C293.54 82.2051 292.361 86.576 284.349 86.576C275.527 86.576 280.139 82.2051 280.139 82.2051C284.951 81.0502 284.822 77.4894 283.988 74.137L292.209 67.1195Z" fill="#FFBE9D"/>
<path d="M294.687 83.7048C295.32 82.3173 296.018 80.7374 294.575 80.2401C292.971 79.6948 284.341 79.1334 281.358 80.1599C280.963 80.2681 280.595 80.4536 280.273 80.7056C279.951 80.9577 279.683 81.2712 279.484 81.628C279.284 81.9849 279.158 82.3778 279.112 82.7839C279.066 83.19 279.102 83.6012 279.216 83.9935L294.687 83.7048Z" fill="#263238"/>
<path d="M329.494 271.902C329.061 272.319 328.571 272.656 328.202 272.6C328.086 272.576 327.98 272.518 327.898 272.432C327.816 272.345 327.763 272.236 327.745 272.119C327.721 272.028 327.718 271.932 327.734 271.839C327.751 271.747 327.787 271.659 327.842 271.581C328.323 270.836 330.248 270.523 330.352 270.507C330.378 270.502 330.406 270.505 330.43 270.517C330.455 270.528 330.475 270.547 330.488 270.571C330.503 270.593 330.511 270.62 330.511 270.647C330.511 270.674 330.503 270.701 330.488 270.723C330.199 271.15 329.865 271.545 329.494 271.902ZM328.186 271.597C328.144 271.639 328.106 271.684 328.074 271.734C328.042 271.778 328.02 271.83 328.011 271.884C328.001 271.938 328.004 271.994 328.018 272.047C328.082 272.295 328.21 272.319 328.243 272.327C328.66 272.391 329.534 271.525 330.063 270.844C329.381 270.939 328.729 271.186 328.154 271.565L328.186 271.597Z" fill="#1E90FF"/>
<path d="M330.44 270.715C330.419 270.719 330.397 270.719 330.376 270.715C329.71 270.9 327.97 270.779 327.601 270.218C327.545 270.13 327.521 270.025 327.533 269.922C327.544 269.818 327.591 269.722 327.665 269.649C327.734 269.567 327.819 269.501 327.914 269.452C328.009 269.404 328.112 269.376 328.219 269.368C329.101 269.296 330.384 270.426 330.432 270.475C330.451 270.491 330.466 270.512 330.474 270.536C330.483 270.56 330.485 270.586 330.48 270.611C330.473 270.648 330.459 270.683 330.44 270.715ZM327.93 269.809L327.882 269.857C327.769 269.993 327.818 270.066 327.834 270.098C328.05 270.426 329.269 270.619 330.023 270.531C329.528 270.073 328.908 269.775 328.243 269.673C328.126 269.681 328.016 269.729 327.93 269.809Z" fill="#1E90FF"/>
<path d="M277.861 284.935C277.107 284.935 276.377 284.83 276.137 284.486C276.074 284.396 276.04 284.29 276.04 284.181C276.04 284.072 276.074 283.965 276.137 283.876C276.184 283.795 276.248 283.725 276.324 283.67C276.4 283.614 276.486 283.575 276.578 283.555C277.556 283.283 279.617 284.461 279.706 284.51C279.73 284.524 279.75 284.546 279.762 284.571C279.775 284.597 279.78 284.626 279.778 284.654C279.772 284.682 279.758 284.707 279.738 284.727C279.718 284.747 279.693 284.761 279.665 284.766C279.07 284.874 278.466 284.93 277.861 284.935ZM276.931 283.788C276.84 283.775 276.748 283.775 276.658 283.788C276.544 283.817 276.447 283.888 276.385 283.988C276.289 284.157 276.321 284.245 276.385 284.293C276.658 284.67 278.15 284.686 279.24 284.526C278.526 284.132 277.741 283.881 276.931 283.788Z" fill="#1E90FF"/>
<path d="M279.641 284.734H279.585C278.88 284.413 277.468 283.13 277.572 282.473C277.572 282.32 277.709 282.12 278.094 282.08C278.237 282.063 278.381 282.077 278.519 282.118C278.657 282.159 278.785 282.228 278.896 282.32C279.641 282.938 279.802 284.526 279.81 284.59C279.811 284.614 279.807 284.638 279.797 284.661C279.788 284.683 279.773 284.703 279.754 284.718C279.719 284.737 279.68 284.743 279.641 284.734ZM278.206 282.328H278.126C277.869 282.328 277.853 282.456 277.853 282.489C277.789 282.89 278.743 283.884 279.457 284.325C279.38 283.651 279.1 283.016 278.655 282.505C278.52 282.421 278.364 282.379 278.206 282.384V282.328Z" fill="#1E90FF"/>
<path d="M330.191 269.817L335.003 265.237C335.089 265.159 335.199 265.111 335.315 265.101C335.431 265.09 335.547 265.119 335.645 265.181L340.104 268.165C340.213 268.238 340.303 268.334 340.369 268.447C340.435 268.56 340.474 268.687 340.485 268.817C340.495 268.948 340.475 269.079 340.427 269.2C340.379 269.322 340.304 269.431 340.208 269.52C338.508 271.124 337.602 271.766 335.501 273.779C334.201 275.014 330.336 279.232 328.547 280.941C326.759 282.649 324.834 281.109 325.411 280.243C328.01 276.393 329.63 272.688 329.782 270.739C329.799 270.391 329.945 270.063 330.191 269.817Z" fill="#263238"/>
<path d="M280.267 283.932H286.683C286.799 283.931 286.912 283.971 287.003 284.044C287.094 284.117 287.156 284.219 287.18 284.333L288.343 289.57C288.371 289.693 288.372 289.821 288.346 289.944C288.319 290.068 288.266 290.184 288.189 290.284C288.112 290.384 288.015 290.467 287.903 290.525C287.791 290.583 287.667 290.616 287.541 290.621C285.215 290.581 281.863 290.444 278.944 290.444C275.535 290.444 272.592 290.629 268.59 290.629C266.184 290.629 265.502 288.183 266.513 287.966C271.124 286.956 274.885 286.843 278.871 284.389C279.285 284.111 279.768 283.953 280.267 283.932Z" fill="#263238"/>
<path d="M271.862 95.5905C269.52 99.031 267.106 102.255 264.508 105.447C261.898 108.664 259.113 111.734 256.167 114.646L255.004 115.737L254.715 116.009L254.507 116.202L254.21 116.45C253.835 116.755 253.432 117.023 253.007 117.252C251.652 117.97 250.159 118.388 248.628 118.48C246.3 118.62 243.964 118.429 241.691 117.91C237.568 116.996 233.569 115.59 229.781 113.724L231.249 109.545C235.007 110.297 238.807 110.816 242.629 111.101C244.305 111.234 245.991 111.164 247.65 110.893C248.129 110.82 248.586 110.642 248.989 110.371V110.323L249.053 110.259L249.286 109.994L250.24 108.952C252.742 106.097 255.172 103.049 257.53 99.9373C259.888 96.8255 262.254 93.6336 264.508 90.5218L271.862 95.5905Z" fill="#FFBE9D"/>
<path d="M304.086 83.5364C309.604 84.7955 315.94 99.8571 315.94 99.8571L304.848 107.492C302.088 103.537 299.64 99.3724 297.526 95.0371C294.254 88.1078 298.44 82.2371 304.086 83.5364Z" fill="#1E90FF"/>
<path opacity="0.3" d="M300.124 93.1363L305.37 107.099L304.848 107.46C304.848 107.46 302.579 104.252 300.124 99.9774V93.1363Z" fill="black"/>
<path d="M271.076 83.8411C271.076 83.8411 264.804 90.9228 270.731 134.76H302.226C302.442 129.948 299.403 106.329 304.07 83.5363C300.588 82.8618 297.065 82.4171 293.524 82.205C289.061 81.9401 284.586 81.9401 280.123 82.205C277.069 82.514 274.044 83.0611 271.076 83.8411Z" fill="#1E90FF"/>
<path opacity="0.3" d="M274.573 96.5127C273.753 101.488 271.602 106.149 268.349 110.002C268.221 107.179 268.173 104.645 268.181 102.375L274.573 96.5127Z" fill="black"/>
<path d="M277.292 88.613C278.094 94.227 267.082 108.447 267.082 108.447L256.031 100.844C256.031 100.844 259.094 92.984 264.251 87.8431C270.146 81.9645 276.449 82.5419 277.292 88.613Z" fill="#1E90FF"/>
<path d="M232.035 109.978L227.712 105.511L223.1 111.454C223.1 111.454 226.613 114.846 230.8 113.86L232.035 109.978Z" fill="#FFBE9D"/>
<path d="M221.777 103.057L219.796 109.297L223.1 111.462L227.712 105.511L221.777 103.057Z" fill="#FFBE9D"/>
<path d="M292.722 60.6313C292.361 66.4698 292.449 69.9024 289.514 72.8938C285.079 77.4011 277.869 74.7304 276.482 68.8838C275.222 63.6388 276.024 54.9771 281.735 52.6513C282.993 52.1323 284.364 51.9443 285.716 52.1053C287.068 52.2663 288.356 52.771 289.458 53.5711C290.56 54.3712 291.438 55.4402 292.01 56.6761C292.581 57.912 292.826 59.2737 292.722 60.6313Z" fill="#FFBE9D"/>
<path d="M297.807 48.4489C299.603 50.1091 298.841 51.9456 297.903 52.2905C300.814 52.892 301.247 55.2098 299.715 60.102C298.248 64.7857 294.711 71.0653 290.292 71.4503C283.651 72.0277 281.71 65.1145 281.662 58.2494C277.909 58.4739 279.529 55.1456 274.918 55.9155C270.908 56.5812 272.415 53.4534 269.007 52.09C265.061 50.486 265.855 44.4309 269.536 46.1712C269.536 46.1712 267.828 47.294 269.817 48.3527C271.806 49.4113 271.621 46.9652 275.551 46.6685C279.481 46.3717 279.946 49.7481 284.55 47.7191C290.348 45.1607 294.125 45.0645 297.807 48.4489Z" fill="#263238"/>
<path d="M295.593 52.2424C295.855 51.8219 296.245 51.4967 296.705 51.3147C297.166 51.1328 297.673 51.1037 298.152 51.2318C299.956 51.6168 300.108 52.4108 301.239 52.3065C302.37 52.2023 301.953 53.4133 301.953 53.4133C301.953 53.4133 301.648 52.499 300.285 53.0043C298.921 53.5095 298.031 52.2744 297.446 52.8278C296.86 53.3812 295.593 52.2424 295.593 52.2424Z" fill="#263238"/>
<path d="M284.814 62.2193C284.552 63.6487 283.824 64.9513 282.745 65.9245C281.318 67.1997 280.082 66.1811 280.042 64.4408C280.042 62.8769 280.7 60.3265 282.344 59.725C283.988 59.1235 285.103 60.495 284.814 62.2193Z" fill="#FFBE9D"/>
<path d="M281.911 134.76C281.911 134.76 288.592 179.784 292.265 196.658C296.275 215.104 324.225 264.187 324.225 264.187L334.49 260.843C334.49 260.843 312.235 216.62 309.941 198.335C307.447 178.485 302.242 134.76 302.242 134.76H281.911Z" fill="#263238"/>
<path d="M321.361 260.939C321.313 260.939 323.703 264.532 323.703 264.532L335.244 260.77L333.889 257.322L321.361 260.939Z" fill="#1E90FF"/>
<path opacity="0.3" d="M286.13 150.8C293.861 152.316 293.043 181.148 292.112 195.977C289.883 185.495 286.619 165.324 284.389 151.009C284.929 150.743 285.543 150.669 286.13 150.8Z" fill="black"/>
<path d="M270.731 134.76C270.731 134.76 269.929 178.814 270.555 196.779C271.228 215.465 277.773 276.658 277.773 276.658H287.758C287.758 276.658 288.126 216.564 288.56 198.206C289.041 178.196 291.463 134.76 291.463 134.76H270.731Z" fill="#263238"/>
<path d="M275.832 272.704C275.784 272.704 276.393 276.842 276.393 276.842H288.536L288.864 273.145L275.832 272.704Z" fill="#1E90FF"/>
</g>
<defs>
<clipPath id="clip0_9_1494">
<rect width="401" height="298.833" fill="white" transform="translate(0 0.898315)"/>
</clipPath>
</defs>
</svg>
