<svg width="24" height="24" viewBox="0 0 24 24" fill="none" xmlns="http://www.w3.org/2000/svg">
<path fill-rule="evenodd" clip-rule="evenodd" d="M16.28 11.4708C16.4205 11.6114 16.4993 11.8021 16.4993 12.0008C16.4993 12.1996 16.4205 12.3902 16.28 12.5308L8.78 20.0308C8.63782 20.1633 8.44978 20.2354 8.25548 20.232C8.06118 20.2286 7.87579 20.1499 7.73838 20.0124C7.60096 19.875 7.52225 19.6896 7.51882 19.4953C7.5154 19.301 7.58752 19.113 7.72 18.9708L14.69 12.0008L7.72 5.03082C7.58752 4.88865 7.5154 4.7006 7.51882 4.5063C7.52225 4.312 7.60096 4.12661 7.73838 3.9892C7.87579 3.85179 8.06118 3.77308 8.25548 3.76965C8.44978 3.76622 8.63782 3.83834 8.78 3.97082L16.28 11.4708Z" fill="#474747"/>
</svg>
