<svg width="168" height="168" viewBox="0 0 168 168" fill="none" xmlns="http://www.w3.org/2000/svg">
<g clip-path="url(#clip0_45_8851)">
<mask id="mask0_45_8851" style="mask-type:luminance" maskUnits="userSpaceOnUse" x="0" y="0" width="168" height="168">
<path d="M168 0H0V168H168V0Z" fill="white"/>
</mask>
<g mask="url(#mask0_45_8851)">
<path d="M84.0121 168.025C130.411 168.025 168.025 130.411 168.025 84.0121C168.025 37.6136 130.411 0 84.0121 0C37.6136 0 0 37.6136 0 84.0121C0 130.411 37.6136 168.025 84.0121 168.025Z" fill="white"/>
<path d="M85.8186 110.971C83.9879 111.092 82.6145 112.682 82.6145 114.513V121.934L89.481 121.91V114.392C89.481 112.417 87.8183 110.851 85.8186 110.971Z" fill="#1E90FF"/>
<path d="M100.732 41.8984C84.6143 41.8984 70.7606 51.4392 64.4002 65.1724C61.7983 64.4011 59.0756 63.9916 56.2328 63.9916C40.2109 63.9916 27.2248 76.9775 27.2248 92.9995C27.2248 109.021 40.2109 122.007 56.2328 122.007H68.8091H69.0018C66.8336 120.369 65.4119 117.767 65.4119 114.852V104.829C63.8941 103.914 62.6656 102.516 61.9427 100.782C60.6417 97.5769 61.3646 93.9392 63.8222 91.53L80.1087 75.4597C81.6989 73.8695 83.8189 73.0022 86.0837 73.0022C88.3244 73.0022 90.4444 73.8695 92.0588 75.4597L108.322 91.53C110.779 93.9634 111.526 97.6011 110.201 100.782C109.478 102.516 108.249 103.914 106.731 104.829V115.671C106.731 118.153 105.623 120.345 103.889 121.839H104.25C124.729 120.08 140.823 102.901 140.823 81.9409C140.775 59.8237 122.849 41.8984 100.732 41.8984Z" fill="#1E90FF"/>
</g>
</g>
<defs>
<clipPath id="clip0_45_8851">
<rect width="168" height="168" fill="white"/>
</clipPath>
</defs>
</svg>
