<svg width="24" height="24" viewBox="0 0 24 24" fill="none" xmlns="http://www.w3.org/2000/svg">
<g clip-path="url(#clip0_39_6734)">
<path d="M12 2.5C17.2489 2.5 21.5 6.75114 21.5 12C21.5 17.2489 17.2489 21.5 12 21.5C6.75114 21.5 2.5 17.2489 2.5 12C2.5 6.75114 6.75114 2.5 12 2.5ZM10.5 19.5H13.5V16.5H10.5V19.5ZM12 4.5C9.51386 4.5 7.5 6.51386 7.5 9V9.5H10.5V9C10.5 8.17114 11.1711 7.5 12 7.5C12.8289 7.5 13.5 8.17114 13.5 9C13.5 9.4114 13.3321 9.78608 13.0615 10.0566L13.0596 10.0586L11.8154 11.3174C11.0071 12.1313 10.5 13.2564 10.5 14.5V15.5H13.5V15C13.5 14.301 13.6051 13.8528 13.7676 13.5088C13.932 13.1606 14.1732 12.8786 14.5234 12.5283L14.5283 12.5234L15.4238 11.6035L15.4229 11.6025C16.0897 10.933 16.5 10.0153 16.5 9C16.5 6.51386 14.4861 4.5 12 4.5Z" stroke="#474747"/>
</g>
<defs>
<clipPath id="clip0_39_6734">
<rect width="24" height="24" fill="white"/>
</clipPath>
</defs>
</svg>
