<svg width="24" height="24" viewBox="0 0 24 24" fill="none" xmlns="http://www.w3.org/2000/svg">
<path d="M12.0003 2.75C13.6578 2.75007 15.2472 3.40902 16.4192 4.58105C17.5912 5.75314 18.2503 7.34246 18.2503 9V9.75C18.2503 12.0011 19.0988 14.0531 20.4964 15.6045C20.5237 15.6348 20.544 15.6723 20.554 15.7119C20.5638 15.7513 20.5637 15.7926 20.554 15.832C20.5442 15.8717 20.5246 15.909 20.4973 15.9395C20.4702 15.9697 20.4359 15.9927 20.3977 16.0068C18.8853 16.5652 17.3024 16.9767 15.6653 17.2246L15.2073 17.2939L15.2415 17.7559C15.274 18.2013 15.2148 18.6489 15.0667 19.0703C14.9186 19.4918 14.6843 19.8778 14.3802 20.2051C14.076 20.5323 13.7077 20.7932 13.2981 20.9717C12.8886 21.1501 12.4469 21.2431 12.0003 21.2432C11.5535 21.2432 11.111 21.1502 10.7014 20.9717C10.292 20.7932 9.92351 20.5322 9.61941 20.2051C9.31537 19.8779 9.08196 19.4917 8.93386 19.0703C8.78579 18.6489 8.72651 18.2013 8.75906 17.7559L8.79226 17.2939L8.33523 17.2246C6.72041 16.9799 5.13401 16.5715 3.60183 16.0059C3.56372 15.9917 3.52934 15.9688 3.50222 15.9385C3.47501 15.9081 3.45538 15.8707 3.44558 15.8311C3.4359 15.7916 3.43671 15.7504 3.44656 15.7109C3.45646 15.6713 3.47494 15.6339 3.50222 15.6035C4.86094 14.0987 5.65077 12.1714 5.74148 10.1543L5.75027 9.74902V9C5.75027 7.34256 6.40847 5.75312 7.58035 4.58105C8.75245 3.40895 10.3427 2.75 12.0003 2.75ZM14.2034 17.4023C12.7377 17.5344 11.2628 17.5344 9.79715 17.4023L9.27469 17.3545L9.25222 17.8789C9.23659 18.2495 9.296 18.6198 9.42703 18.9668C9.55806 19.3137 9.75831 19.6308 10.0149 19.8984C10.2715 20.166 10.5801 20.3789 10.9212 20.5244C11.2622 20.6699 11.6295 20.7451 12.0003 20.7451C12.3711 20.7451 12.7383 20.6699 13.0794 20.5244C13.4202 20.379 13.7281 20.1659 13.9846 19.8984C14.2412 19.6308 14.4415 19.3136 14.5725 18.9668C14.7036 18.6198 14.763 18.2495 14.7473 17.8789L14.7259 17.3545L14.2034 17.4023Z" stroke="#474747"/>
</svg>
