<svg width="24" height="24" viewBox="0 0 24 24" fill="none" xmlns="http://www.w3.org/2000/svg">
<path d="M11.0782 2.75H12.9219C13.2475 2.74992 13.5632 2.86574 13.8116 3.07617C14.0598 3.28657 14.2249 3.57845 14.2784 3.89941L14.4581 4.97168C14.5086 5.27459 14.7232 5.53918 15.0313 5.68652V5.6875C15.3507 5.84124 15.6578 6.01938 15.9503 6.21973H15.9512C16.2309 6.41062 16.5674 6.46581 16.8565 6.35742L16.8575 6.3584L17.877 5.97656H17.878C18.1827 5.86237 18.5179 5.85991 18.8243 5.96973C19.1306 6.07959 19.3881 6.29432 19.5508 6.57617L20.4727 8.17285C20.7878 8.7199 20.6891 9.40313 20.2481 9.83789L20.1553 9.92188L19.3155 10.6143L19.3135 10.6152C19.0798 10.8092 18.9542 11.1274 18.9815 11.4697C19.0078 11.8224 19.0078 12.1766 18.9815 12.5293C18.9542 12.8728 19.0803 13.1906 19.3165 13.3848L20.1563 14.0771C20.4075 14.284 20.5768 14.5734 20.6348 14.8936C20.6928 15.2138 20.6354 15.5443 20.4727 15.8262L19.5499 17.4229C19.3873 17.7044 19.1303 17.9193 18.8243 18.0293C18.5564 18.1255 18.2658 18.1367 17.9932 18.0615L17.878 18.0234L16.8585 17.6416L16.7481 17.6084C16.4876 17.5491 16.1987 17.6104 15.9512 17.7793H15.9503C15.659 17.9791 15.3517 18.1578 15.0313 18.3115L15.0294 18.3125C14.7238 18.4611 14.5088 18.7253 14.4581 19.0283V19.0293L14.2794 20.1006C14.1686 20.7636 13.5945 21.25 12.9229 21.25H11.0792C10.4067 21.25 9.83252 20.7638 9.72175 20.1006H9.72272L9.54401 19.0303C9.49349 18.7241 9.27678 18.459 8.97175 18.3115H8.96979C8.64946 18.1579 8.34298 17.979 8.05182 17.7793L8.04889 17.7783L7.94147 17.7129C7.68544 17.577 7.39611 17.5472 7.14362 17.6416L6.12409 18.0234C5.81933 18.1377 5.48417 18.1401 5.1778 18.0303C4.87141 17.9204 4.61401 17.7057 4.45124 17.4238L3.52936 15.8271C3.36663 15.5453 3.30925 15.2148 3.36725 14.8945C3.41804 14.6142 3.55415 14.3576 3.75592 14.1592L3.84577 14.0781L4.68659 13.3857L4.68854 13.3848C4.92372 13.1895 5.04596 12.8707 5.02057 12.5322C4.99403 12.1789 4.99412 11.8241 5.02057 11.4707C5.04794 11.127 4.92112 10.8084 4.68464 10.6143L3.84577 9.92285C3.59456 9.71598 3.42525 9.42666 3.36725 9.10645C3.30926 8.7862 3.36664 8.45568 3.52936 8.17383L4.45124 6.57715C4.61391 6.29512 4.87135 6.07971 5.1778 5.96973C5.48423 5.85976 5.82019 5.86234 6.12507 5.97656V5.97559L7.14167 6.3584H7.14362C7.42946 6.46427 7.76536 6.4142 8.04889 6.21875L8.04987 6.21973C8.34259 6.01939 8.6501 5.84118 8.96979 5.6875H8.97077C9.27504 5.54038 9.49215 5.27588 9.54303 4.97168V4.9707L9.72077 3.89941C9.83155 3.2362 10.4058 2.75 11.0782 2.75ZM12.0001 7.75C10.8729 7.75 9.79221 8.19811 8.99518 8.99512C8.19815 9.79215 7.75007 10.8728 7.75007 12C7.75007 13.1272 8.19815 14.2079 8.99518 15.0049C9.79221 15.8019 10.8729 16.25 12.0001 16.25C13.1272 16.25 14.2079 15.8019 15.0049 15.0049C15.802 14.2079 16.2501 13.1272 16.2501 12C16.2501 10.8728 15.802 9.79214 15.0049 8.99512C14.2079 8.1981 13.1272 7.75002 12.0001 7.75Z" stroke="#474747"/>
</svg>
