<svg width="24" height="24" viewBox="0 0 24 24" fill="none" xmlns="http://www.w3.org/2000/svg">
<path d="M12 2.75C17.1089 2.75 21.25 6.89114 21.25 12C21.25 17.1089 17.1089 21.25 12 21.25C6.89114 21.25 2.75 17.1089 2.75 12C2.75 6.89114 6.89114 2.75 12 2.75ZM13.5674 12.3857C13.982 10.7285 12.2606 9.34645 10.7324 10.1104L10.7256 10.1143L10.7197 10.1172L10.6787 10.1396C10.5377 10.2077 10.4101 10.3009 10.3037 10.416C10.1892 10.5399 10.1006 10.6859 10.0439 10.8447C9.98737 11.0035 9.96339 11.1726 9.97363 11.3408C9.98393 11.509 10.0281 11.6735 10.1035 11.8242C10.179 11.9749 10.2846 12.1088 10.4131 12.2178C10.5417 12.3268 10.6914 12.4092 10.8525 12.459C10.8895 12.4704 10.9271 12.4794 10.9648 12.4873L10.4326 14.6143C10.0179 16.272 11.7398 17.6533 13.2686 16.8896L13.2861 16.8799L13.3262 16.8584L13.3301 16.8555C13.6095 16.698 13.8182 16.4394 13.9121 16.1328C14.006 15.8262 13.9783 15.4949 13.835 15.208C13.6915 14.9211 13.4433 14.6998 13.1416 14.5908C13.1031 14.5769 13.0638 14.5647 13.0244 14.5547L13.5674 12.3857ZM12 7C11.6685 7 11.3506 7.13179 11.1162 7.36621C10.8818 7.60063 10.75 7.91848 10.75 8.25C10.75 8.58152 10.8818 8.89937 11.1162 9.13379C11.3506 9.36821 11.6685 9.5 12 9.5C12.3315 9.5 12.6494 9.36821 12.8838 9.13379C13.1182 8.89937 13.25 8.58152 13.25 8.25C13.25 7.91848 13.1182 7.60063 12.8838 7.36621C12.6494 7.13179 12.3315 7 12 7Z" stroke="#474747"/>
</svg>
