<svg width="24" height="24" viewBox="0 0 24 24" fill="none" xmlns="http://www.w3.org/2000/svg">
<path d="M17.327 16.87C17.327 16.7593 17.2887 16.6667 17.212 16.592C17.1347 16.518 17.0447 16.481 16.942 16.481C16.84 16.481 16.7503 16.5193 16.673 16.596C16.5963 16.6733 16.558 16.7633 16.558 16.866V19.361C16.558 19.4717 16.5963 19.5643 16.673 19.639C16.7503 19.713 16.8403 19.75 16.943 19.75C17.045 19.75 17.1343 19.7117 17.211 19.635C17.2883 19.5577 17.327 19.4677 17.327 19.365V16.87ZM18.673 16.865V19.36C18.673 19.4713 18.7117 19.564 18.789 19.638C18.8657 19.7127 18.9553 19.75 19.058 19.75C19.1607 19.75 19.2503 19.7113 19.327 19.634C19.4037 19.5567 19.442 19.467 19.442 19.365V16.87C19.442 16.7593 19.4037 16.6667 19.327 16.592C19.2503 16.518 19.1603 16.481 19.057 16.481C18.955 16.481 18.8657 16.5193 18.789 16.596C18.7117 16.6733 18.673 16.7623 18.673 16.865ZM7.269 8.73H16.731C16.8723 8.73 16.991 8.682 17.087 8.586C17.183 8.49 17.231 8.37133 17.231 8.23C17.231 8.07467 17.183 7.95267 17.087 7.864C16.991 7.77467 16.8723 7.73 16.731 7.73H7.269C7.12767 7.73 7.009 7.778 6.913 7.874C6.817 7.97 6.769 8.089 6.769 8.231C6.769 8.373 6.817 8.49167 6.913 8.587C7.009 8.68233 7.12767 8.73 7.269 8.73ZM18 22.116C16.886 22.116 15.941 21.7277 15.165 20.951C14.3883 20.175 14 19.23 14 18.116C14 17.002 14.3883 16.0567 15.165 15.28C15.9417 14.5033 16.8867 14.1153 18 14.116C19.1133 14.1167 20.0587 14.5047 20.836 15.28C21.6133 16.0553 22.0013 17.0007 22 18.116C22 19.2293 21.612 20.1743 20.836 20.951C20.0587 21.7277 19.1133 22.116 18 22.116ZM4 5.616C4 5.17133 4.15833 4.791 4.475 4.475C4.79167 4.159 5.17167 4.00067 5.615 4H18.385C18.829 4 19.209 4.15833 19.525 4.475C19.841 4.79167 19.9993 5.17167 20 5.615V10.933C20 11.0743 19.952 11.193 19.856 11.289C19.76 11.385 19.641 11.433 19.499 11.433C19.357 11.433 19.2383 11.385 19.143 11.289C19.0477 11.193 19 11.0743 19 10.933V5.616C19 5.462 18.936 5.32067 18.808 5.192C18.68 5.06333 18.5387 4.99933 18.384 5H5.616C5.462 5 5.32067 5.064 5.192 5.192C5.06333 5.32 4.99933 5.46133 5 5.616V19.05H11.344C11.3607 19.186 11.385 19.322 11.417 19.458C11.4497 19.594 11.4863 19.7253 11.527 19.852C11.5717 19.9713 11.5417 20.069 11.437 20.145C11.3317 20.2217 11.2317 20.225 11.137 20.155L10.888 19.985C10.814 19.9363 10.736 19.912 10.654 19.912C10.572 19.912 10.4937 19.9363 10.419 19.985L9.542 20.592C9.468 20.6413 9.39 20.666 9.308 20.666C9.226 20.666 9.14767 20.6413 9.073 20.592L8.196 19.985C8.12133 19.9363 8.043 19.912 7.961 19.912C7.879 19.912 7.801 19.9363 7.727 19.985L6.85 20.592C6.776 20.6413 6.698 20.666 6.616 20.666C6.534 20.666 6.45567 20.6413 6.381 20.592L5.504 19.985C5.42933 19.9363 5.351 19.912 5.269 19.912C5.187 19.912 5.109 19.9363 5.035 19.985L4 20.788V5.616ZM7.27 16.269H11.144C11.286 16.269 11.4047 16.221 11.5 16.125C11.5953 16.029 11.6433 15.9103 11.644 15.769C11.6447 15.6277 11.5967 15.509 11.5 15.413C11.4033 15.317 11.2847 15.269 11.144 15.269H7.27C7.12867 15.269 7.01 15.317 6.914 15.413C6.818 15.509 6.77 15.628 6.77 15.77C6.77 15.912 6.818 16.0307 6.914 16.126C7.01 16.2213 7.12867 16.269 7.27 16.269ZM7.27 12.5H14.474C14.6153 12.5 14.734 12.452 14.83 12.356C14.926 12.26 14.974 12.141 14.974 11.999C14.974 11.857 14.926 11.7383 14.83 11.643C14.734 11.5477 14.6153 11.5 14.474 11.5H7.269C7.12767 11.5 7.009 11.548 6.913 11.644C6.817 11.74 6.769 11.859 6.769 12.001C6.769 12.143 6.817 12.2617 6.913 12.357C7.009 12.4523 7.12867 12.5 7.27 12.5Z" fill="#253240"/>
</svg>
