<svg width="20" height="20" viewBox="0 0 20 20" fill="none" xmlns="http://www.w3.org/2000/svg">
<path d="M10 7.0835C14.6024 7.0835 18.3333 5.96421 18.3333 4.5835C18.3333 3.20278 14.6024 2.0835 10 2.0835C5.39763 2.0835 1.66667 3.20278 1.66667 4.5835C1.66667 5.96421 5.39763 7.0835 10 7.0835Z" stroke="#253240" stroke-width="2" stroke-linecap="round" stroke-linejoin="round"/>
<path d="M4.48751 6.4585C2.75834 6.91683 1.66667 7.58683 1.66667 8.3335C1.66667 9.71433 5.39751 10.8335 10 10.8335C14.6025 10.8335 18.3333 9.71433 18.3333 8.3335C18.3333 7.58683 17.2421 6.91683 15.5125 6.4585C14.0433 6.84725 12.1133 7.0835 10 7.0835C7.88667 7.0835 5.95709 6.84725 4.48751 6.4585Z" stroke="#253240" stroke-width="2" stroke-linecap="round" stroke-linejoin="round"/>
<path d="M4.48751 10.2085C2.75834 10.6668 1.66667 11.3368 1.66667 12.0835C1.66667 13.4643 5.39751 14.5835 10 14.5835C14.6025 14.5835 18.3333 13.4643 18.3333 12.0835C18.3333 11.3368 17.2421 10.6668 15.5125 10.2085C14.0433 10.5972 12.1133 10.8335 10 10.8335C7.88667 10.8335 5.95709 10.5972 4.48751 10.2085Z" stroke="#253240" stroke-width="2" stroke-linecap="round" stroke-linejoin="round"/>
<path d="M4.48751 13.9585C2.75834 14.4168 1.66667 15.0868 1.66667 15.8335C1.66667 17.2143 5.39751 18.3335 10 18.3335C14.6025 18.3335 18.3333 17.2143 18.3333 15.8335C18.3333 15.0868 17.2421 14.4168 15.5125 13.9585C14.0433 14.3477 12.1133 14.5835 10 14.5835C7.88667 14.5835 5.95709 14.3477 4.48751 13.9585Z" stroke="#253240" stroke-width="2" stroke-linecap="round" stroke-linejoin="round"/>
</svg>
