<svg width="24" height="24" viewBox="0 0 24 24" fill="none" xmlns="http://www.w3.org/2000/svg">
<path fill-rule="evenodd" clip-rule="evenodd" d="M11.03 3.96934C11.1705 4.10997 11.2494 4.30059 11.2494 4.49934C11.2494 4.69809 11.1705 4.88871 11.03 5.02934L4.81001 11.2493H21C21.1989 11.2493 21.3897 11.3284 21.5303 11.469C21.671 11.6097 21.75 11.8004 21.75 11.9993C21.75 12.1983 21.671 12.389 21.5303 12.5297C21.3897 12.6703 21.1989 12.7493 21 12.7493H4.81001L11.03 18.9693C11.1037 19.038 11.1628 19.1208 11.2038 19.2128C11.2448 19.3048 11.2668 19.4041 11.2686 19.5048C11.2704 19.6055 11.2519 19.7055 11.2141 19.7989C11.1764 19.8923 11.1203 19.9772 11.049 20.0484C10.9778 20.1196 10.893 20.1757 10.7996 20.2135C10.7062 20.2512 10.6062 20.2697 10.5055 20.2679C10.4048 20.2662 10.3055 20.2441 10.2135 20.2031C10.1215 20.1621 10.0387 20.103 9.97001 20.0293L2.47001 12.5293C2.32956 12.3887 2.25067 12.1981 2.25067 11.9993C2.25067 11.8006 2.32956 11.61 2.47001 11.4693L9.97001 3.96934C10.1106 3.82889 10.3013 3.75 10.5 3.75C10.6988 3.75 10.8894 3.82889 11.03 3.96934Z" fill="#253240"/>
</svg>
