<svg width="16" height="17" viewBox="0 0 16 17" fill="none" xmlns="http://www.w3.org/2000/svg">
<path d="M8.33333 9.16699H7.66667C7.48986 9.16699 7.32029 9.23723 7.19526 9.36225C7.07024 9.48728 7 9.65685 7 9.83366C7 10.0105 7.07024 10.18 7.19526 10.3051C7.32029 10.4301 7.48986 10.5003 7.66667 10.5003H8.33333C8.51014 10.5003 8.67971 10.4301 8.80474 10.3051C8.92976 10.18 9 10.0105 9 9.83366C9 9.65685 8.92976 9.48728 8.80474 9.36225C8.67971 9.23723 8.51014 9.16699 8.33333 9.16699Z" fill="#5D5D5D"/>
<path d="M8.33333 6.5H7.66667C7.48986 6.5 7.32029 6.57024 7.19526 6.69526C7.07024 6.82029 7 6.98986 7 7.16667C7 7.34348 7.07024 7.51305 7.19526 7.63807C7.32029 7.7631 7.48986 7.83333 7.66667 7.83333H8.33333C8.51014 7.83333 8.67971 7.7631 8.80474 7.63807C8.92976 7.51305 9 7.34348 9 7.16667C9 6.98986 8.92976 6.82029 8.80474 6.69526C8.67971 6.57024 8.51014 6.5 8.33333 6.5Z" fill="#5D5D5D"/>
<path d="M8.33333 3.83398H7.66667C7.48986 3.83398 7.32029 3.90422 7.19526 4.02925C7.07024 4.15427 7 4.32384 7 4.50065C7 4.67746 7.07024 4.84703 7.19526 4.97206C7.32029 5.09708 7.48986 5.16732 7.66667 5.16732H8.33333C8.51014 5.16732 8.67971 5.09708 8.80474 4.97206C8.92976 4.84703 9 4.67746 9 4.50065C9 4.32384 8.92976 4.15427 8.80474 4.02925C8.67971 3.90422 8.51014 3.83398 8.33333 3.83398Z" fill="#5D5D5D"/>
<path d="M5.66667 9.16699H5C4.82319 9.16699 4.65362 9.23723 4.52859 9.36225C4.40357 9.48728 4.33333 9.65685 4.33333 9.83366C4.33333 10.0105 4.40357 10.18 4.52859 10.3051C4.65362 10.4301 4.82319 10.5003 5 10.5003H5.66667C5.84348 10.5003 6.01305 10.4301 6.13807 10.3051C6.26309 10.18 6.33333 10.0105 6.33333 9.83366C6.33333 9.65685 6.26309 9.48728 6.13807 9.36225C6.01305 9.23723 5.84348 9.16699 5.66667 9.16699Z" fill="#5D5D5D"/>
<path d="M5.66667 6.5H5C4.82319 6.5 4.65362 6.57024 4.52859 6.69526C4.40357 6.82029 4.33333 6.98986 4.33333 7.16667C4.33333 7.34348 4.40357 7.51305 4.52859 7.63807C4.65362 7.7631 4.82319 7.83333 5 7.83333H5.66667C5.84348 7.83333 6.01305 7.7631 6.13807 7.63807C6.26309 7.51305 6.33333 7.34348 6.33333 7.16667C6.33333 6.98986 6.26309 6.82029 6.13807 6.69526C6.01305 6.57024 5.84348 6.5 5.66667 6.5Z" fill="#5D5D5D"/>
<path d="M5.66667 3.83398H5C4.82319 3.83398 4.65362 3.90422 4.52859 4.02925C4.40357 4.15427 4.33333 4.32384 4.33333 4.50065C4.33333 4.67746 4.40357 4.84703 4.52859 4.97206C4.65362 5.09708 4.82319 5.16732 5 5.16732H5.66667C5.84348 5.16732 6.01305 5.09708 6.13807 4.97206C6.26309 4.84703 6.33333 4.67746 6.33333 4.50065C6.33333 4.32384 6.26309 4.15427 6.13807 4.02925C6.01305 3.90422 5.84348 3.83398 5.66667 3.83398Z" fill="#5D5D5D"/>
<path d="M11 9.16699H10.3333C10.1565 9.16699 9.98695 9.23723 9.86193 9.36225C9.7369 9.48728 9.66666 9.65685 9.66666 9.83366C9.66666 10.0105 9.7369 10.18 9.86193 10.3051C9.98695 10.4301 10.1565 10.5003 10.3333 10.5003H11C11.1768 10.5003 11.3464 10.4301 11.4714 10.3051C11.5964 10.18 11.6667 10.0105 11.6667 9.83366C11.6667 9.65685 11.5964 9.48728 11.4714 9.36225C11.3464 9.23723 11.1768 9.16699 11 9.16699Z" fill="#5D5D5D"/>
<path d="M11 6.5H10.3333C10.1565 6.5 9.98695 6.57024 9.86193 6.69526C9.7369 6.82029 9.66666 6.98986 9.66666 7.16667C9.66666 7.34348 9.7369 7.51305 9.86193 7.63807C9.98695 7.7631 10.1565 7.83333 10.3333 7.83333H11C11.1768 7.83333 11.3464 7.7631 11.4714 7.63807C11.5964 7.51305 11.6667 7.34348 11.6667 7.16667C11.6667 6.98986 11.5964 6.82029 11.4714 6.69526C11.3464 6.57024 11.1768 6.5 11 6.5Z" fill="#5D5D5D"/>
<path d="M11 3.83398H10.3333C10.1565 3.83398 9.98695 3.90422 9.86193 4.02925C9.7369 4.15427 9.66666 4.32384 9.66666 4.50065C9.66666 4.67746 9.7369 4.84703 9.86193 4.97206C9.98695 5.09708 10.1565 5.16732 10.3333 5.16732H11C11.1768 5.16732 11.3464 5.09708 11.4714 4.97206C11.5964 4.84703 11.6667 4.67746 11.6667 4.50065C11.6667 4.32384 11.5964 4.15427 11.4714 4.02925C11.3464 3.90422 11.1768 3.83398 11 3.83398Z" fill="#5D5D5D"/>
<path d="M14.6667 14.5003H14V1.83366C14 1.65685 13.9298 1.48728 13.8047 1.36225C13.6797 1.23723 13.5101 1.16699 13.3333 1.16699H2.66667C2.48986 1.16699 2.32029 1.23723 2.19526 1.36225C2.07024 1.48728 2 1.65685 2 1.83366V14.5003H1.33333C1.15652 14.5003 0.986952 14.5706 0.861928 14.6956C0.736904 14.8206 0.666666 14.9902 0.666666 15.167C0.666666 15.3438 0.736904 15.5134 0.861928 15.6384C0.986952 15.7634 1.15652 15.8337 1.33333 15.8337H14.6667C14.8435 15.8337 15.013 15.7634 15.1381 15.6384C15.2631 15.5134 15.3333 15.3438 15.3333 15.167C15.3333 14.9902 15.2631 14.8206 15.1381 14.6956C15.013 14.5706 14.8435 14.5003 14.6667 14.5003ZM6.66667 14.5003V13.167H9.33333V14.5003H6.66667ZM10.6667 14.5003V12.5003C10.6667 12.3235 10.5964 12.1539 10.4714 12.0289C10.3464 11.9039 10.1768 11.8337 10 11.8337H6C5.82319 11.8337 5.65362 11.9039 5.52859 12.0289C5.40357 12.1539 5.33333 12.3235 5.33333 12.5003V14.5003H3.33333V2.50033H12.6667V14.5003H10.6667Z" fill="#5D5D5D"/>
</svg>
