<svg width="16" height="17" viewBox="0 0 16 17" fill="none" xmlns="http://www.w3.org/2000/svg">
<path d="M9 7.5H7C6.73478 7.5 6.48043 7.39464 6.29289 7.20711C6.10536 7.01957 6 6.76522 6 6.5C6 6.23478 6.10536 5.98043 6.29289 5.79289C6.48043 5.60536 6.73478 5.5 7 5.5H11C11.2652 5.5 11.5196 5.39464 11.7071 5.20711C11.8946 5.01957 12 4.76522 12 4.5C12 4.23478 11.8946 3.98043 11.7071 3.79289C11.5196 3.60536 11.2652 3.5 11 3.5H9V2.5C9 2.23478 8.89464 1.98043 8.70711 1.79289C8.51957 1.60536 8.26522 1.5 8 1.5C7.73478 1.5 7.48043 1.60536 7.29289 1.79289C7.10536 1.98043 7 2.23478 7 2.5V3.5C6.20435 3.5 5.44129 3.81607 4.87868 4.37868C4.31607 4.94129 4 5.70435 4 6.5C4 7.29565 4.31607 8.05871 4.87868 8.62132C5.44129 9.18393 6.20435 9.5 7 9.5H9C9.26522 9.5 9.51957 9.60536 9.70711 9.79289C9.89464 9.98043 10 10.2348 10 10.5C10 10.7652 9.89464 11.0196 9.70711 11.2071C9.51957 11.3946 9.26522 11.5 9 11.5H5C4.73478 11.5 4.48043 11.6054 4.29289 11.7929C4.10536 11.9804 4 12.2348 4 12.5C4 12.7652 4.10536 13.0196 4.29289 13.2071C4.48043 13.3946 4.73478 13.5 5 13.5H7V14.5C7 14.7652 7.10536 15.0196 7.29289 15.2071C7.48043 15.3946 7.73478 15.5 8 15.5C8.26522 15.5 8.51957 15.3946 8.70711 15.2071C8.89464 15.0196 9 14.7652 9 14.5V13.5C9.79565 13.5 10.5587 13.1839 11.1213 12.6213C11.6839 12.0587 12 11.2956 12 10.5C12 9.70435 11.6839 8.94129 11.1213 8.37868C10.5587 7.81607 9.79565 7.5 9 7.5Z" fill="#5D5D5D"/>
</svg>
