<svg width="408" height="89" viewBox="0 0 408 89" fill="none" xmlns="http://www.w3.org/2000/svg">
<g filter="url(#filter0_d_40_7221)">
<rect x="4" y="4" width="400" height="81" rx="4" fill="url(#paint0_linear_40_7221)"/>
</g>
<circle cx="205.047" cy="30" r="16" fill="white"/>
<path d="M206.714 21.668H200.047C199.605 21.668 199.181 21.8436 198.869 22.1561C198.556 22.4687 198.38 22.8926 198.38 23.3346V36.668C198.38 37.11 198.556 37.5339 198.869 37.8465C199.181 38.159 199.605 38.3346 200.047 38.3346H210.047C210.489 38.3346 210.913 38.159 211.226 37.8465C211.538 37.5339 211.714 37.11 211.714 36.668V26.668L206.714 21.668Z" stroke="#56A0DD" stroke-width="2" stroke-linecap="round" stroke-linejoin="round"/>
<path d="M206.714 21.668V26.668H211.714" stroke="#56A0DD" stroke-width="2" stroke-linecap="round" stroke-linejoin="round"/>
<path d="M208.38 30.832H201.714" stroke="#56A0DD" stroke-width="2" stroke-linecap="round" stroke-linejoin="round"/>
<path d="M208.38 34.168H201.714" stroke="#56A0DD" stroke-width="2" stroke-linecap="round" stroke-linejoin="round"/>
<path d="M203.38 27.5H202.547H201.714" stroke="#56A0DD" stroke-width="2" stroke-linecap="round" stroke-linejoin="round"/>
<path d="M152.024 66.9219L155.016 57.625H157.18L153.102 69H151.641L152.024 66.9219ZM149.258 57.625L152.227 66.9219L152.633 69H151.164L147.102 57.625H149.258ZM160.281 60.5469V69H158.391V60.5469H160.281ZM158.266 58.3281C158.266 58.0417 158.36 57.8047 158.547 57.6172C158.74 57.4245 159.005 57.3281 159.344 57.3281C159.677 57.3281 159.94 57.4245 160.133 57.6172C160.326 57.8047 160.422 58.0417 160.422 58.3281C160.422 58.6094 160.326 58.8438 160.133 59.0312C159.94 59.2188 159.677 59.3125 159.344 59.3125C159.005 59.3125 158.74 59.2188 158.547 59.0312C158.36 58.8438 158.266 58.6094 158.266 58.3281ZM166.071 69.1562C165.446 69.1562 164.88 69.0547 164.375 68.8516C163.875 68.6432 163.448 68.3542 163.094 67.9844C162.745 67.6146 162.477 67.1797 162.289 66.6797C162.102 66.1797 162.008 65.6406 162.008 65.0625V64.75C162.008 64.0885 162.104 63.4896 162.297 62.9531C162.49 62.4167 162.758 61.9583 163.102 61.5781C163.446 61.1927 163.852 60.8984 164.321 60.6953C164.789 60.4922 165.297 60.3906 165.844 60.3906C166.448 60.3906 166.977 60.4922 167.43 60.6953C167.883 60.8984 168.258 61.1849 168.555 61.5547C168.857 61.9193 169.081 62.3542 169.227 62.8594C169.378 63.3646 169.453 63.9219 169.453 64.5312V65.3359H162.922V63.9844H167.594V63.8359C167.584 63.4974 167.516 63.1797 167.391 62.8828C167.271 62.5859 167.086 62.3464 166.836 62.1641C166.586 61.9818 166.253 61.8906 165.836 61.8906C165.524 61.8906 165.245 61.9583 165 62.0938C164.761 62.224 164.56 62.4141 164.399 62.6641C164.237 62.9141 164.112 63.2161 164.024 63.5703C163.94 63.9193 163.899 64.3125 163.899 64.75V65.0625C163.899 65.4323 163.948 65.776 164.047 66.0938C164.151 66.4062 164.302 66.6797 164.5 66.9141C164.698 67.1484 164.938 67.3333 165.219 67.4688C165.5 67.599 165.821 67.6641 166.18 67.6641C166.633 67.6641 167.037 67.5729 167.391 67.3906C167.745 67.2083 168.052 66.9505 168.313 66.6172L169.305 67.5781C169.123 67.8438 168.886 68.099 168.594 68.3438C168.302 68.5833 167.946 68.7786 167.524 68.9297C167.107 69.0807 166.623 69.1562 166.071 69.1562ZM173.219 67.125L175.172 60.5469H176.375L176.047 62.5156L174.078 69H173L173.219 67.125ZM172.071 60.5469L173.594 67.1562L173.719 69H172.516L170.227 60.5469H172.071ZM178.203 67.0781L179.68 60.5469H181.516L179.235 69H178.031L178.203 67.0781ZM176.578 60.5469L178.508 67.0469L178.75 69H177.672L175.68 62.5078L175.352 60.5469H176.578ZM189.063 57.625V69H187.102V57.625H189.063ZM193.18 62.3516V69H191.297V60.5469H193.071L193.18 62.3516ZM192.844 64.4609L192.235 64.4531C192.24 63.8542 192.323 63.3047 192.485 62.8047C192.651 62.3047 192.88 61.875 193.172 61.5156C193.469 61.1562 193.823 60.8802 194.235 60.6875C194.646 60.4896 195.104 60.3906 195.61 60.3906C196.016 60.3906 196.383 60.4479 196.711 60.5625C197.044 60.6719 197.328 60.8516 197.563 61.1016C197.802 61.3516 197.985 61.6771 198.11 62.0781C198.235 62.474 198.297 62.9609 198.297 63.5391V69H196.406V63.5312C196.406 63.125 196.347 62.8047 196.227 62.5703C196.112 62.3307 195.943 62.1615 195.719 62.0625C195.5 61.9583 195.227 61.9062 194.899 61.9062C194.576 61.9062 194.287 61.974 194.031 62.1094C193.776 62.2448 193.56 62.4297 193.383 62.6641C193.211 62.8984 193.078 63.1693 192.985 63.4766C192.891 63.7839 192.844 64.112 192.844 64.4609ZM204.961 66.7109C204.961 66.5234 204.914 66.3542 204.821 66.2031C204.727 66.0469 204.547 65.9062 204.281 65.7812C204.021 65.6562 203.636 65.5417 203.125 65.4375C202.677 65.3385 202.266 65.2214 201.891 65.0859C201.521 64.9453 201.203 64.776 200.938 64.5781C200.672 64.3802 200.466 64.1458 200.321 63.875C200.175 63.6042 200.102 63.2917 200.102 62.9375C200.102 62.5938 200.177 62.2682 200.328 61.9609C200.479 61.6536 200.696 61.3828 200.977 61.1484C201.258 60.9141 201.599 60.7292 202 60.5938C202.406 60.4583 202.86 60.3906 203.36 60.3906C204.068 60.3906 204.675 60.5104 205.18 60.75C205.69 60.9844 206.081 61.3047 206.352 61.7109C206.623 62.112 206.758 62.5651 206.758 63.0703H204.875C204.875 62.8464 204.818 62.638 204.703 62.4453C204.594 62.2474 204.427 62.0885 204.203 61.9688C203.979 61.8438 203.698 61.7812 203.36 61.7812C203.037 61.7812 202.768 61.8333 202.555 61.9375C202.347 62.0365 202.19 62.1667 202.086 62.3281C201.987 62.4896 201.938 62.6667 201.938 62.8594C201.938 63 201.964 63.1276 202.016 63.2422C202.073 63.3516 202.167 63.4531 202.297 63.5469C202.427 63.6354 202.604 63.7188 202.828 63.7969C203.058 63.875 203.344 63.9505 203.688 64.0234C204.334 64.1589 204.888 64.3333 205.352 64.5469C205.821 64.7552 206.18 65.026 206.43 65.3594C206.68 65.6875 206.805 66.1042 206.805 66.6094C206.805 66.9844 206.724 67.3281 206.563 67.6406C206.406 67.9479 206.177 68.2161 205.875 68.4453C205.573 68.6693 205.211 68.8438 204.789 68.9688C204.373 69.0938 203.904 69.1562 203.383 69.1562C202.617 69.1562 201.969 69.0208 201.438 68.75C200.906 68.474 200.503 68.1224 200.227 67.6953C199.956 67.263 199.821 66.8151 199.821 66.3516H201.641C201.662 66.7005 201.758 66.9792 201.93 67.1875C202.107 67.3906 202.326 67.5391 202.586 67.6328C202.852 67.7214 203.125 67.7656 203.406 67.7656C203.745 67.7656 204.029 67.7214 204.258 67.6328C204.487 67.5391 204.662 67.4141 204.781 67.2578C204.901 67.0964 204.961 66.9141 204.961 66.7109ZM212.328 60.5469V61.9219H207.563V60.5469H212.328ZM208.938 58.4766H210.821V66.6641C210.821 66.9245 210.857 67.125 210.93 67.2656C211.008 67.401 211.115 67.4922 211.25 67.5391C211.386 67.5859 211.544 67.6094 211.727 67.6094C211.857 67.6094 211.982 67.6016 212.102 67.5859C212.222 67.5703 212.318 67.5547 212.391 67.5391L212.399 68.9766C212.242 69.0234 212.06 69.0651 211.852 69.1016C211.649 69.138 211.414 69.1562 211.149 69.1562C210.716 69.1562 210.334 69.0807 210 68.9297C209.667 68.7734 209.406 68.5208 209.219 68.1719C209.031 67.8229 208.938 67.3594 208.938 66.7812V58.4766ZM215.672 62.1562V69H213.789V60.5469H215.586L215.672 62.1562ZM218.258 60.4922L218.242 62.2422C218.128 62.2214 218.003 62.2057 217.867 62.1953C217.737 62.1849 217.607 62.1797 217.477 62.1797C217.154 62.1797 216.87 62.2266 216.625 62.3203C216.38 62.4089 216.175 62.5391 216.008 62.7109C215.847 62.8776 215.722 63.0807 215.633 63.3203C215.544 63.5599 215.492 63.8281 215.477 64.125L215.047 64.1562C215.047 63.625 215.099 63.1328 215.203 62.6797C215.308 62.2266 215.464 61.8281 215.672 61.4844C215.886 61.1406 216.151 60.8724 216.469 60.6797C216.792 60.487 217.164 60.3906 217.586 60.3906C217.701 60.3906 217.823 60.401 217.953 60.4219C218.089 60.4427 218.19 60.4661 218.258 60.4922ZM224.524 67.0078V60.5469H226.414V69H224.633L224.524 67.0078ZM224.789 65.25L225.422 65.2344C225.422 65.8021 225.36 66.3255 225.235 66.8047C225.11 67.2786 224.917 67.6927 224.656 68.0469C224.396 68.3958 224.063 68.6693 223.656 68.8672C223.25 69.0599 222.763 69.1562 222.196 69.1562C221.784 69.1562 221.406 69.0964 221.063 68.9766C220.719 68.8568 220.422 68.6719 220.172 68.4219C219.927 68.1719 219.737 67.8464 219.602 67.4453C219.466 67.0443 219.399 66.5651 219.399 66.0078V60.5469H221.281V66.0234C221.281 66.3307 221.318 66.5885 221.391 66.7969C221.464 67 221.563 67.1641 221.688 67.2891C221.813 67.4141 221.959 67.5026 222.125 67.5547C222.292 67.6068 222.469 67.6328 222.656 67.6328C223.193 67.6328 223.615 67.5286 223.922 67.3203C224.235 67.1068 224.456 66.8203 224.586 66.4609C224.722 66.1016 224.789 65.6979 224.789 65.25ZM231.797 67.6562C232.104 67.6562 232.38 67.5964 232.625 67.4766C232.875 67.3516 233.076 67.1797 233.227 66.9609C233.383 66.7422 233.469 66.4896 233.485 66.2031H235.258C235.248 66.75 235.086 67.2474 234.774 67.6953C234.461 68.1432 234.047 68.5 233.531 68.7656C233.016 69.026 232.446 69.1562 231.821 69.1562C231.175 69.1562 230.612 69.0469 230.133 68.8281C229.654 68.6042 229.255 68.2969 228.938 67.9062C228.62 67.5156 228.38 67.0651 228.219 66.5547C228.063 66.0443 227.985 65.4974 227.985 64.9141V64.6406C227.985 64.0573 228.063 63.5104 228.219 63C228.38 62.4844 228.62 62.0312 228.938 61.6406C229.255 61.25 229.654 60.9453 230.133 60.7266C230.612 60.5026 231.172 60.3906 231.813 60.3906C232.49 60.3906 233.084 60.526 233.594 60.7969C234.104 61.0625 234.505 61.4349 234.797 61.9141C235.094 62.388 235.248 62.9401 235.258 63.5703H233.485C233.469 63.2578 233.391 62.9766 233.25 62.7266C233.115 62.4714 232.922 62.2682 232.672 62.1172C232.427 61.9661 232.133 61.8906 231.789 61.8906C231.409 61.8906 231.094 61.9688 230.844 62.125C230.594 62.276 230.399 62.4844 230.258 62.75C230.117 63.0104 230.016 63.3047 229.953 63.6328C229.896 63.9557 229.867 64.2917 229.867 64.6406V64.9141C229.867 65.263 229.896 65.6016 229.953 65.9297C230.011 66.2578 230.11 66.5521 230.25 66.8125C230.396 67.0677 230.594 67.2734 230.844 67.4297C231.094 67.5807 231.412 67.6562 231.797 67.6562ZM240.578 60.5469V61.9219H235.813V60.5469H240.578ZM237.188 58.4766H239.071V66.6641C239.071 66.9245 239.107 67.125 239.18 67.2656C239.258 67.401 239.365 67.4922 239.5 67.5391C239.636 67.5859 239.794 67.6094 239.977 67.6094C240.107 67.6094 240.232 67.6016 240.352 67.5859C240.472 67.5703 240.568 67.5547 240.641 67.5391L240.649 68.9766C240.492 69.0234 240.31 69.0651 240.102 69.1016C239.899 69.138 239.664 69.1562 239.399 69.1562C238.966 69.1562 238.584 69.0807 238.25 68.9297C237.917 68.7734 237.656 68.5208 237.469 68.1719C237.281 67.8229 237.188 67.3594 237.188 66.7812V58.4766ZM244.047 60.5469V69H242.156V60.5469H244.047ZM242.031 58.3281C242.031 58.0417 242.125 57.8047 242.313 57.6172C242.505 57.4245 242.771 57.3281 243.11 57.3281C243.443 57.3281 243.706 57.4245 243.899 57.6172C244.091 57.8047 244.188 58.0417 244.188 58.3281C244.188 58.6094 244.091 58.8438 243.899 59.0312C243.706 59.2188 243.443 59.3125 243.11 59.3125C242.771 59.3125 242.505 59.2188 242.313 59.0312C242.125 58.8438 242.031 58.6094 242.031 58.3281ZM245.75 64.8672V64.6875C245.75 64.0781 245.839 63.513 246.016 62.9922C246.193 62.4661 246.448 62.0104 246.781 61.625C247.12 61.2344 247.531 60.9323 248.016 60.7188C248.505 60.5 249.058 60.3906 249.672 60.3906C250.292 60.3906 250.844 60.5 251.328 60.7188C251.818 60.9323 252.232 61.2344 252.571 61.625C252.909 62.0104 253.167 62.4661 253.344 62.9922C253.521 63.513 253.61 64.0781 253.61 64.6875V64.8672C253.61 65.4766 253.521 66.0417 253.344 66.5625C253.167 67.0833 252.909 67.5391 252.571 67.9297C252.232 68.3151 251.821 68.6172 251.336 68.8359C250.852 69.0495 250.302 69.1562 249.688 69.1562C249.068 69.1562 248.513 69.0495 248.024 68.8359C247.539 68.6172 247.128 68.3151 246.789 67.9297C246.451 67.5391 246.193 67.0833 246.016 66.5625C245.839 66.0417 245.75 65.4766 245.75 64.8672ZM247.633 64.6875V64.8672C247.633 65.2474 247.672 65.6068 247.75 65.9453C247.828 66.2839 247.951 66.5807 248.117 66.8359C248.284 67.0911 248.498 67.2917 248.758 67.4375C249.018 67.5833 249.328 67.6562 249.688 67.6562C250.037 67.6562 250.339 67.5833 250.594 67.4375C250.854 67.2917 251.068 67.0911 251.235 66.8359C251.401 66.5807 251.524 66.2839 251.602 65.9453C251.685 65.6068 251.727 65.2474 251.727 64.8672V64.6875C251.727 64.3125 251.685 63.9583 251.602 63.625C251.524 63.2865 251.399 62.987 251.227 62.7266C251.06 62.4661 250.847 62.263 250.586 62.1172C250.331 61.9661 250.026 61.8906 249.672 61.8906C249.318 61.8906 249.011 61.9661 248.75 62.1172C248.495 62.263 248.284 62.4661 248.117 62.7266C247.951 62.987 247.828 63.2865 247.75 63.625C247.672 63.9583 247.633 64.3125 247.633 64.6875ZM257.055 62.3516V69H255.172V60.5469H256.946L257.055 62.3516ZM256.719 64.4609L256.11 64.4531C256.115 63.8542 256.198 63.3047 256.36 62.8047C256.526 62.3047 256.755 61.875 257.047 61.5156C257.344 61.1562 257.698 60.8802 258.11 60.6875C258.521 60.4896 258.979 60.3906 259.485 60.3906C259.891 60.3906 260.258 60.4479 260.586 60.5625C260.919 60.6719 261.203 60.8516 261.438 61.1016C261.677 61.3516 261.86 61.6771 261.985 62.0781C262.11 62.474 262.172 62.9609 262.172 63.5391V69H260.281V63.5312C260.281 63.125 260.222 62.8047 260.102 62.5703C259.987 62.3307 259.818 62.1615 259.594 62.0625C259.375 61.9583 259.102 61.9062 258.774 61.9062C258.451 61.9062 258.162 61.974 257.906 62.1094C257.651 62.2448 257.435 62.4297 257.258 62.6641C257.086 62.8984 256.953 63.1693 256.86 63.4766C256.766 63.7839 256.719 64.112 256.719 64.4609Z" fill="white"/>
<defs>
<filter id="filter0_d_40_7221" x="0" y="0" width="408" height="89" filterUnits="userSpaceOnUse" color-interpolation-filters="sRGB">
<feFlood flood-opacity="0" result="BackgroundImageFix"/>
<feColorMatrix in="SourceAlpha" type="matrix" values="0 0 0 0 0 0 0 0 0 0 0 0 0 0 0 0 0 0 127 0" result="hardAlpha"/>
<feOffset/>
<feGaussianBlur stdDeviation="2"/>
<feComposite in2="hardAlpha" operator="out"/>
<feColorMatrix type="matrix" values="0 0 0 0 0 0 0 0 0 0 0 0 0 0 0 0 0 0 0.25 0"/>
<feBlend mode="normal" in2="BackgroundImageFix" result="effect1_dropShadow_40_7221"/>
<feBlend mode="normal" in="SourceGraphic" in2="effect1_dropShadow_40_7221" result="shape"/>
</filter>
<linearGradient id="paint0_linear_40_7221" x1="5.04712" y1="6.64953" x2="146.149" y2="237.457" gradientUnits="userSpaceOnUse">
<stop stop-color="#253266"/>
<stop offset="1" stop-color="#5B98B6"/>
</linearGradient>
</defs>
</svg>
