<svg width="24" height="24" viewBox="0 0 24 24" fill="none" xmlns="http://www.w3.org/2000/svg">
<path fill-rule="evenodd" clip-rule="evenodd" d="M16.72 7.71934C16.8606 7.57889 17.0512 7.5 17.25 7.5C17.4488 7.5 17.6394 7.57889 17.78 7.71934L21.53 11.4693C21.6705 11.61 21.7493 11.8006 21.7493 11.9993C21.7493 12.1981 21.6705 12.3887 21.53 12.5293L17.78 16.2793C17.7113 16.353 17.6285 16.4121 17.5365 16.4531C17.4445 16.4941 17.3452 16.5162 17.2445 16.5179C17.1438 16.5197 17.0438 16.5012 16.9504 16.4635C16.857 16.4257 16.7722 16.3696 16.701 16.2984C16.6297 16.2272 16.5736 16.1423 16.5359 16.0489C16.4982 15.9555 16.4796 15.8555 16.4814 15.7548C16.4832 15.6541 16.5052 15.5548 16.5462 15.4628C16.5872 15.3708 16.6463 15.288 16.72 15.2193L19.19 12.7493H3C2.80109 12.7493 2.61032 12.6703 2.46967 12.5297C2.32902 12.389 2.25 12.1983 2.25 11.9993C2.25 11.8004 2.32902 11.6097 2.46967 11.469C2.61032 11.3284 2.80109 11.2493 3 11.2493H19.19L16.72 8.77934C16.5795 8.63871 16.5007 8.44809 16.5007 8.24934C16.5007 8.05059 16.5795 7.85997 16.72 7.71934Z" fill="#1E90FF"/>
</svg>
