<svg width="169" height="27" viewBox="0 0 169 27" fill="none" xmlns="http://www.w3.org/2000/svg">
<rect width="169" height="27" rx="13.5" fill="#1E90FF"/>
<path d="M60.6875 15.3828H62.1875C62.1094 16.1016 61.9036 16.7448 61.5703 17.3125C61.237 17.8802 60.7656 18.3307 60.1562 18.6641C59.5469 18.9922 58.7865 19.1562 57.875 19.1562C57.2083 19.1562 56.6016 19.0312 56.0547 18.7812C55.513 18.5312 55.0469 18.1771 54.6562 17.7188C54.2656 17.2552 53.9635 16.7005 53.75 16.0547C53.5417 15.4036 53.4375 14.6797 53.4375 13.8828V12.75C53.4375 11.9531 53.5417 11.2318 53.75 10.5859C53.9635 9.9349 54.2682 9.3776 54.6641 8.91406C55.0651 8.45052 55.5469 8.09375 56.1094 7.84375C56.6719 7.59375 57.3047 7.46875 58.0078 7.46875C58.8672 7.46875 59.5938 7.63021 60.1875 7.95312C60.7812 8.27604 61.2422 8.72396 61.5703 9.29688C61.9036 9.86458 62.1094 10.5234 62.1875 11.2734H60.6875C60.6146 10.7422 60.4792 10.2865 60.2812 9.90625C60.0833 9.52083 59.8021 9.22396 59.4375 9.01562C59.0729 8.80729 58.5964 8.70312 58.0078 8.70312C57.5026 8.70312 57.0573 8.79948 56.6719 8.99219C56.2917 9.1849 55.9714 9.45833 55.7109 9.8125C55.4557 10.1667 55.263 10.5911 55.1328 11.0859C55.0026 11.5807 54.9375 12.1302 54.9375 12.7344V13.8828C54.9375 14.4401 54.9948 14.9635 55.1094 15.4531C55.2292 15.9427 55.4089 16.3724 55.6484 16.7422C55.888 17.112 56.1927 17.4036 56.5625 17.6172C56.9323 17.8255 57.3698 17.9297 57.875 17.9297C58.5156 17.9297 59.026 17.8281 59.4062 17.625C59.7865 17.4219 60.0729 17.1302 60.2656 16.75C60.4635 16.3698 60.6042 15.9141 60.6875 15.3828ZM69.0078 17.5547V13.2031C69.0078 12.8698 68.9401 12.5807 68.8047 12.3359C68.6745 12.0859 68.4766 11.8932 68.2109 11.7578C67.9453 11.6224 67.6172 11.5547 67.2266 11.5547C66.862 11.5547 66.5417 11.6172 66.2656 11.7422C65.9948 11.8672 65.7812 12.0312 65.625 12.2344C65.474 12.4375 65.3984 12.6562 65.3984 12.8906H63.9531C63.9531 12.5885 64.0312 12.2891 64.1875 11.9922C64.3438 11.6953 64.5677 11.4271 64.8594 11.1875C65.1562 10.9427 65.5104 10.75 65.9219 10.6094C66.3385 10.4635 66.8021 10.3906 67.3125 10.3906C67.9271 10.3906 68.4688 10.4948 68.9375 10.7031C69.4115 10.9115 69.7812 11.2266 70.0469 11.6484C70.3177 12.0651 70.4531 12.5885 70.4531 13.2188V17.1562C70.4531 17.4375 70.4766 17.737 70.5234 18.0547C70.5755 18.3724 70.651 18.6458 70.75 18.875V19H69.2422C69.1693 18.8333 69.112 18.612 69.0703 18.3359C69.0286 18.0547 69.0078 17.7943 69.0078 17.5547ZM69.2578 13.875L69.2734 14.8906H67.8125C67.401 14.8906 67.0339 14.9245 66.7109 14.9922C66.388 15.0547 66.1172 15.151 65.8984 15.2812C65.6797 15.4115 65.513 15.5755 65.3984 15.7734C65.2839 15.9661 65.2266 16.1927 65.2266 16.4531C65.2266 16.7188 65.2865 16.9609 65.4062 17.1797C65.526 17.3984 65.7057 17.5729 65.9453 17.7031C66.1901 17.8281 66.4896 17.8906 66.8438 17.8906C67.2865 17.8906 67.6771 17.7969 68.0156 17.6094C68.3542 17.4219 68.6224 17.1927 68.8203 16.9219C69.0234 16.651 69.1328 16.388 69.1484 16.1328L69.7656 16.8281C69.7292 17.0469 69.6302 17.2891 69.4688 17.5547C69.3073 17.8203 69.0911 18.0755 68.8203 18.3203C68.5547 18.5599 68.237 18.7604 67.8672 18.9219C67.5026 19.0781 67.0911 19.1562 66.6328 19.1562C66.0599 19.1562 65.5573 19.0443 65.125 18.8203C64.6979 18.5964 64.3646 18.2969 64.125 17.9219C63.8906 17.5417 63.7734 17.1172 63.7734 16.6484C63.7734 16.1953 63.862 15.7969 64.0391 15.4531C64.2161 15.1042 64.4714 14.8151 64.8047 14.5859C65.138 14.3516 65.5391 14.1745 66.0078 14.0547C66.4766 13.9349 67 13.875 67.5781 13.875H69.2578ZM74.2969 7V19H72.8438V7H74.2969ZM78.1875 7V19H76.7344V7H78.1875ZM93.4453 7.625V19H91.9297L86.2031 10.2266V19H84.6953V7.625H86.2031L91.9531 16.4219V7.625H93.4453ZM95.5156 14.8672V14.6875C95.5156 14.0781 95.6042 13.513 95.7812 12.9922C95.9583 12.4661 96.2135 12.0104 96.5469 11.625C96.8802 11.2344 97.2839 10.9323 97.7578 10.7188C98.2318 10.5 98.763 10.3906 99.3516 10.3906C99.9453 10.3906 100.479 10.5 100.953 10.7188C101.432 10.9323 101.839 11.2344 102.172 11.625C102.51 12.0104 102.768 12.4661 102.945 12.9922C103.122 13.513 103.211 14.0781 103.211 14.6875V14.8672C103.211 15.4766 103.122 16.0417 102.945 16.5625C102.768 17.0833 102.51 17.5391 102.172 17.9297C101.839 18.3151 101.435 18.6172 100.961 18.8359C100.492 19.0495 99.9609 19.1562 99.3672 19.1562C98.7734 19.1562 98.2396 19.0495 97.7656 18.8359C97.2917 18.6172 96.8854 18.3151 96.5469 17.9297C96.2135 17.5391 95.9583 17.0833 95.7812 16.5625C95.6042 16.0417 95.5156 15.4766 95.5156 14.8672ZM96.9609 14.6875V14.8672C96.9609 15.2891 97.0104 15.6875 97.1094 16.0625C97.2083 16.4323 97.3568 16.7604 97.5547 17.0469C97.7578 17.3333 98.0104 17.5599 98.3125 17.7266C98.6146 17.888 98.9661 17.9688 99.3672 17.9688C99.763 17.9688 100.109 17.888 100.406 17.7266C100.708 17.5599 100.958 17.3333 101.156 17.0469C101.354 16.7604 101.503 16.4323 101.602 16.0625C101.706 15.6875 101.758 15.2891 101.758 14.8672V14.6875C101.758 14.2708 101.706 13.8776 101.602 13.5078C101.503 13.1328 101.352 12.8021 101.148 12.5156C100.951 12.224 100.701 11.9948 100.398 11.8281C100.102 11.6615 99.7526 11.5781 99.3516 11.5781C98.9557 11.5781 98.6068 11.6615 98.3047 11.8281C98.0078 11.9948 97.7578 12.224 97.5547 12.5156C97.3568 12.8021 97.2083 13.1328 97.1094 13.5078C97.0104 13.8776 96.9609 14.2708 96.9609 14.6875ZM107.164 17.5L109.336 10.5469H110.289L110.102 11.9297L107.891 19H106.961L107.164 17.5ZM105.703 10.5469L107.555 17.5781L107.688 19H106.711L104.258 10.5469H105.703ZM112.367 17.5234L114.133 10.5469H115.57L113.117 19H112.148L112.367 17.5234ZM110.5 10.5469L112.625 17.3828L112.867 19H111.945L109.672 11.9141L109.484 10.5469H110.5Z" fill="white"/>
<g clip-path="url(#clip0_34_5298)">
<path d="M34.3125 10.9375C34.3125 15.7698 38.2302 19.6875 43.0625 19.6875H44.375C44.7231 19.6875 45.0569 19.5492 45.3031 19.3031C45.5492 19.0569 45.6875 18.7231 45.6875 18.375V17.5747C45.6875 17.2737 45.4828 17.0112 45.1905 16.9383L42.6104 16.2931C42.3537 16.2289 42.0842 16.3252 41.9262 16.5363L41.3603 17.2906C41.1958 17.5099 40.9117 17.6067 40.6545 17.5122C39.6995 17.1612 38.8323 16.6067 38.1128 15.8872C37.3933 15.1677 36.8388 14.3005 36.4877 13.3455C36.3932 13.0882 36.4901 12.8042 36.7094 12.6397L37.4637 12.0738C37.6754 11.9157 37.7711 11.6457 37.7069 11.3896L37.0617 8.8095C37.0262 8.66757 36.9443 8.54158 36.829 8.45153C36.7137 8.36148 36.5716 8.31255 36.4253 8.3125H35.625C35.2769 8.3125 34.9431 8.45078 34.6969 8.69692C34.4508 8.94306 34.3125 9.2769 34.3125 9.625V10.9375Z" stroke="white" stroke-width="1.5" stroke-linecap="round" stroke-linejoin="round"/>
</g>
<defs>
<clipPath id="clip0_34_5298">
<rect width="14" height="14" fill="white" transform="translate(33 7)"/>
</clipPath>
</defs>
</svg>
