<svg width="169" height="27" viewBox="0 0 169 27" fill="none" xmlns="http://www.w3.org/2000/svg">
<rect width="169" height="27" rx="13.5" fill="#1E90FF"/>
<path d="M58.8828 16.125C58.8828 15.8594 58.8411 15.625 58.7578 15.4219C58.6797 15.2135 58.5391 15.026 58.3359 14.8594C58.138 14.6927 57.862 14.5339 57.5078 14.3828C57.1589 14.2318 56.7161 14.0781 56.1797 13.9219C55.6172 13.7552 55.1094 13.5703 54.6562 13.3672C54.2031 13.1589 53.8151 12.9219 53.4922 12.6562C53.1693 12.3906 52.9219 12.0859 52.75 11.7422C52.5781 11.3984 52.4922 11.0052 52.4922 10.5625C52.4922 10.1198 52.5833 9.71094 52.7656 9.33594C52.9479 8.96094 53.2083 8.63542 53.5469 8.35938C53.8906 8.07812 54.2995 7.85938 54.7734 7.70312C55.2474 7.54688 55.776 7.46875 56.3594 7.46875C57.2135 7.46875 57.9375 7.63281 58.5312 7.96094C59.1302 8.28385 59.5859 8.70833 59.8984 9.23438C60.2109 9.75521 60.3672 10.3125 60.3672 10.9062H58.8672C58.8672 10.4792 58.776 10.1016 58.5938 9.77344C58.4115 9.4401 58.1354 9.17969 57.7656 8.99219C57.3958 8.79948 56.9271 8.70312 56.3594 8.70312C55.8229 8.70312 55.3802 8.78385 55.0312 8.94531C54.6823 9.10677 54.4219 9.32552 54.25 9.60156C54.0833 9.8776 54 10.1927 54 10.5469C54 10.7865 54.0495 11.0052 54.1484 11.2031C54.2526 11.3958 54.4115 11.5755 54.625 11.7422C54.8438 11.9089 55.1198 12.0625 55.4531 12.2031C55.7917 12.3438 56.1953 12.4792 56.6641 12.6094C57.3099 12.7917 57.8672 12.9948 58.3359 13.2188C58.8047 13.4427 59.1901 13.6953 59.4922 13.9766C59.7995 14.2526 60.026 14.5677 60.1719 14.9219C60.3229 15.2708 60.3984 15.6667 60.3984 16.1094C60.3984 16.5729 60.3047 16.9922 60.1172 17.3672C59.9297 17.7422 59.6615 18.0625 59.3125 18.3281C58.9635 18.5938 58.5443 18.7995 58.0547 18.9453C57.5703 19.0859 57.0286 19.1562 56.4297 19.1562C55.9036 19.1562 55.3854 19.0833 54.875 18.9375C54.3698 18.7917 53.9089 18.5729 53.4922 18.2812C53.0807 17.9896 52.75 17.6302 52.5 17.2031C52.2552 16.7708 52.1328 16.2708 52.1328 15.7031H53.6328C53.6328 16.0938 53.7083 16.4297 53.8594 16.7109C54.0104 16.987 54.2161 17.2161 54.4766 17.3984C54.7422 17.5807 55.0417 17.7161 55.375 17.8047C55.7135 17.888 56.0651 17.9297 56.4297 17.9297C56.9557 17.9297 57.401 17.8568 57.7656 17.7109C58.1302 17.5651 58.4062 17.3568 58.5938 17.0859C58.7865 16.8151 58.8828 16.4948 58.8828 16.125ZM65.4844 17.9688C65.8281 17.9688 66.1458 17.8984 66.4375 17.7578C66.7292 17.6172 66.9688 17.4245 67.1562 17.1797C67.3438 16.9297 67.4505 16.6458 67.4766 16.3281H68.8516C68.8255 16.8281 68.6562 17.2943 68.3438 17.7266C68.0365 18.1536 67.6328 18.5 67.1328 18.7656C66.6328 19.026 66.0833 19.1562 65.4844 19.1562C64.849 19.1562 64.2943 19.0443 63.8203 18.8203C63.3516 18.5964 62.9609 18.2891 62.6484 17.8984C62.3411 17.5078 62.1094 17.0599 61.9531 16.5547C61.8021 16.0443 61.7266 15.5052 61.7266 14.9375V14.6094C61.7266 14.0417 61.8021 13.5052 61.9531 13C62.1094 12.4896 62.3411 12.0391 62.6484 11.6484C62.9609 11.2578 63.3516 10.9505 63.8203 10.7266C64.2943 10.5026 64.849 10.3906 65.4844 10.3906C66.1458 10.3906 66.724 10.526 67.2188 10.7969C67.7135 11.0625 68.1016 11.4271 68.3828 11.8906C68.6693 12.349 68.8255 12.8698 68.8516 13.4531H67.4766C67.4505 13.1042 67.3516 12.7891 67.1797 12.5078C67.013 12.2266 66.7839 12.0026 66.4922 11.8359C66.2057 11.6641 65.8698 11.5781 65.4844 11.5781C65.0417 11.5781 64.6693 11.6667 64.3672 11.8438C64.0703 12.0156 63.8333 12.25 63.6562 12.5469C63.4844 12.8385 63.3594 13.1641 63.2812 13.5234C63.2083 13.8776 63.1719 14.2396 63.1719 14.6094V14.9375C63.1719 15.3073 63.2083 15.6719 63.2812 16.0312C63.3542 16.3906 63.4766 16.7161 63.6484 17.0078C63.8255 17.2995 64.0625 17.5339 64.3594 17.7109C64.6615 17.8828 65.0365 17.9688 65.4844 17.9688ZM71.9219 7V19H70.4766V7H71.9219ZM71.5781 14.4531L70.9766 14.4297C70.9818 13.8516 71.0677 13.3177 71.2344 12.8281C71.401 12.3333 71.6354 11.9036 71.9375 11.5391C72.2396 11.1745 72.599 10.8932 73.0156 10.6953C73.4375 10.4922 73.9036 10.3906 74.4141 10.3906C74.8307 10.3906 75.2057 10.4479 75.5391 10.5625C75.8724 10.6719 76.1562 10.849 76.3906 11.0938C76.6302 11.3385 76.8125 11.6562 76.9375 12.0469C77.0625 12.4323 77.125 12.9036 77.125 13.4609V19H75.6719V13.4453C75.6719 13.0026 75.6068 12.6484 75.4766 12.3828C75.3464 12.112 75.1562 11.9167 74.9062 11.7969C74.6562 11.6719 74.349 11.6094 73.9844 11.6094C73.625 11.6094 73.2969 11.6849 73 11.8359C72.7083 11.987 72.4557 12.1953 72.2422 12.4609C72.0339 12.7266 71.8698 13.0312 71.75 13.375C71.6354 13.7135 71.5781 14.0729 71.5781 14.4531ZM82.7969 19.1562C82.2083 19.1562 81.6745 19.0573 81.1953 18.8594C80.7214 18.6562 80.3125 18.3724 79.9688 18.0078C79.6302 17.6432 79.3698 17.2109 79.1875 16.7109C79.0052 16.2109 78.9141 15.6641 78.9141 15.0703V14.7422C78.9141 14.0547 79.0156 13.4427 79.2188 12.9062C79.4219 12.3646 79.6979 11.9062 80.0469 11.5312C80.3958 11.1562 80.7917 10.8724 81.2344 10.6797C81.6771 10.487 82.1354 10.3906 82.6094 10.3906C83.2135 10.3906 83.7344 10.4948 84.1719 10.7031C84.6146 10.9115 84.9766 11.2031 85.2578 11.5781C85.5391 11.9479 85.7474 12.3854 85.8828 12.8906C86.0182 13.3906 86.0859 13.9375 86.0859 14.5312V15.1797H79.7734V14H84.6406V13.8906C84.6198 13.5156 84.5417 13.151 84.4062 12.7969C84.276 12.4427 84.0677 12.151 83.7812 11.9219C83.4948 11.6927 83.1042 11.5781 82.6094 11.5781C82.2812 11.5781 81.9792 11.6484 81.7031 11.7891C81.4271 11.9245 81.1901 12.1276 80.9922 12.3984C80.7943 12.6693 80.6406 13 80.5312 13.3906C80.4219 13.7812 80.3672 14.2318 80.3672 14.7422V15.0703C80.3672 15.4714 80.4219 15.849 80.5312 16.2031C80.6458 16.5521 80.8099 16.8594 81.0234 17.125C81.2422 17.3906 81.5052 17.599 81.8125 17.75C82.125 17.901 82.4792 17.9766 82.875 17.9766C83.3854 17.9766 83.8177 17.8724 84.1719 17.6641C84.526 17.4557 84.8359 17.1771 85.1016 16.8281L85.9766 17.5234C85.7943 17.7995 85.5625 18.0625 85.2812 18.3125C85 18.5625 84.6536 18.7656 84.2422 18.9219C83.8359 19.0781 83.3542 19.1562 82.7969 19.1562ZM93.1016 17.3594V7H94.5547V19H93.2266L93.1016 17.3594ZM87.4141 14.8672V14.7031C87.4141 14.0573 87.4922 13.4714 87.6484 12.9453C87.8099 12.4141 88.0365 11.9583 88.3281 11.5781C88.625 11.1979 88.9766 10.9062 89.3828 10.7031C89.7943 10.4948 90.2526 10.3906 90.7578 10.3906C91.2891 10.3906 91.7526 10.4844 92.1484 10.6719C92.5495 10.8542 92.888 11.1224 93.1641 11.4766C93.4453 11.8255 93.6667 12.2474 93.8281 12.7422C93.9896 13.237 94.1016 13.7969 94.1641 14.4219V15.1406C94.1068 15.7604 93.9948 16.3177 93.8281 16.8125C93.6667 17.3073 93.4453 17.7292 93.1641 18.0781C92.888 18.4271 92.5495 18.6953 92.1484 18.8828C91.7474 19.0651 91.2786 19.1562 90.7422 19.1562C90.2474 19.1562 89.7943 19.0495 89.3828 18.8359C88.9766 18.6224 88.625 18.3229 88.3281 17.9375C88.0365 17.5521 87.8099 17.099 87.6484 16.5781C87.4922 16.0521 87.4141 15.4818 87.4141 14.8672ZM88.8672 14.7031V14.8672C88.8672 15.2891 88.9089 15.6849 88.9922 16.0547C89.0807 16.4245 89.2161 16.75 89.3984 17.0312C89.5807 17.3125 89.8125 17.5339 90.0938 17.6953C90.375 17.8516 90.7109 17.9297 91.1016 17.9297C91.5807 17.9297 91.974 17.8281 92.2812 17.625C92.5938 17.4219 92.8438 17.1536 93.0312 16.8203C93.2188 16.487 93.3646 16.125 93.4688 15.7344V13.8516C93.4062 13.5651 93.3151 13.2891 93.1953 13.0234C93.0807 12.7526 92.9297 12.513 92.7422 12.3047C92.5599 12.0911 92.3333 11.9219 92.0625 11.7969C91.7969 11.6719 91.4818 11.6094 91.1172 11.6094C90.7214 11.6094 90.3802 11.6927 90.0938 11.8594C89.8125 12.0208 89.5807 12.2448 89.3984 12.5312C89.2161 12.8125 89.0807 13.1406 88.9922 13.5156C88.9089 13.8854 88.8672 14.2812 88.8672 14.7031ZM101.977 17.0469V10.5469H103.43V19H102.047L101.977 17.0469ZM102.25 15.2656L102.852 15.25C102.852 15.8125 102.792 16.3333 102.672 16.8125C102.557 17.2865 102.37 17.6979 102.109 18.0469C101.849 18.3958 101.508 18.6693 101.086 18.8672C100.664 19.0599 100.151 19.1562 99.5469 19.1562C99.1354 19.1562 98.7578 19.0964 98.4141 18.9766C98.0755 18.8568 97.7839 18.6719 97.5391 18.4219C97.2943 18.1719 97.1042 17.8464 96.9688 17.4453C96.8385 17.0443 96.7734 16.5625 96.7734 16V10.5469H98.2188V16.0156C98.2188 16.3958 98.2604 16.7109 98.3438 16.9609C98.4323 17.2057 98.5495 17.401 98.6953 17.5469C98.8464 17.6875 99.013 17.7865 99.1953 17.8438C99.3828 17.901 99.5755 17.9297 99.7734 17.9297C100.388 17.9297 100.875 17.8125 101.234 17.5781C101.594 17.3385 101.852 17.0182 102.008 16.6172C102.169 16.2109 102.25 15.7604 102.25 15.2656ZM107.203 7V19H105.75V7H107.203ZM113.031 19.1562C112.443 19.1562 111.909 19.0573 111.43 18.8594C110.956 18.6562 110.547 18.3724 110.203 18.0078C109.865 17.6432 109.604 17.2109 109.422 16.7109C109.24 16.2109 109.148 15.6641 109.148 15.0703V14.7422C109.148 14.0547 109.25 13.4427 109.453 12.9062C109.656 12.3646 109.932 11.9062 110.281 11.5312C110.63 11.1562 111.026 10.8724 111.469 10.6797C111.911 10.487 112.37 10.3906 112.844 10.3906C113.448 10.3906 113.969 10.4948 114.406 10.7031C114.849 10.9115 115.211 11.2031 115.492 11.5781C115.773 11.9479 115.982 12.3854 116.117 12.8906C116.253 13.3906 116.32 13.9375 116.32 14.5312V15.1797H110.008V14H114.875V13.8906C114.854 13.5156 114.776 13.151 114.641 12.7969C114.51 12.4427 114.302 12.151 114.016 11.9219C113.729 11.6927 113.339 11.5781 112.844 11.5781C112.516 11.5781 112.214 11.6484 111.938 11.7891C111.661 11.9245 111.424 12.1276 111.227 12.3984C111.029 12.6693 110.875 13 110.766 13.3906C110.656 13.7812 110.602 14.2318 110.602 14.7422V15.0703C110.602 15.4714 110.656 15.849 110.766 16.2031C110.88 16.5521 111.044 16.8594 111.258 17.125C111.477 17.3906 111.74 17.599 112.047 17.75C112.359 17.901 112.714 17.9766 113.109 17.9766C113.62 17.9766 114.052 17.8724 114.406 17.6641C114.76 17.4557 115.07 17.1771 115.336 16.8281L116.211 17.5234C116.029 17.7995 115.797 18.0625 115.516 18.3125C115.234 18.5625 114.888 18.7656 114.477 18.9219C114.07 19.0781 113.589 19.1562 113.031 19.1562Z" fill="white"/>
<path d="M34.5 7.5V9M41.5 7.5V9M32 18V10.5C32 10.1022 32.158 9.72064 32.4393 9.43934C32.7206 9.15804 33.1022 9 33.5 9H42.5C42.8978 9 43.2794 9.15804 43.5607 9.43934C43.842 9.72064 44 10.1022 44 10.5V18M32 18C32 18.3978 32.158 18.7794 32.4393 19.0607C32.7206 19.342 33.1022 19.5 33.5 19.5H42.5C42.8978 19.5 43.2794 19.342 43.5607 19.0607C43.842 18.7794 44 18.3978 44 18M32 18V13C32 12.6022 32.158 12.2206 32.4393 11.9393C32.7206 11.658 33.1022 11.5 33.5 11.5H42.5C42.8978 11.5 43.2794 11.658 43.5607 11.9393C43.842 12.2206 44 12.6022 44 13V18" stroke="white" stroke-width="1.5" stroke-linecap="round" stroke-linejoin="round"/>
</svg>
