<svg width="16" height="15" viewBox="0 0 16 15" fill="none" xmlns="http://www.w3.org/2000/svg">
<path d="M7.19701 0.51139C7.23226 0.425416 7.29228 0.351869 7.36944 0.300106C7.44661 0.248343 7.53743 0.220703 7.63034 0.220703C7.72326 0.220703 7.81408 0.248343 7.89125 0.300106C7.96841 0.351869 8.02843 0.425416 8.06368 0.51139L9.83451 4.77056C9.86766 4.85025 9.92215 4.91926 9.99199 4.96998C10.0618 5.02071 10.1443 5.05118 10.2303 5.05806L14.8287 5.42639C15.2445 5.45972 15.4128 5.97889 15.0962 6.24972L11.5928 9.25139C11.5274 9.30738 11.4786 9.38031 11.4519 9.46219C11.4251 9.54406 11.4214 9.63172 11.4412 9.71556L12.512 14.2031C12.5335 14.2931 12.5279 14.3875 12.4958 14.4743C12.4637 14.5611 12.4066 14.6365 12.3317 14.6909C12.2568 14.7453 12.1675 14.7763 12.075 14.7799C11.9825 14.7836 11.891 14.7597 11.812 14.7114L7.87451 12.3072C7.80099 12.2623 7.7165 12.2385 7.63034 12.2385C7.54419 12.2385 7.4597 12.2623 7.38618 12.3072L3.44868 14.7122C3.36973 14.7606 3.27822 14.7844 3.18573 14.7808C3.09323 14.7771 3.00389 14.7461 2.92898 14.6917C2.85408 14.6373 2.79698 14.562 2.76489 14.4751C2.7328 14.3883 2.72716 14.2939 2.74868 14.2039L3.81951 9.71556C3.83937 9.63172 3.83572 9.54404 3.80896 9.46214C3.7822 9.38025 3.73337 9.30733 3.66784 9.25139L0.164512 6.24972C0.093964 6.18959 0.0428506 6.10986 0.0176447 6.02065C-0.00756115 5.93145 -0.00572549 5.83676 0.0229192 5.7486C0.0515638 5.66043 0.105729 5.58275 0.178554 5.52539C0.25138 5.46804 0.339589 5.43358 0.432012 5.42639L5.03034 5.05806C5.11639 5.05118 5.19886 5.02071 5.2687 4.96998C5.33854 4.91926 5.39303 4.85025 5.42618 4.77056L7.19701 0.51139Z" fill="#FACC15"/>
</svg>
