<svg width="16" height="16" viewBox="0 0 16 16" fill="none" xmlns="http://www.w3.org/2000/svg">
<path d="M7.23998 1.01139C7.27523 0.925416 7.33525 0.851869 7.41241 0.800106C7.48958 0.748343 7.5804 0.720703 7.67331 0.720703C7.76623 0.720703 7.85705 0.748343 7.93421 0.800106C8.01138 0.851869 8.0714 0.925416 8.10665 1.01139L9.87748 5.27056C9.91063 5.35025 9.96512 5.41926 10.035 5.46998C10.1048 5.52071 10.1873 5.55118 10.2733 5.55806L14.8716 5.92639C15.2875 5.95972 15.4558 6.47889 15.1391 6.74972L11.6358 9.75139C11.5704 9.80738 11.5216 9.88031 11.4948 9.96219C11.4681 10.0441 11.4644 10.1317 11.4841 10.2156L12.555 14.7031C12.5765 14.7931 12.5709 14.8875 12.5388 14.9743C12.5067 15.0611 12.4496 15.1365 12.3747 15.1909C12.2998 15.2453 12.2104 15.2763 12.1179 15.2799C12.0254 15.2836 11.9339 15.2597 11.855 15.2114L7.91748 12.8072C7.84396 12.7623 7.75947 12.7385 7.67331 12.7385C7.58716 12.7385 7.50267 12.7623 7.42915 12.8072L3.49165 15.2122C3.41269 15.2606 3.32119 15.2844 3.22869 15.2808C3.1362 15.2771 3.04686 15.2461 2.97195 15.1917C2.89705 15.1373 2.83995 15.062 2.80786 14.9751C2.77577 14.8883 2.77012 14.7939 2.79165 14.7039L3.86248 10.2156C3.88234 10.1317 3.87869 10.044 3.85193 9.96214C3.82517 9.88025 3.77634 9.80733 3.71081 9.75139L0.20748 6.74972C0.136933 6.68959 0.0858194 6.60986 0.0606135 6.52065C0.0354076 6.43145 0.0372433 6.33676 0.0658879 6.2486C0.0945326 6.16043 0.148698 6.08275 0.221523 6.02539C0.294348 5.96804 0.382558 5.93358 0.47498 5.92639L5.07331 5.55806C5.15935 5.55118 5.24183 5.52071 5.31167 5.46998C5.38151 5.41926 5.436 5.35025 5.46915 5.27056L7.23998 1.01139Z" fill="#FACC15"/>
</svg>
