<svg width="24" height="24" viewBox="0 0 24 24" fill="none" xmlns="http://www.w3.org/2000/svg">
<path fill-rule="evenodd" clip-rule="evenodd" d="M11.0293 3.96934C11.1698 4.10997 11.2487 4.30059 11.2487 4.49934C11.2487 4.69809 11.1698 4.88871 11.0293 5.02934L4.80934 11.2493H20.9993C21.1983 11.2493 21.389 11.3284 21.5297 11.469C21.6703 11.6097 21.7493 11.8004 21.7493 11.9993C21.7493 12.1983 21.6703 12.389 21.5297 12.5297C21.389 12.6703 21.1983 12.7493 20.9993 12.7493H4.80934L11.0293 18.9693C11.103 19.038 11.1621 19.1208 11.2031 19.2128C11.2441 19.3048 11.2662 19.4041 11.2679 19.5048C11.2697 19.6055 11.2512 19.7055 11.2135 19.7989C11.1757 19.8923 11.1196 19.9772 11.0484 20.0484C10.9772 20.1196 10.8923 20.1757 10.7989 20.2135C10.7055 20.2512 10.6055 20.2697 10.5048 20.2679C10.4041 20.2662 10.3048 20.2441 10.2128 20.2031C10.1208 20.1621 10.038 20.103 9.96934 20.0293L2.46934 12.5293C2.32889 12.3887 2.25 12.1981 2.25 11.9993C2.25 11.8006 2.32889 11.61 2.46934 11.4693L9.96934 3.96934C10.11 3.82889 10.3006 3.75 10.4993 3.75C10.6981 3.75 10.8887 3.82889 11.0293 3.96934Z" fill="#253240"/>
</svg>
