<svg width="41" height="41" viewBox="0 0 41 41" fill="none" xmlns="http://www.w3.org/2000/svg">
<circle cx="20.5" cy="20.5" r="20.5" fill="#1E90FF"/>
<g clip-path="url(#clip0_255_90)">
<path d="M12.6875 17.0625C12.6875 23.2755 17.7245 28.3125 23.9375 28.3125H25.625C26.0726 28.3125 26.5018 28.1347 26.8182 27.8182C27.1347 27.5018 27.3125 27.0726 27.3125 26.625V25.596C27.3125 25.209 27.0493 24.8715 26.6735 24.7778L23.3563 23.9482C23.0263 23.8657 22.6798 23.9895 22.4765 24.261L21.749 25.2308C21.5375 25.5128 21.1722 25.6372 20.8415 25.5157C19.6137 25.0643 18.4986 24.3514 17.5736 23.4264C16.6486 22.5014 15.9357 21.3863 15.4843 20.1585C15.3628 19.8278 15.4873 19.4625 15.7693 19.251L16.739 18.5235C17.0112 18.3202 17.1343 17.973 17.0518 17.6438L16.2222 14.3265C16.1766 14.144 16.0713 13.982 15.923 13.8663C15.7748 13.7505 15.5921 13.6876 15.404 13.6875H14.375C13.9274 13.6875 13.4982 13.8653 13.1818 14.1818C12.8653 14.4982 12.6875 14.9274 12.6875 15.375V17.0625Z" stroke="white" stroke-width="1.5" stroke-linecap="round" stroke-linejoin="round"/>
</g>
<defs>
<clipPath id="clip0_255_90">
<rect width="18" height="18" fill="white" transform="translate(11 12)"/>
</clipPath>
</defs>
</svg>
