<svg width="41" height="41" viewBox="0 0 41 41" fill="none" xmlns="http://www.w3.org/2000/svg">
<circle cx="20.5" cy="20.5" r="20.5" fill="#1E90FF"/>
<path d="M25.8828 15.4619H13.4213C13.1459 15.4619 12.8817 15.5786 12.687 15.7863C12.4922 15.9941 12.3828 16.2758 12.3828 16.5696V25.4311C12.3828 25.7249 12.4922 26.0067 12.687 26.2144C12.8817 26.4221 13.1459 26.5388 13.4213 26.5388H25.8828C26.1582 26.5388 26.4224 26.4221 26.6171 26.2144C26.8119 26.0067 26.9213 25.7249 26.9213 25.4311V16.5696C26.9213 16.2758 26.8119 15.9941 26.6171 15.7863C26.4224 15.5786 26.1582 15.4619 25.8828 15.4619ZM24.7405 16.5696L19.652 20.3247L14.5636 16.5696H24.7405ZM13.4213 25.4311V17.0736L19.3561 21.4545C19.443 21.5188 19.5463 21.5533 19.652 21.5533C19.7578 21.5533 19.8611 21.5188 19.948 21.4545L25.8828 17.0736V25.4311H13.4213Z" fill="white"/>
</svg>
