<svg width="24" height="24" viewBox="0 0 24 24" fill="none" xmlns="http://www.w3.org/2000/svg">
<g clip-path="url(#clip0_70_678)">
<path d="M4 15C5.65685 15 7 13.6569 7 12C7 10.3431 5.65685 9 4 9C2.34315 9 1 10.3431 1 12C1 13.6569 2.34315 15 4 15Z" fill="black"/>
<path d="M12 15C13.6569 15 15 13.6569 15 12C15 10.3431 13.6569 9 12 9C10.3431 9 9 10.3431 9 12C9 13.6569 10.3431 15 12 15Z" fill="black"/>
<path d="M20 15C21.6569 15 23 13.6569 23 12C23 10.3431 21.6569 9 20 9C18.3431 9 17 10.3431 17 12C17 13.6569 18.3431 15 20 15Z" fill="black"/>
</g>
<defs>
<clipPath id="clip0_70_678">
<rect width="24" height="24" fill="white"/>
</clipPath>
</defs>
</svg>
