<svg width="21" height="20" viewBox="0 0 21 20" fill="none" xmlns="http://www.w3.org/2000/svg">
<g clip-path="url(#clip0_59_101)">
<path d="M7.17322 5L8.42322 2.5H13.4232L14.6732 5H7.17322Z" stroke="#AAAAAA" stroke-width="2" stroke-linejoin="round"/>
<path d="M18.0065 5H3.83984C3.14949 5 2.58984 5.55964 2.58984 6.25V16.25C2.58984 16.9404 3.14949 17.5 3.83984 17.5H18.0065C18.6969 17.5 19.2565 16.9404 19.2565 16.25V6.25C19.2565 5.55964 18.6969 5 18.0065 5Z" stroke="#AAAAAA" stroke-width="2" stroke-linejoin="round"/>
<path d="M10.9232 14.5837C11.8072 14.5837 12.6551 14.2325 13.2802 13.6073C13.9053 12.9822 14.2565 12.1344 14.2565 11.2503C14.2565 10.3663 13.9053 9.51842 13.2802 8.8933C12.6551 8.26818 11.8072 7.91699 10.9232 7.91699C10.0391 7.91699 9.19128 8.26818 8.56615 8.8933C7.94103 9.51842 7.58984 10.3663 7.58984 11.2503C7.58984 12.1344 7.94103 12.9822 8.56615 13.6073C9.19128 14.2325 10.0391 14.5837 10.9232 14.5837Z" fill="#AAAAAA"/>
</g>
<defs>
<clipPath id="clip0_59_101">
<rect width="20" height="20" fill="white" transform="translate(0.923218)"/>
</clipPath>
</defs>
</svg>
