<svg width="43" height="43" viewBox="0 0 43 43" fill="none" xmlns="http://www.w3.org/2000/svg">
<circle cx="21.3043" cy="21.3043" r="21.3043" fill="url(#paint0_linear_113_10704)"/>
<g clip-path="url(#clip0_113_10704)">
<path d="M13.3593 10.0312C13.6818 10.3026 13.852 10.6396 13.8927 11.0568C13.9087 11.4205 13.8822 11.7309 13.6875 12.0469C13.6623 12.0952 13.6372 12.1436 13.6113 12.1934C13.3726 12.4824 13.1186 12.6417 12.75 12.7031C12.7654 13.6158 12.7809 14.5284 12.7968 15.4688C12.936 15.2522 13.0753 15.0356 13.2187 14.8125C14.5821 13.023 16.4492 11.9517 18.6755 11.6389C19.0489 11.5962 19.4263 11.605 19.8015 11.6063C19.8959 11.6062 19.9903 11.6061 20.0847 11.6059C20.2812 11.6057 20.4776 11.606 20.6741 11.6067C20.9233 11.6075 21.1724 11.607 21.4216 11.6062C21.6161 11.6057 21.8107 11.6058 22.0052 11.6062C22.097 11.6063 22.1887 11.6062 22.2805 11.6058C23.0543 11.6036 23.807 11.6716 24.5507 11.8975C24.5918 11.9097 24.6328 11.9218 24.6751 11.9344C26.6502 12.534 28.0967 13.7478 29.2031 15.4688C29.2185 14.5561 29.234 13.6434 29.25 12.7031C29.1571 12.6877 29.0643 12.6722 28.9687 12.6562C28.5829 12.4586 28.3276 12.1747 28.1656 11.7753C28.0572 11.3746 28.0691 10.8833 28.2511 10.5081C28.485 10.1199 28.7738 9.90202 29.2031 9.75C29.7084 9.64324 30.1174 9.72133 30.5487 9.99884C30.8517 10.2224 31.0399 10.5069 31.125 10.875C31.1664 11.2958 31.1656 11.6767 30.9375 12.0469C30.9123 12.0952 30.8872 12.1436 30.8613 12.1934C30.6225 12.4824 30.3686 12.6417 30 12.7031C30 14.0798 30 15.4566 30 16.875C30.4795 16.875 30.959 16.875 31.4531 16.875C31.8773 17.0871 31.8773 17.0871 32.0097 17.2471C32.0357 17.2775 32.0617 17.3079 32.0885 17.3392C32.2484 17.5713 32.2639 17.7868 32.2636 18.0626C32.2639 18.1013 32.2642 18.1401 32.2645 18.18C32.2654 18.3078 32.2656 18.4356 32.2657 18.5634C32.266 18.6526 32.2663 18.7417 32.2666 18.8309C32.2672 19.0177 32.2674 19.2045 32.2673 19.3913C32.2673 19.6301 32.2686 19.8689 32.2702 20.1076C32.2713 20.2918 32.2714 20.4759 32.2714 20.6601C32.2715 20.7481 32.2719 20.8361 32.2726 20.9241C32.2736 21.0475 32.2733 21.1708 32.2727 21.2942C32.2733 21.3302 32.2738 21.3662 32.2743 21.4032C32.2708 21.7115 32.1725 21.9528 31.9687 22.1849C31.9378 22.2106 31.9068 22.2362 31.875 22.2627C31.844 22.2892 31.8131 22.3157 31.7812 22.3431C31.685 22.4079 31.6119 22.4283 31.5 22.4531C31.5007 22.4846 31.5014 22.5161 31.5022 22.5485C31.5501 24.9379 31.1418 27.5114 29.4431 29.3125C28.8377 29.934 28.0751 30.4424 27.2402 30.6943C27.1297 30.7304 27.1297 30.7304 27.0468 30.7969C27.0014 30.9237 26.9879 31.0403 26.9749 31.1743C26.9222 31.5086 26.697 31.8004 26.4327 32.0041C26.0384 32.2629 25.6043 32.3514 25.1367 32.2676C24.6906 32.1472 24.3864 31.8422 24.1459 31.4606C23.9646 31.1088 23.9376 30.7214 24.0322 30.3382C24.2099 29.859 24.4785 29.567 24.9375 29.3438C25.3185 29.194 25.7067 29.2132 26.0912 29.3417C26.3968 29.4753 26.6131 29.6914 26.8125 29.9531C28.1461 29.4987 29.1494 28.6298 29.7759 27.3619C30.5056 25.8316 30.6201 24.1663 30.7031 22.5C30.4556 22.5 30.2081 22.5 29.9531 22.5C29.9511 22.5812 29.9492 22.6624 29.9472 22.7461C29.8612 23.8059 29.3509 24.8689 28.6875 25.6875C28.6651 25.7153 28.6427 25.7432 28.6197 25.7719C27.4907 27.1641 25.915 28.003 24.1364 28.1948C23.7322 28.2321 23.3273 28.2268 22.9218 28.2188C22.9067 28.2556 22.9067 28.2556 22.8913 28.2933C22.8033 28.4506 22.6858 28.5793 22.5673 28.7139C22.516 28.773 22.4646 28.8321 22.4133 28.8913C22.3881 28.9204 22.3628 28.9496 22.3368 28.9796C22.2407 29.0915 22.1475 29.2057 22.0546 29.3203C21.8938 29.5185 21.7291 29.7129 21.5625 29.9063C21.36 30.1412 21.1616 30.379 20.9661 30.6198C20.8246 30.7923 20.6803 30.9622 20.5356 31.132C20.3943 31.2982 20.2571 31.4671 20.121 31.6377C19.8609 31.9563 19.6242 32.2215 19.1975 32.2674C18.78 32.2747 18.4795 32.241 18.1618 31.949C17.8893 31.6508 17.8469 31.3874 17.8511 31.001C17.8649 30.7379 17.9123 30.4832 17.9619 30.2249C17.9775 30.1402 17.9775 30.1402 17.9934 30.0539C18.0264 29.8757 18.06 29.6976 18.0937 29.5195C18.1163 29.3979 18.1389 29.2763 18.1615 29.1546C18.2165 28.8582 18.2721 28.5619 18.3281 28.2656C18.1907 28.2198 18.0664 28.2057 17.9228 28.1933C16.2089 28.0388 14.5864 27.2314 13.4707 25.9102C12.9101 25.1937 12.4813 24.4323 12.2109 23.5605C12.1995 23.5244 12.1881 23.4883 12.1763 23.451C12.0857 23.1377 12.0638 22.8248 12.0468 22.5C12.0034 22.501 11.9599 22.502 11.9151 22.503C11.7522 22.5062 11.5894 22.5085 11.4266 22.5103C11.3564 22.5112 11.2862 22.5125 11.216 22.5141C10.7685 22.5243 10.4219 22.5316 10.0667 22.2204C10.0415 22.1899 10.0162 22.1594 9.99019 22.1279C9.96421 22.0975 9.93823 22.0671 9.91146 22.0358C9.75149 21.8037 9.73601 21.5882 9.73634 21.3124C9.73602 21.2737 9.73571 21.2349 9.73538 21.195C9.73449 21.0672 9.73431 20.9394 9.73421 20.8116C9.73391 20.7224 9.73359 20.6333 9.73326 20.5441C9.7327 20.3573 9.73253 20.1705 9.73258 19.9837C9.73259 19.7449 9.73131 19.5061 9.7297 19.2674C9.72865 19.0832 9.72847 18.8991 9.72852 18.7149C9.72841 18.6269 9.72799 18.5389 9.72727 18.4509C9.72634 18.3275 9.72662 18.2042 9.72718 18.0808C9.72666 18.0448 9.72613 18.0088 9.72559 17.9718C9.72913 17.6647 9.82672 17.4232 10.0296 17.1918C10.0601 17.1665 10.0906 17.1413 10.122 17.1152C10.1524 17.0893 10.1828 17.0633 10.2141 17.0365C10.7467 16.6696 11.3273 16.875 12 16.875C12 15.4983 12 14.1216 12 12.7031C11.8607 12.6799 11.8607 12.6799 11.7187 12.6562C11.3329 12.4586 11.0776 12.1747 10.9156 11.7753C10.8072 11.3746 10.8191 10.8833 11.0011 10.5081C11.2362 10.118 11.5269 9.91229 11.9531 9.75C12.4683 9.6367 12.9224 9.74102 13.3593 10.0312ZM11.748 10.8574C11.6447 11.072 11.6345 11.2503 11.6718 11.4844C11.781 11.7112 11.9138 11.8439 12.1406 11.9531C12.3747 11.9905 12.553 11.9803 12.7675 11.877C12.9355 11.7249 13.0591 11.6032 13.096 11.3719C13.108 11.1055 13.0751 10.9383 12.8906 10.7344C12.6866 10.5499 12.5194 10.5169 12.253 10.5289C12.0217 10.5658 11.9 10.6894 11.748 10.8574ZM28.998 10.8574C28.8947 11.072 28.8845 11.2503 28.9218 11.4844C29.031 11.7112 29.1638 11.8439 29.3906 11.9531C29.6247 11.9905 29.803 11.9803 30.0175 11.877C30.1855 11.7249 30.3091 11.6032 30.346 11.3719C30.358 11.1055 30.3251 10.9383 30.1406 10.7344C29.9366 10.5499 29.7694 10.5169 29.503 10.5289C29.2717 10.5658 29.15 10.6894 28.998 10.8574ZM17.9794 12.5684C17.9189 12.5832 17.9189 12.5832 17.8572 12.5984C16.5823 12.9286 15.4606 13.6069 14.5312 14.5312C14.5084 14.5538 14.4856 14.5764 14.4622 14.5997C13.1482 15.9213 12.7437 17.5895 12.7421 19.4066C12.7419 19.4714 12.7418 19.5362 12.7416 19.6009C12.7413 19.7356 12.7412 19.8702 12.7413 20.0048C12.7413 20.1404 12.7409 20.276 12.7403 20.4116C12.7308 22.4566 12.9643 24.2503 14.4492 25.7666C15.6163 26.9181 17.1523 27.4225 18.7689 27.4469C19.0109 27.4538 19.0109 27.4538 19.1108 27.5276C19.2534 27.7185 19.1817 28.006 19.1513 28.2282C19.1228 28.3986 19.0914 28.5682 19.059 28.7379C19.0474 28.8005 19.0359 28.8632 19.0244 28.9258C18.9942 29.0895 18.9636 29.2531 18.9328 29.4167C18.8835 29.6789 18.8346 29.9412 18.7862 30.2035C18.7694 30.2945 18.7521 30.3855 18.7348 30.4764C18.6215 30.9408 18.6215 30.9408 18.7294 31.3799C18.8898 31.4827 18.9848 31.4827 19.1718 31.4531C19.268 31.3772 19.3293 31.312 19.4062 31.2188C19.4725 31.1464 19.539 31.0742 19.6054 31.002C19.7893 30.7965 19.9648 30.5854 20.1383 30.3712C20.2597 30.2225 20.3834 30.0759 20.5078 29.9297C20.6659 29.7436 20.8224 29.5566 20.9765 29.3672C21.1307 29.1778 21.2872 28.9907 21.4453 28.8047C21.7795 28.4111 22.1058 28.0116 22.4236 27.6046C22.5 27.5156 22.5 27.5156 22.5937 27.4688C22.674 27.4632 22.7544 27.4604 22.8349 27.4589C24.6717 27.4139 26.1966 27.0225 27.5625 25.7344C27.5942 25.7057 27.6259 25.677 27.6586 25.6474C28.7374 24.6334 29.1811 23.1874 29.25 21.75C29.2563 21.5176 29.2576 21.2853 29.2578 21.0527C29.258 20.988 29.2581 20.9233 29.2583 20.8586C29.2586 20.7238 29.2587 20.5891 29.2586 20.4544C29.2586 20.3188 29.259 20.1832 29.2596 20.0476C29.2626 19.3973 29.2647 18.748 29.2102 18.0994C29.2068 18.0582 29.2034 18.0171 29.1999 17.9746C29.0502 16.4377 28.1161 14.9994 26.9437 14.0297C25.453 12.8368 23.744 12.3681 21.858 12.3671C21.7885 12.367 21.719 12.3668 21.6495 12.3667C21.5046 12.3664 21.3597 12.3663 21.2148 12.3663C21.0682 12.3663 20.9215 12.366 20.7749 12.3654C19.3668 12.3504 19.3668 12.3504 17.9794 12.5684ZM10.5937 17.7656C10.4838 17.9474 10.4879 18.123 10.4871 18.332C10.4868 18.3645 10.4866 18.397 10.4864 18.4304C10.4857 18.5374 10.4857 18.6443 10.4859 18.7513C10.4857 18.8259 10.4855 18.9006 10.4852 18.9753C10.4849 19.1316 10.4849 19.2879 10.4852 19.4442C10.4854 19.6441 10.4846 19.844 10.4835 20.0439C10.4829 20.198 10.4828 20.3522 10.483 20.5063C10.4829 20.58 10.4827 20.6537 10.4822 20.7274C10.4816 20.8306 10.482 20.9338 10.4825 21.037C10.4825 21.0956 10.4824 21.1542 10.4824 21.2146C10.5021 21.3951 10.5397 21.5055 10.6406 21.6562C11.007 21.8196 11.007 21.8196 12 21.75C12 20.3888 12 19.0275 12 17.625C10.9903 17.5411 10.9903 17.5411 10.5937 17.7656ZM30 17.625C30 18.9862 30 20.3475 30 21.75C31.0097 21.8339 31.0097 21.8339 31.4062 21.6094C31.5161 21.4276 31.5121 21.252 31.5128 21.043C31.5131 21.0105 31.5133 20.978 31.5136 20.9446C31.5142 20.8376 31.5142 20.7307 31.5141 20.6237C31.5142 20.5491 31.5144 20.4744 31.5147 20.3997C31.515 20.2434 31.515 20.0871 31.5148 19.9308C31.5145 19.7309 31.5153 19.531 31.5164 19.3311C31.5171 19.177 31.5171 19.0228 31.5169 18.8687C31.517 18.795 31.5172 18.7213 31.5177 18.6476C31.5183 18.5444 31.5179 18.4412 31.5174 18.338C31.5174 18.2794 31.5175 18.2208 31.5175 18.1604C31.4978 17.9799 31.4602 17.8695 31.3593 17.7188C30.9929 17.5554 30.9929 17.5554 30 17.625ZM24.873 30.3574C24.7697 30.572 24.7595 30.7503 24.7968 30.9844C24.906 31.2112 25.0388 31.3439 25.2656 31.4531C25.4997 31.4905 25.678 31.4803 25.8925 31.377C26.0605 31.225 26.1841 31.1032 26.221 30.872C26.233 30.6055 26.2001 30.4383 26.0156 30.2344C25.8116 30.0499 25.6444 30.0169 25.378 30.0289C25.1467 30.0658 25.025 30.1894 24.873 30.3574Z" fill="white"/>
<path d="M17.0929 14.6113C17.1276 14.6111 17.1622 14.6108 17.1979 14.6106C17.3131 14.6099 17.4283 14.6098 17.5436 14.6098C17.6265 14.6094 17.7095 14.609 17.7924 14.6086C18.0173 14.6076 18.2422 14.6072 18.4672 14.6069C18.6079 14.6068 18.7487 14.6065 18.8895 14.6061C19.3815 14.605 19.8734 14.6044 20.3654 14.6042C20.8226 14.604 21.2798 14.6026 21.737 14.6007C22.1305 14.599 22.5241 14.5983 22.9176 14.5983C23.1522 14.5983 23.3867 14.5979 23.6213 14.5965C23.8423 14.5953 24.0633 14.5952 24.2843 14.5959C24.3649 14.596 24.4455 14.5957 24.5261 14.595C25.2554 14.5886 25.8551 14.7133 26.4375 15.1867C26.4765 15.216 26.5155 15.2454 26.5557 15.2756C26.9686 15.626 27.2758 16.2017 27.375 16.7335C27.3892 16.9466 27.3887 17.1594 27.3886 17.3729C27.3889 17.4376 27.3892 17.5023 27.3895 17.567C27.3904 17.7421 27.3906 17.9173 27.3906 18.0924C27.3907 18.202 27.3909 18.3117 27.3912 18.4213C27.392 18.8046 27.3924 19.1879 27.3923 19.5712C27.3923 19.9273 27.3933 20.2834 27.3947 20.6395C27.396 20.9461 27.3965 21.2528 27.3964 21.5595C27.3964 21.7422 27.3966 21.9249 27.3976 22.1076C27.3986 22.2797 27.3986 22.4518 27.3979 22.6239C27.3977 22.7163 27.3985 22.8087 27.3993 22.901C27.3947 23.562 27.1642 24.2238 26.7099 24.7171C26.2135 25.1782 25.5941 25.5148 24.906 25.5117C24.8713 25.5119 24.8366 25.5121 24.8008 25.5123C24.6852 25.5129 24.5697 25.5129 24.4541 25.5128C24.3709 25.5131 24.2877 25.5134 24.2046 25.5137C23.9791 25.5146 23.7536 25.5148 23.5281 25.5148C23.3871 25.5149 23.246 25.5151 23.1049 25.5154C22.6122 25.5162 22.1195 25.5166 21.6268 25.5165C21.1685 25.5165 20.7101 25.5175 20.2518 25.5189C19.8576 25.5202 19.4633 25.5207 19.0691 25.5206C18.834 25.5206 18.5989 25.5209 18.3637 25.5218C18.1424 25.5228 17.921 25.5228 17.6997 25.5221C17.6188 25.522 17.5379 25.5222 17.4571 25.5228C16.7002 25.5278 15.9819 25.3635 15.407 24.8341C14.8347 24.218 14.6108 23.5742 14.6113 22.7504C14.6111 22.6857 14.6107 22.621 14.6104 22.5563C14.6096 22.3812 14.6093 22.2061 14.6093 22.0309C14.6092 21.9213 14.609 21.8116 14.6088 21.702C14.6079 21.3187 14.6075 20.9354 14.6076 20.5521C14.6076 20.196 14.6067 19.8399 14.6052 19.4838C14.6039 19.1772 14.6034 18.8705 14.6035 18.5639C14.6035 18.3811 14.6033 18.1984 14.6023 18.0157C14.6014 17.8436 14.6014 17.6715 14.602 17.4994C14.6022 17.407 14.6014 17.3147 14.6006 17.2223C14.6052 16.5613 14.8358 15.8995 15.29 15.4062C15.7888 14.9428 16.4031 14.6137 17.0929 14.6113ZM15.7968 16.0773C15.4068 16.6102 15.3679 17.1603 15.3681 17.7992C15.368 17.8532 15.3678 17.9072 15.3677 17.9628C15.3672 18.1407 15.3671 18.3186 15.3671 18.4965C15.367 18.5893 15.3669 18.6821 15.3667 18.7749C15.3664 19.0665 15.3662 19.3582 15.3663 19.6498C15.3663 19.9493 15.3658 20.2488 15.3651 20.5483C15.3644 20.8066 15.3642 21.0649 15.3642 21.3232C15.3642 21.4769 15.3641 21.6307 15.3636 21.7844C15.3631 21.9562 15.3633 22.1281 15.3636 22.2999C15.3633 22.3499 15.363 22.3999 15.3628 22.4514C15.3656 23.1472 15.4868 23.7132 15.973 24.2315C16.5505 24.7577 17.2351 24.7562 17.9721 24.756C18.0451 24.7561 18.1181 24.7563 18.1912 24.7564C18.3888 24.7569 18.5863 24.757 18.7839 24.757C18.9076 24.757 19.0313 24.7571 19.155 24.7573C19.5872 24.7577 20.0195 24.7579 20.4517 24.7578C20.8534 24.7578 21.2552 24.7583 21.6569 24.759C22.0028 24.7597 22.3487 24.7599 22.6945 24.7599C22.9007 24.7599 23.1068 24.76 23.313 24.7605C23.507 24.761 23.7011 24.761 23.8952 24.7606C23.966 24.7606 24.0368 24.7607 24.1076 24.761C24.881 24.7639 25.523 24.6993 26.1073 24.1511C26.589 23.6224 26.6321 23.0057 26.6318 22.3242C26.6319 22.2701 26.6321 22.2161 26.6322 22.1605C26.6327 21.9826 26.6328 21.8047 26.6328 21.6268C26.6329 21.534 26.6331 21.4412 26.6332 21.3484C26.6336 21.0568 26.6337 20.7652 26.6336 20.4735C26.6336 20.174 26.6341 19.8745 26.6348 19.575C26.6355 19.3167 26.6357 19.0584 26.6357 18.8001C26.6357 18.6464 26.6358 18.4926 26.6363 18.3389C26.6368 18.1671 26.6366 17.9953 26.6363 17.8234C26.6366 17.7734 26.6369 17.7234 26.6371 17.6719C26.6343 16.9762 26.5131 16.4101 26.0269 15.8918C25.4494 15.3656 24.7648 15.3671 24.0278 15.3673C23.9548 15.3672 23.8818 15.367 23.8087 15.3669C23.6112 15.3665 23.4136 15.3663 23.216 15.3663C23.0923 15.3663 22.9686 15.3662 22.8449 15.3661C22.4127 15.3656 21.9805 15.3654 21.5482 15.3655C21.1465 15.3655 20.7447 15.365 20.343 15.3643C19.9971 15.3637 19.6513 15.3634 19.3054 15.3634C19.0992 15.3634 18.8931 15.3633 18.6869 15.3628C18.4929 15.3624 18.2988 15.3624 18.1047 15.3627C18.0339 15.3627 17.9631 15.3626 17.8923 15.3624C17.0692 15.3593 16.3772 15.4404 15.7968 16.0773Z" fill="white"/>
<path d="M24.7449 18.5034C25.1361 18.7366 25.3793 19.0595 25.5 19.4998C25.5468 20.0201 25.5164 20.4718 25.1836 20.8973C24.9184 21.1813 24.5881 21.3557 24.2 21.3906C23.7024 21.4018 23.2831 21.3454 22.9032 20.9925C22.5264 20.5587 22.4658 20.1454 22.4916 19.5912C22.524 19.239 22.7095 18.9361 22.9688 18.703C23.4722 18.3244 24.1672 18.2262 24.7449 18.5034ZM23.3731 19.4823C23.2698 19.6968 23.2595 19.8751 23.2969 20.1092C23.4061 20.336 23.5388 20.4688 23.7657 20.578C23.9998 20.6153 24.178 20.6051 24.3926 20.5018C24.5606 20.3498 24.6842 20.2281 24.7211 19.9968C24.7331 19.7304 24.7002 19.5632 24.5157 19.3592C24.3117 19.1747 24.1445 19.1418 23.8781 19.1538C23.6468 19.1907 23.5251 19.3143 23.3731 19.4823Z" fill="white"/>
<path d="M18.7449 18.504C19.0967 18.7138 19.2932 18.9823 19.4678 19.3481C19.5175 19.5831 19.5391 19.8251 19.5 20.0629C19.4137 20.1766 19.3578 20.2384 19.2187 20.2753C19.1878 20.2749 19.1569 20.2744 19.125 20.2739C19.0941 20.2744 19.0631 20.2748 19.0312 20.2753C18.8938 20.2388 18.838 20.1731 18.75 20.0629C18.7075 19.9401 18.7075 19.9401 18.6797 19.8081C18.6288 19.6017 18.5808 19.4622 18.4219 19.3129C18.2114 19.1863 18.0048 19.1886 17.7656 19.2192C17.5546 19.3228 17.4393 19.4272 17.3437 19.6411C17.3072 19.7745 17.2733 19.908 17.2427 20.043C17.2031 20.1567 17.2031 20.1567 17.0625 20.2504C16.7296 20.2821 16.7296 20.2821 16.5833 20.1721C16.4297 19.9709 16.4708 19.7417 16.5 19.5004C16.6124 19.054 16.8561 18.755 17.2441 18.5181C17.6941 18.2972 18.2898 18.2856 18.7449 18.504Z" fill="white"/>
<path d="M21.55 16.1011C21.5864 16.1007 21.6227 16.1004 21.6601 16.1001C21.7799 16.0992 21.8997 16.0998 22.0195 16.1004C22.1029 16.1003 22.1862 16.1001 22.2696 16.0999C22.4443 16.0996 22.6189 16.1 22.7935 16.1009C23.0174 16.1019 23.2412 16.1013 23.465 16.1002C23.6371 16.0995 23.8092 16.0997 23.9813 16.1002C24.0639 16.1003 24.1464 16.1002 24.2289 16.0998C24.3443 16.0993 24.4596 16.1 24.575 16.1011C24.609 16.1007 24.6431 16.1003 24.6783 16.0999C24.8397 16.1026 24.9233 16.1142 25.0524 16.2147C25.1312 16.3211 25.1505 16.3695 25.1484 16.5003C25.1492 16.5467 25.1492 16.5467 25.1499 16.5941C25.1125 16.7347 25.0522 16.7861 24.9375 16.8753C24.8103 16.8938 24.7021 16.901 24.575 16.8996C24.5205 16.9001 24.5205 16.9001 24.4649 16.9006C24.3451 16.9014 24.2253 16.9009 24.1055 16.9002C24.0221 16.9003 23.9388 16.9005 23.8554 16.9008C23.6807 16.901 23.5061 16.9006 23.3315 16.8998C23.1076 16.8987 22.8838 16.8993 22.66 16.9004C22.4879 16.9011 22.3158 16.9009 22.1437 16.9004C22.0611 16.9003 21.9786 16.9004 21.8961 16.9009C21.7807 16.9013 21.6654 16.9006 21.55 16.8996C21.516 16.9 21.4819 16.9003 21.4467 16.9007C21.2853 16.898 21.2017 16.8864 21.0726 16.7859C20.9938 16.6795 20.9745 16.6311 20.9766 16.5003C20.9758 16.4539 20.9758 16.4539 20.9751 16.4066C21.0532 16.1126 21.2871 16.0981 21.55 16.1011Z" fill="white"/>
<path d="M20.0625 16.1249C20.1797 16.1952 20.1797 16.1952 20.25 16.3124C20.2871 16.5009 20.2791 16.6388 20.1797 16.8046C20.014 16.904 19.876 16.912 19.6875 16.8749C19.5703 16.8046 19.5703 16.8046 19.5 16.6874C19.4629 16.4989 19.4709 16.3609 19.5703 16.1952C19.7361 16.0958 19.874 16.0878 20.0625 16.1249Z" fill="white"/>
</g>
<defs>
<linearGradient id="paint0_linear_113_10704" x1="21.3043" y1="0" x2="21.3043" y2="42.6086" gradientUnits="userSpaceOnUse">
<stop stop-color="#1E90FF"/>
<stop offset="1" stop-color="#00519F"/>
</linearGradient>
<clipPath id="clip0_113_10704">
<rect width="24" height="24" fill="white" transform="translate(9 9)"/>
</clipPath>
</defs>
</svg>
