<svg width="90" height="90" viewBox="0 0 90 90" fill="none" xmlns="http://www.w3.org/2000/svg">
<circle cx="45" cy="45" r="45" fill="#E2F0FD" fill-opacity="0.69"/>
<circle cx="45.5" cy="45.5" r="34.5" fill="url(#paint0_linear_113_10688)"/>
<path d="M35.1758 30.4605C35.6326 30.8449 35.8737 31.3224 35.9314 31.9134C35.954 32.4287 35.9165 32.8684 35.6406 33.316C35.605 33.3845 35.5694 33.453 35.5327 33.5235C35.1945 33.9329 34.8347 34.1587 34.3125 34.2457C34.3344 35.5386 34.3563 36.8315 34.3789 38.1637C34.5761 37.8569 34.7733 37.5501 34.9765 37.234C36.908 34.6989 39.5531 33.1812 42.707 32.738C43.236 32.6776 43.7706 32.69 44.3022 32.6919C44.4359 32.6917 44.5697 32.6916 44.7034 32.6913C44.9817 32.691 45.26 32.6914 45.5383 32.6924C45.8913 32.6935 46.2443 32.6929 46.5973 32.6917C46.8729 32.6909 47.1485 32.6912 47.4241 32.6917C47.5541 32.6918 47.6841 32.6917 47.8141 32.6912C48.9104 32.6881 49.9766 32.7844 51.0303 33.1043C51.0884 33.1216 51.1466 33.1389 51.2065 33.1567C54.0044 34.0061 56.0537 35.7256 57.6211 38.1637C57.643 36.8707 57.6649 35.5778 57.6875 34.2457C57.556 34.2238 57.4245 34.2019 57.289 34.1793C56.7425 33.8993 56.3808 33.497 56.1513 32.9313C55.9978 32.3636 56.0147 31.6677 56.2725 31.136C56.6038 30.5861 57.013 30.2775 57.6211 30.0621C58.337 29.9109 58.9164 30.0215 59.5274 30.4146C59.9567 30.7313 60.2232 31.1343 60.3437 31.6558C60.4025 32.252 60.4013 32.7917 60.0781 33.316C60.0425 33.3845 60.0069 33.453 59.9702 33.5235C59.632 33.9329 59.2722 34.1587 58.75 34.2457C58.75 36.196 58.75 38.1464 58.75 40.1558C59.4293 40.1558 60.1087 40.1558 60.8086 40.1558C61.4096 40.4564 61.4096 40.4564 61.5971 40.6829C61.634 40.726 61.6708 40.7691 61.7087 40.8134C61.9353 41.1423 61.9572 41.4476 61.9568 41.8383C61.9572 41.8932 61.9577 41.9481 61.9581 42.0046C61.9594 42.1857 61.9596 42.3667 61.9598 42.5478C61.9602 42.6741 61.9607 42.8004 61.9611 42.9266C61.9619 43.1913 61.9622 43.4559 61.9621 43.7206C61.9621 44.0589 61.9639 44.3971 61.9662 44.7354C61.9677 44.9963 61.9679 45.2571 61.9679 45.518C61.968 45.6427 61.9686 45.7674 61.9696 45.892C61.9709 46.0668 61.9705 46.2416 61.9697 46.4164C61.9705 46.4674 61.9712 46.5183 61.972 46.5709C61.967 47.0075 61.8277 47.3495 61.539 47.6782C61.4952 47.7145 61.4514 47.7509 61.4062 47.7884C61.3624 47.826 61.3186 47.8636 61.2734 47.9023C61.1371 47.9942 61.0336 48.023 60.875 48.0582C60.876 48.1028 60.8771 48.1473 60.8781 48.1933C60.946 51.5783 60.3676 55.2241 57.9611 57.7756C57.1034 58.6561 56.0231 59.3764 54.8403 59.7332C54.6838 59.7843 54.6838 59.7843 54.5664 59.8785C54.502 60.0582 54.4829 60.2233 54.4644 60.4131C54.3898 60.8868 54.0708 61.3002 53.6964 61.5887C53.1377 61.9554 52.5228 62.0808 51.8603 61.962C51.2284 61.7914 50.7975 61.3594 50.4567 60.8188C50.1999 60.3205 50.1616 59.7716 50.2956 59.2287C50.5475 58.5498 50.9279 58.1362 51.5781 57.8199C52.1179 57.6078 52.6679 57.6349 53.2126 57.8171C53.6455 58.0062 53.9519 58.3124 54.2344 58.6832C56.1237 58.0394 57.545 56.8085 58.4326 55.0123C59.4663 52.8443 59.6285 50.4852 59.7461 48.1246C59.3954 48.1246 59.0448 48.1246 58.6836 48.1246C58.6808 48.2396 58.6781 48.3547 58.6753 48.4732C58.5534 49.9747 57.8305 51.4806 56.8906 52.6402C56.8589 52.6797 56.8272 52.7191 56.7946 52.7597C55.1952 54.7321 52.963 55.9205 50.4433 56.1922C49.8706 56.245 49.2971 56.2376 48.7226 56.2262C48.7012 56.2784 48.7012 56.2784 48.6793 56.3317C48.5547 56.5546 48.3883 56.7369 48.2204 56.9276C48.1477 57.0113 48.0749 57.0951 48.0023 57.1789C47.9665 57.2202 47.9307 57.2615 47.8938 57.304C47.7577 57.4626 47.6256 57.6243 47.4941 57.7867C47.2662 58.0675 47.0329 58.3429 46.7969 58.6168C46.51 58.9497 46.229 59.2865 45.952 59.6277C45.7516 59.872 45.5472 60.1128 45.3422 60.3532C45.142 60.5887 44.9476 60.828 44.7549 61.0697C44.3864 61.5211 44.0509 61.8968 43.4465 61.9617C42.8551 61.9721 42.4293 61.9243 41.9793 61.5106C41.5932 61.0882 41.5332 60.715 41.5391 60.1676C41.5586 59.7949 41.6259 59.4342 41.696 59.0681C41.7181 58.9482 41.7181 58.9482 41.7407 58.8259C41.7874 58.5734 41.8351 58.3212 41.8828 58.0689C41.9148 57.8966 41.9468 57.7243 41.9788 57.5519C42.0567 57.132 42.1354 56.7122 42.2148 56.2926C42.0201 56.2277 41.8441 56.2077 41.6407 56.1901C39.2126 55.9712 36.9141 54.8274 35.3335 52.9557C34.5393 51.9407 33.9318 50.8619 33.5488 49.627C33.5326 49.5758 33.5165 49.5246 33.4998 49.4719C33.3714 49.028 33.3404 48.5847 33.3164 48.1246C33.2548 48.126 33.1932 48.1274 33.1297 48.1288C32.899 48.1334 32.6684 48.1367 32.4377 48.1392C32.3382 48.1405 32.2388 48.1423 32.1394 48.1446C31.5054 48.159 31.0144 48.1694 30.5112 47.7285C30.4755 47.6853 30.4397 47.642 30.4028 47.5975C30.366 47.5544 30.3292 47.5114 30.2913 47.467C30.0646 47.1381 30.0427 46.8328 30.0432 46.4422C30.0427 46.3873 30.0423 46.3324 30.0418 46.2758C30.0406 46.0948 30.0403 45.9137 30.0402 45.7327C30.0397 45.6064 30.0393 45.4801 30.0388 45.3538C30.038 45.0891 30.0378 44.8245 30.0379 44.5598C30.0379 44.2216 30.0361 43.8833 30.0338 43.545C30.0323 43.2842 30.032 43.0233 30.0321 42.7624C30.0319 42.6378 30.0314 42.5131 30.0303 42.3884C30.029 42.2136 30.0294 42.0389 30.0302 41.864C30.0295 41.8131 30.0287 41.7621 30.028 41.7096C30.033 41.2746 30.1712 40.9325 30.4586 40.6046C30.5018 40.5688 30.545 40.533 30.5896 40.4962C30.6326 40.4594 30.6757 40.4226 30.7201 40.3846C31.4745 39.8648 32.2971 40.1558 33.25 40.1558C33.25 38.2055 33.25 36.2551 33.25 34.2457C33.0528 34.2128 33.0528 34.2128 32.8515 34.1793C32.305 33.8993 31.9433 33.497 31.7138 32.9313C31.5603 32.3636 31.5772 31.6677 31.835 31.136C32.1679 30.5834 32.5798 30.292 33.1836 30.0621C33.9134 29.9016 34.5568 30.0494 35.1758 30.4605ZM32.893 31.6309C32.7467 31.9349 32.7322 32.1875 32.7851 32.5191C32.9398 32.8404 33.1279 33.0285 33.4492 33.1832C33.7809 33.2361 34.0334 33.2216 34.3374 33.0753C34.5754 32.8599 34.7505 32.6875 34.8027 32.3599C34.8197 31.9824 34.7731 31.7455 34.5117 31.4566C34.2228 31.1952 33.9859 31.1486 33.6085 31.1656C33.2808 31.2179 33.1084 31.3929 32.893 31.6309ZM57.3305 31.6309C57.1842 31.9349 57.1697 32.1875 57.2226 32.5191C57.3773 32.8404 57.5654 33.0285 57.8867 33.1832C58.2184 33.2361 58.4709 33.2216 58.7749 33.0753C59.0129 32.8599 59.188 32.6875 59.2402 32.3599C59.2572 31.9824 59.2106 31.7455 58.9492 31.4566C58.6603 31.1952 58.4234 31.1486 58.046 31.1656C57.7183 31.2179 57.5459 31.3929 57.3305 31.6309ZM41.7209 34.0548C41.6352 34.0759 41.6352 34.0759 41.5477 34.0974C39.7416 34.5651 38.1526 35.526 36.8359 36.8355C36.8036 36.8675 36.7714 36.8995 36.7381 36.9325C34.8767 38.8047 34.3036 41.1681 34.3013 43.7423C34.3011 43.8341 34.3009 43.9258 34.3007 44.0176C34.3003 44.2083 34.3001 44.399 34.3002 44.5898C34.3002 44.7819 34.2997 44.974 34.2988 45.1661C34.2853 48.0631 34.6162 50.6042 36.7197 52.7523C38.3731 54.3836 40.5492 55.0982 42.8393 55.1327C43.1822 55.1424 43.1822 55.1424 43.3236 55.2471C43.5257 55.5175 43.4241 55.9247 43.381 56.2396C43.3407 56.4809 43.2962 56.7212 43.2503 56.9616C43.2339 57.0503 43.2175 57.1391 43.2012 57.2278C43.1585 57.4597 43.1151 57.6915 43.0715 57.9232C43.0017 58.2947 42.9324 58.6662 42.8639 59.0379C42.84 59.1669 42.8155 59.2957 42.791 59.4245C42.6306 60.0824 42.6306 60.0824 42.7834 60.7044C43.0106 60.85 43.1451 60.85 43.4101 60.8082C43.5464 60.7006 43.6332 60.6083 43.7422 60.4762C43.8362 60.3737 43.9302 60.2713 44.0244 60.169C44.2849 59.878 44.5335 59.5789 44.7792 59.2754C44.9513 59.0647 45.1265 58.8571 45.3027 58.65C45.5267 58.3864 45.7484 58.1214 45.9668 57.8531C46.1851 57.5848 46.4069 57.3198 46.6308 57.0562C47.1043 56.4986 47.5666 55.9327 48.0168 55.3561C48.125 55.2301 48.125 55.2301 48.2578 55.1637C48.3715 55.1558 48.4855 55.1518 48.5994 55.1497C51.2017 55.0859 53.3619 54.5314 55.2969 52.7066C55.3418 52.666 55.3867 52.6253 55.433 52.5834C56.9614 51.1469 57.59 49.0984 57.6875 47.0621C57.6965 46.7328 57.6983 46.4037 57.6986 46.0743C57.6988 45.9826 57.6991 45.8909 57.6993 45.7992C57.6997 45.6084 57.6998 45.4175 57.6998 45.2267C57.6998 45.0346 57.7002 44.8425 57.7011 44.6504C57.7054 43.7291 57.7084 42.8092 57.6312 41.8904C57.6264 41.8321 57.6216 41.7738 57.6166 41.7137C57.4045 39.5363 56.0812 37.4987 54.4203 36.125C52.3085 34.435 49.8874 33.7711 47.2155 33.7697C47.1171 33.7695 47.0186 33.7693 46.9201 33.769C46.7148 33.7686 46.5096 33.7685 46.3043 33.7685C46.0966 33.7685 45.8889 33.7681 45.6812 33.7672C43.6863 33.746 43.6863 33.746 41.7209 34.0548ZM31.2578 41.4176C31.102 41.6751 31.1078 41.9239 31.1067 42.2199C31.1064 42.2659 31.1061 42.312 31.1057 42.3594C31.1048 42.5109 31.1049 42.6624 31.105 42.8139C31.1047 42.9197 31.1045 43.0254 31.1041 43.1312C31.1036 43.3527 31.1037 43.5741 31.104 43.7955C31.1044 44.0787 31.1033 44.3619 31.1017 44.6451C31.1008 44.8635 31.1007 45.0819 31.1009 45.3002C31.1009 45.4046 31.1005 45.509 31.0999 45.6134C31.099 45.7596 31.0995 45.9058 31.1003 46.052C31.1002 46.135 31.1002 46.2181 31.1001 46.3036C31.1281 46.5593 31.1813 46.7157 31.3242 46.9293C31.8433 47.1607 31.8433 47.1607 33.25 47.0621C33.25 45.1337 33.25 43.2052 33.25 41.2183C31.8196 41.0996 31.8196 41.0996 31.2578 41.4176ZM58.75 41.2183C58.75 43.1468 58.75 45.0752 58.75 47.0621C60.1804 47.1809 60.1804 47.1809 60.7422 46.8629C60.8979 46.6054 60.8921 46.3566 60.8932 46.0606C60.8936 46.0145 60.8939 45.9685 60.8942 45.921C60.8952 45.7695 60.8951 45.618 60.895 45.4665C60.8952 45.3608 60.8955 45.255 60.8958 45.1492C60.8963 44.9278 60.8963 44.7064 60.8959 44.4849C60.8956 44.2017 60.8967 43.9185 60.8982 43.6353C60.8992 43.4169 60.8993 43.1986 60.8991 42.9802C60.8991 42.8758 60.8994 42.7714 60.9001 42.667C60.9009 42.5208 60.9005 42.3747 60.8997 42.2285C60.8997 42.1454 60.8998 42.0624 60.8998 41.9768C60.8719 41.7212 60.8187 41.5648 60.6758 41.3512C60.1567 41.1197 60.1567 41.1197 58.75 41.2183ZM51.4868 59.2559C51.3404 59.5599 51.3259 59.8125 51.3789 60.1441C51.5336 60.4654 51.7216 60.6535 52.0429 60.8082C52.3746 60.8611 52.6271 60.8466 52.9311 60.7003C53.1691 60.4849 53.3442 60.3125 53.3965 59.9849C53.4135 59.6074 53.3668 59.3705 53.1054 59.0816C52.8165 58.8202 52.5797 58.7736 52.2022 58.7906C51.8746 58.8429 51.7021 59.0179 51.4868 59.2559Z" fill="white"/>
<path d="M40.465 36.9493C40.5141 36.9489 40.5631 36.9486 40.6137 36.9482C40.7769 36.9472 40.9402 36.9472 41.1034 36.9471C41.2209 36.9466 41.3385 36.9461 41.456 36.9455C41.7746 36.944 42.0932 36.9434 42.4118 36.9431C42.6113 36.9428 42.8107 36.9424 43.0102 36.9419C43.7071 36.9403 44.4041 36.9395 45.101 36.9392C45.7487 36.939 46.3964 36.937 47.0441 36.9342C47.6016 36.9319 48.1591 36.9309 48.7166 36.9308C49.0489 36.9308 49.3812 36.9302 49.7136 36.9283C50.0267 36.9266 50.3397 36.9264 50.6528 36.9275C50.767 36.9276 50.8812 36.9272 50.9953 36.9261C52.0285 36.917 52.8781 37.0938 53.7031 37.7644C53.7584 37.806 53.8137 37.8476 53.8707 37.8904C54.4556 38.3867 54.8907 39.2023 55.0312 39.9558C55.0514 40.2576 55.0507 40.559 55.0505 40.8615C55.0509 40.9532 55.0514 41.0449 55.0519 41.1365C55.053 41.3846 55.0534 41.6327 55.0534 41.8808C55.0535 42.0361 55.0538 42.1915 55.0542 42.3468C55.0554 42.8898 55.0559 43.4328 55.0558 43.9758C55.0558 44.4803 55.0572 44.9847 55.0593 45.4892C55.061 45.9236 55.0617 46.358 55.0616 46.7925C55.0616 47.0513 55.062 47.3102 55.0634 47.5691C55.0647 47.8129 55.0647 48.0567 55.0637 48.3005C55.0635 48.4313 55.0646 48.5622 55.0658 48.693C55.0592 49.6295 54.7326 50.567 54.0891 51.2658C53.3859 51.919 52.5084 52.3959 51.5336 52.3915C51.4844 52.3918 51.4352 52.3921 51.3845 52.3924C51.2208 52.3932 51.0571 52.3931 50.8934 52.393C50.7755 52.3934 50.6577 52.3939 50.5398 52.3944C50.2204 52.3955 49.901 52.3959 49.5816 52.3959C49.3817 52.396 49.1819 52.3963 48.982 52.3967C48.284 52.3979 47.586 52.3984 46.888 52.3983C46.2387 52.3983 45.5894 52.3997 44.9401 52.4018C44.3816 52.4035 43.8231 52.4042 43.2646 52.4041C42.9315 52.4041 42.5984 52.4045 42.2653 52.4059C41.9517 52.4072 41.6382 52.4072 41.3246 52.4062C41.21 52.4061 41.0955 52.4064 40.9809 52.4072C39.9087 52.4142 38.8911 52.1816 38.0766 51.4316C37.2658 50.5587 36.9486 49.6467 36.9494 48.4797C36.949 48.388 36.9486 48.2963 36.9481 48.2047C36.9469 47.9566 36.9466 47.7085 36.9465 47.4604C36.9464 47.3051 36.9461 47.1497 36.9458 46.9944C36.9446 46.4514 36.944 45.9084 36.9441 45.3654C36.9442 44.8609 36.9428 44.3565 36.9407 43.852C36.939 43.4176 36.9383 42.9832 36.9383 42.5487C36.9384 42.2899 36.938 42.031 36.9366 41.7721C36.9353 41.5283 36.9353 41.2845 36.9363 41.0407C36.9365 40.9099 36.9354 40.779 36.9342 40.6482C36.9407 39.7117 37.2674 38.7742 37.9109 38.0754C38.6176 37.4189 39.4877 36.9527 40.465 36.9493ZM38.6289 39.0261C38.0763 39.781 38.0212 40.5603 38.0216 41.4654C38.0214 41.5419 38.0211 41.6184 38.0209 41.6973C38.0203 41.9493 38.0201 42.2013 38.0201 42.4533C38.0199 42.5847 38.0198 42.7162 38.0196 42.8477C38.019 43.2608 38.0189 43.674 38.0189 44.0871C38.019 44.5114 38.0183 44.9357 38.0172 45.36C38.0163 45.7259 38.016 46.0918 38.016 46.4577C38.016 46.6756 38.0158 46.8934 38.0152 47.1112C38.0145 47.3546 38.0147 47.598 38.0151 47.8414C38.0147 47.9122 38.0144 47.9831 38.014 48.056C38.018 49.0417 38.1897 49.8437 38.8784 50.5779C39.6966 51.3234 40.6664 51.3213 41.7105 51.3209C41.8139 51.3211 41.9174 51.3213 42.0209 51.3215C42.3008 51.3221 42.5807 51.3223 42.8606 51.3223C43.0358 51.3224 43.2111 51.3225 43.3863 51.3227C43.9986 51.3233 44.6109 51.3236 45.2233 51.3235C45.7924 51.3235 46.3615 51.3242 46.9307 51.3252C47.4207 51.3261 47.9106 51.3265 48.4006 51.3264C48.6927 51.3264 48.9847 51.3266 49.2768 51.3273C49.5517 51.3279 49.8266 51.3279 50.1015 51.3275C50.2019 51.3274 50.3022 51.3275 50.4025 51.328C51.4982 51.3321 52.4076 51.2406 53.2354 50.464C53.9179 49.715 53.9788 48.8413 53.9784 47.8758C53.9786 47.7993 53.9788 47.7228 53.9791 47.6439C53.9797 47.3919 53.9798 47.1399 53.9799 46.8879C53.98 46.7565 53.9802 46.625 53.9804 46.4935C53.9809 46.0804 53.9811 45.6672 53.981 45.2541C53.981 44.8298 53.9817 44.4055 53.9827 43.9812C53.9836 43.6153 53.984 43.2494 53.9839 42.8835C53.9839 42.6656 53.9842 42.4478 53.9848 42.23C53.9855 41.9866 53.9853 41.7432 53.9849 41.4998C53.9852 41.429 53.9856 41.3581 53.986 41.2852C53.9819 40.2995 53.8103 39.4975 53.1215 38.7633C52.3033 38.0178 51.3336 38.0199 50.2895 38.0203C50.186 38.0201 50.0825 38.0199 49.9791 38.0197C49.6992 38.0191 49.4193 38.0189 49.1394 38.0189C48.9641 38.0188 48.7889 38.0187 48.6137 38.0185C48.0013 38.0179 47.389 38.0176 46.7767 38.0177C46.2076 38.0177 45.6384 38.017 45.0693 38.016C44.5793 38.0151 44.0893 38.0147 43.5993 38.0148C43.3073 38.0148 43.0152 38.0146 42.7232 38.0139C42.4483 38.0133 42.1733 38.0133 41.8984 38.0137C41.7981 38.0138 41.6978 38.0137 41.5974 38.0132C40.4314 38.0089 39.451 38.1238 38.6289 39.0261Z" fill="white"/>
<path d="M51.3052 42.4631C51.8593 42.7935 52.2039 43.2509 52.3749 43.8747C52.4413 44.6118 52.3982 45.2516 51.9267 45.8544C51.551 46.2567 51.0831 46.5038 50.5332 46.5533C49.8283 46.5691 49.2343 46.4893 48.6961 45.9893C48.1623 45.3747 48.0765 44.7893 48.113 44.0041C48.1589 43.5052 48.4216 43.0761 48.789 42.7458C49.5021 42.2095 50.4868 42.0703 51.3052 42.4631ZM49.3618 43.8498C49.2154 44.1538 49.2009 44.4063 49.2539 44.738C49.4086 45.0593 49.5966 45.2473 49.9179 45.402C50.2496 45.455 50.5021 45.4405 50.8061 45.2941C51.0441 45.0788 51.2192 44.9063 51.2715 44.5787C51.2885 44.2013 51.2418 43.9644 50.9804 43.6755C50.6915 43.4141 50.4546 43.3674 50.0772 43.3844C49.7496 43.4367 49.5771 43.6118 49.3618 43.8498Z" fill="white"/>
<path d="M42.8052 42.4638C43.3036 42.761 43.582 43.1414 43.8293 43.6596C43.8997 43.9925 43.9304 44.3354 43.875 44.6723C43.7527 44.8333 43.6735 44.9209 43.4765 44.9732C43.4327 44.9725 43.3889 44.9718 43.3437 44.9711C43.2999 44.9718 43.2561 44.9725 43.2109 44.9732C43.0162 44.9215 42.9371 44.8284 42.8125 44.6723C42.7523 44.4982 42.7523 44.4982 42.7129 44.3112C42.6408 44.0189 42.5728 43.8213 42.3476 43.6098C42.0495 43.4304 41.7568 43.4336 41.418 43.477C41.1191 43.6237 40.9557 43.7717 40.8203 44.0746C40.7685 44.2637 40.7206 44.4528 40.6771 44.644C40.6211 44.8051 40.6211 44.8051 40.4219 44.9379C39.9503 44.9828 39.9503 44.9828 39.743 44.8269C39.5255 44.5419 39.5837 44.2172 39.625 43.8754C39.7842 43.243 40.1294 42.8193 40.6792 42.4837C41.3166 42.1709 42.1606 42.1544 42.8052 42.4638Z" fill="white"/>
<path d="M46.7792 39.0597C46.8307 39.0592 46.8821 39.0587 46.9351 39.0583C47.1049 39.0571 47.2746 39.0579 47.4443 39.0588C47.5624 39.0586 47.6805 39.0583 47.7986 39.058C48.046 39.0576 48.2934 39.0582 48.5408 39.0594C48.8579 39.0609 49.175 39.06 49.4921 39.0585C49.7359 39.0575 49.9797 39.0578 50.2235 39.0585C50.3405 39.0587 50.4574 39.0584 50.5743 39.0578C50.7377 39.0572 50.9011 39.0582 51.0645 39.0597C51.1128 39.0591 51.1611 39.0586 51.2109 39.058C51.4396 39.0619 51.558 39.0783 51.7408 39.2207C51.8525 39.3715 51.8798 39.44 51.877 39.6253C51.878 39.691 51.878 39.691 51.879 39.7581C51.8261 39.9574 51.7406 40.0301 51.5781 40.1565C51.3979 40.1828 51.2446 40.1929 51.0645 40.1909C50.9874 40.1916 50.9874 40.1916 50.9087 40.1923C50.7389 40.1935 50.5692 40.1927 50.3994 40.1918C50.2813 40.192 50.1632 40.1922 50.0451 40.1926C49.7977 40.193 49.5503 40.1924 49.3029 40.1912C48.9858 40.1896 48.6688 40.1905 48.3517 40.1921C48.1078 40.1931 47.864 40.1928 47.6202 40.1921C47.5033 40.1919 47.3864 40.1921 47.2694 40.1927C47.106 40.1934 46.9427 40.1924 46.7792 40.1909C46.7309 40.1914 46.6826 40.192 46.6329 40.1925C46.4042 40.1887 46.2858 40.1722 46.1029 40.0299C45.9913 39.8791 45.9639 39.8105 45.9668 39.6253C45.9658 39.5595 45.9658 39.5595 45.9647 39.4925C46.0754 39.076 46.4067 39.0555 46.7792 39.0597Z" fill="white"/>
<path d="M44.6719 39.0933C44.8379 39.193 44.8379 39.193 44.9375 39.359C44.9901 39.626 44.9788 39.8214 44.8379 40.0562C44.6031 40.1971 44.4077 40.2084 44.1406 40.1558C43.9746 40.0562 43.9746 40.0562 43.875 39.8902C43.8225 39.6232 43.8337 39.4278 43.9746 39.193C44.2094 39.0521 44.4049 39.0408 44.6719 39.0933Z" fill="white"/>
<defs>
<linearGradient id="paint0_linear_113_10688" x1="45.5" y1="11" x2="45.5" y2="80" gradientUnits="userSpaceOnUse">
<stop stop-color="#358FE8"/>
<stop offset="1" stop-color="#0671D9"/>
</linearGradient>
</defs>
</svg>
