<svg width="32" height="32" viewBox="0 0 32 32" fill="none" xmlns="http://www.w3.org/2000/svg">
<circle cx="16" cy="16" r="16" fill="white" fill-opacity="0.62"/>
<path d="M18.2833 13.5004L17.995 21.0004M14.005 21.0004L13.7167 13.5004M22.0233 10.8254C22.3083 10.8688 22.5917 10.9146 22.875 10.9638M22.0233 10.8254L21.1333 22.3946C21.097 22.8656 20.8842 23.3056 20.5375 23.6265C20.1908 23.9474 19.7358 24.1256 19.2633 24.1254H12.7367C12.2642 24.1256 11.8092 23.9474 11.4625 23.6265C11.1158 23.3056 10.903 22.8656 10.8667 22.3946L9.97667 10.8254M22.0233 10.8254C21.0616 10.68 20.0948 10.5697 19.125 10.4946M9.97667 10.8254C9.69167 10.8679 9.40833 10.9138 9.125 10.9629M9.97667 10.8254C10.9384 10.68 11.9052 10.5697 12.875 10.4946M19.125 10.4946V9.73127C19.125 8.74793 18.3667 7.92793 17.3833 7.8971C16.4613 7.86763 15.5387 7.86763 14.6167 7.8971C13.6333 7.92793 12.875 8.74877 12.875 9.73127V10.4946M19.125 10.4946C17.0448 10.3338 14.9552 10.3338 12.875 10.4946" stroke="#F94F4F" stroke-width="1.5" stroke-linecap="round" stroke-linejoin="round"/>
</svg>
