<svg width="20" height="31" viewBox="0 0 20 31" fill="none" xmlns="http://www.w3.org/2000/svg">
<path d="M13.1579 13.8966H11.5789V6.41379H12.1053C13.0824 6.41379 14.0195 6.80797 14.7104 7.50962C15.4013 8.21126 15.7895 9.1629 15.7895 10.1552C15.7895 10.5804 15.9558 10.9883 16.2519 11.289C16.548 11.5897 16.9497 11.7586 17.3684 11.7586C17.7872 11.7586 18.1888 11.5897 18.4849 11.289C18.781 10.9883 18.9474 10.5804 18.9474 10.1552C18.9453 8.31303 18.2237 6.54694 16.9411 5.24434C15.6584 3.94175 13.9193 3.20902 12.1053 3.2069H11.5789V1.60345C11.5789 1.17819 11.4126 0.770344 11.1165 0.469639C10.8204 0.168934 10.4188 0 10 0C9.58124 0 9.17963 0.168934 8.88352 0.469639C8.58741 0.770344 8.42105 1.17819 8.42105 1.60345V3.2069H7.89474C6.0801 3.2069 4.33978 3.93894 3.05664 5.242C1.77349 6.54505 1.05263 8.31238 1.05263 10.1552C1.05263 11.998 1.77349 13.7653 3.05664 15.0683C4.33978 16.3714 6.0801 17.1034 7.89474 17.1034H8.42105V24.5862H6.84211C5.86499 24.5862 4.9279 24.192 4.23698 23.4904C3.54605 22.7887 3.15789 21.8371 3.15789 20.8448C3.15789 20.4196 2.99154 20.0117 2.69543 19.711C2.39932 19.4103 1.99771 19.2414 1.57895 19.2414C1.16018 19.2414 0.758573 19.4103 0.462463 19.711C0.166353 20.0117 0 20.4196 0 20.8448C0.00208946 22.687 0.723623 24.4531 2.00631 25.7557C3.28901 27.0583 5.02811 27.791 6.84211 27.7931H8.42105V29.3966C8.42105 29.8218 8.58741 30.2297 8.88352 30.5304C9.17963 30.8311 9.58124 31 10 31C10.4188 31 10.8204 30.8311 11.1165 30.5304C11.4126 30.2297 11.5789 29.8218 11.5789 29.3966V27.7931H13.1579C14.9725 27.7931 16.7129 27.0611 17.996 25.758C19.2791 24.4549 20 22.6876 20 20.8448C20 19.002 19.2791 17.2347 17.996 15.9317C16.7129 14.6286 14.9725 13.8966 13.1579 13.8966ZM7.89474 13.8966C6.91762 13.8966 5.98053 13.5024 5.28961 12.8007C4.59868 12.0991 4.21053 11.1474 4.21053 10.1552C4.21053 9.1629 4.59868 8.21126 5.28961 7.50962C5.98053 6.80797 6.91762 6.41379 7.89474 6.41379H8.42105V13.8966H7.89474ZM13.1579 24.5862H11.5789V17.1034H13.1579C14.135 17.1034 15.0721 17.4976 15.763 18.1993C16.4539 18.9009 16.8421 19.8526 16.8421 20.8448C16.8421 21.8371 16.4539 22.7887 15.763 23.4904C15.0721 24.192 14.135 24.5862 13.1579 24.5862Z" fill="#F59E0B"/>
</svg>
