<svg width="21" height="20" viewBox="0 0 21 20" fill="none" xmlns="http://www.w3.org/2000/svg">
<path d="M16.1593 3.33301H4.49268C3.82963 3.33301 3.19375 3.5964 2.72491 4.06524C2.25607 4.53408 1.99268 5.16997 1.99268 5.83301V14.1663C1.99268 14.8294 2.25607 15.4653 2.72491 15.9341C3.19375 16.4029 3.82963 16.6663 4.49268 16.6663H16.1593C16.8224 16.6663 17.4583 16.4029 17.9271 15.9341C18.396 15.4653 18.6593 14.8294 18.6593 14.1663V5.83301C18.6593 5.16997 18.396 4.53408 17.9271 4.06524C17.4583 3.5964 16.8224 3.33301 16.1593 3.33301ZM4.49268 14.9997C4.27166 14.9997 4.0597 14.9119 3.90342 14.7556C3.74714 14.5993 3.65934 14.3874 3.65934 14.1663V12.1497L6.40934 9.40801C6.56512 9.25532 6.77455 9.16979 6.99268 9.16979C7.2108 9.16979 7.42023 9.25532 7.57601 9.40801L13.1677 14.9997H4.49268ZM16.9927 14.1663C16.9927 14.3874 16.9049 14.5993 16.7486 14.7556C16.5923 14.9119 16.3804 14.9997 16.1593 14.9997H15.5177L12.3427 11.808L13.076 11.0747C13.2318 10.922 13.4412 10.8365 13.6593 10.8365C13.8775 10.8365 14.0869 10.922 14.2427 11.0747L16.9927 13.8163V14.1663ZM16.9927 11.4663L15.426 9.90801C14.9511 9.4517 14.318 9.19686 13.6593 9.19686C13.0007 9.19686 12.3676 9.4517 11.8927 9.90801L11.1593 10.6413L8.75934 8.24134C8.28439 7.78504 7.65131 7.5302 6.99268 7.5302C6.33405 7.5302 5.70096 7.78504 5.22601 8.24134L3.65934 9.79967V5.83301C3.65934 5.61199 3.74714 5.40003 3.90342 5.24375C4.0597 5.08747 4.27166 4.99967 4.49268 4.99967H16.1593C16.3804 4.99967 16.5923 5.08747 16.7486 5.24375C16.9049 5.40003 16.9927 5.61199 16.9927 5.83301V11.4663Z" fill="#AAAAAA"/>
</svg>
