<svg width="21" height="20" viewBox="0 0 21 20" fill="none" xmlns="http://www.w3.org/2000/svg">
<path d="M10.2022 1.66699C10.8653 1.66699 11.5012 1.93038 11.97 2.39923C12.4388 2.86807 12.7022 3.50395 12.7022 4.16699V9.16699C12.7022 9.83003 12.4388 10.4659 11.97 10.9348C11.5012 11.4036 10.8653 11.667 10.2022 11.667C9.53919 11.667 8.9033 11.4036 8.43446 10.9348C7.96562 10.4659 7.70223 9.83003 7.70223 9.16699V4.16699C7.70223 3.50395 7.96562 2.86807 8.43446 2.39923C8.9033 1.93038 9.53919 1.66699 10.2022 1.66699ZM16.0356 9.16699C16.0356 12.1087 13.8606 14.5337 11.0356 14.942V17.5003H9.3689V14.942C6.5439 14.5337 4.3689 12.1087 4.3689 9.16699H6.03556C6.03556 10.2721 6.47455 11.3319 7.25595 12.1133C8.03735 12.8947 9.09716 13.3337 10.2022 13.3337C11.3073 13.3337 12.3671 12.8947 13.1485 12.1133C13.9299 11.3319 14.3689 10.2721 14.3689 9.16699H16.0356Z" fill="#AAAAAA"/>
</svg>
