<svg width="52" height="52" viewBox="0 0 52 52" fill="none" xmlns="http://www.w3.org/2000/svg">
<circle cx="26" cy="26" r="26" fill="#1E90FF" fill-opacity="0.1"/>
<path d="M28.857 31.082C30.7202 30.8614 32.5508 30.4217 34.311 29.772C32.8204 28.1208 31.9967 25.9745 32 23.75V23C32 21.4087 31.3678 19.8826 30.2426 18.7574C29.1174 17.6321 27.5913 17 26 17C24.4087 17 22.8826 17.6321 21.7573 18.7574C20.6321 19.8826 20 21.4087 20 23V23.75C20.003 25.9746 19.179 28.121 17.688 29.772C19.421 30.412 21.248 30.857 23.143 31.082M28.857 31.082C26.959 31.3071 25.041 31.3071 23.143 31.082M28.857 31.082C29.0011 31.5319 29.0369 32.0094 28.9616 32.4757C28.8862 32.942 28.7018 33.384 28.4234 33.7656C28.1449 34.1472 27.7803 34.4576 27.3592 34.6716C26.9381 34.8856 26.4724 34.9972 26 34.9972C25.5276 34.9972 25.0619 34.8856 24.6408 34.6716C24.2197 34.4576 23.8551 34.1472 23.5766 33.7656C23.2982 33.384 23.1138 32.942 23.0384 32.4757C22.9631 32.0094 22.9989 31.5319 23.143 31.082" stroke="#1E90FF" stroke-width="1.5" stroke-linecap="round" stroke-linejoin="round"/>
</svg>
