<svg width="32" height="32" viewBox="0 0 32 32" fill="none" xmlns="http://www.w3.org/2000/svg">
<path d="M8.33398 15.9993C8.06877 15.9993 7.81441 16.1047 7.62688 16.2922C7.43934 16.4798 7.33398 16.7341 7.33398 16.9993C7.33398 17.2646 7.43934 17.5189 7.62688 17.7065C7.81441 17.894 8.06877 17.9993 8.33398 17.9993H9.00065C9.26587 17.9993 9.52022 17.894 9.70776 17.7065C9.89529 17.5189 10.0007 17.2646 10.0007 16.9993C10.0007 16.7341 9.89529 16.4798 9.70776 16.2922C9.52022 16.1047 9.26587 15.9993 9.00065 15.9993H8.33398ZM7.33398 12.3327C7.33398 12.0675 7.43934 11.8131 7.62688 11.6256C7.81441 11.438 8.06877 11.3327 8.33398 11.3327H9.00065C9.26587 11.3327 9.52022 11.438 9.70776 11.6256C9.89529 11.8131 10.0007 12.0675 10.0007 12.3327C10.0007 12.5979 9.89529 12.8523 9.70776 13.0398C9.52022 13.2273 9.26587 13.3327 9.00065 13.3327H8.33398C8.06877 13.3327 7.81441 13.2273 7.62688 13.0398C7.43934 12.8523 7.33398 12.5979 7.33398 12.3327ZM8.33398 6.66602C8.06877 6.66602 7.81441 6.77137 7.62688 6.95891C7.43934 7.14645 7.33398 7.4008 7.33398 7.66602C7.33398 7.93123 7.43934 8.18559 7.62688 8.37312C7.81441 8.56066 8.06877 8.66602 8.33398 8.66602H9.00065C9.26587 8.66602 9.52022 8.56066 9.70776 8.37312C9.89529 8.18559 10.0007 7.93123 10.0007 7.66602C10.0007 7.4008 9.89529 7.14645 9.70776 6.95891C9.52022 6.77137 9.26587 6.66602 9.00065 6.66602H8.33398ZM12.0007 16.9993C12.0007 16.7341 12.106 16.4798 12.2935 16.2922C12.4811 16.1047 12.7354 15.9993 13.0007 15.9993H13.6673C13.9325 15.9993 14.1869 16.1047 14.3744 16.2922C14.562 16.4798 14.6673 16.7341 14.6673 16.9993C14.6673 17.2646 14.562 17.5189 14.3744 17.7065C14.1869 17.894 13.9325 17.9993 13.6673 17.9993H13.0007C12.7354 17.9993 12.4811 17.894 12.2935 17.7065C12.106 17.5189 12.0007 17.2646 12.0007 16.9993ZM13.0007 11.3327C12.7354 11.3327 12.4811 11.438 12.2935 11.6256C12.106 11.8131 12.0007 12.0675 12.0007 12.3327C12.0007 12.5979 12.106 12.8523 12.2935 13.0398C12.4811 13.2273 12.7354 13.3327 13.0007 13.3327H13.6673C13.9325 13.3327 14.1869 13.2273 14.3744 13.0398C14.562 12.8523 14.6673 12.5979 14.6673 12.3327C14.6673 12.0675 14.562 11.8131 14.3744 11.6256C14.1869 11.438 13.9325 11.3327 13.6673 11.3327H13.0007ZM12.0007 7.66602C12.0007 7.4008 12.106 7.14645 12.2935 6.95891C12.4811 6.77137 12.7354 6.66602 13.0007 6.66602H13.6673C13.9325 6.66602 14.1869 6.77137 14.3744 6.95891C14.562 7.14645 14.6673 7.4008 14.6673 7.66602C14.6673 7.93123 14.562 8.18559 14.3744 8.37312C14.1869 8.56066 13.9325 8.66602 13.6673 8.66602H13.0007C12.7354 8.66602 12.4811 8.56066 12.2935 8.37312C12.106 8.18559 12.0007 7.93123 12.0007 7.66602ZM17.6673 15.9993C17.4021 15.9993 17.1477 16.1047 16.9602 16.2922C16.7727 16.4798 16.6673 16.7341 16.6673 16.9993C16.6673 17.2646 16.7727 17.5189 16.9602 17.7065C17.1477 17.894 17.4021 17.9993 17.6673 17.9993H18.334C18.5992 17.9993 18.8536 17.894 19.0411 17.7065C19.2286 17.5189 19.334 17.2646 19.334 16.9993C19.334 16.7341 19.2286 16.4798 19.0411 16.2922C18.8536 16.1047 18.5992 15.9993 18.334 15.9993H17.6673ZM16.6673 12.3327C16.6673 12.0675 16.7727 11.8131 16.9602 11.6256C17.1477 11.438 17.4021 11.3327 17.6673 11.3327H18.334C18.5992 11.3327 18.8536 11.438 19.0411 11.6256C19.2286 11.8131 19.334 12.0675 19.334 12.3327C19.334 12.5979 19.2286 12.8523 19.0411 13.0398C18.8536 13.2273 18.5992 13.3327 18.334 13.3327H17.6673C17.4021 13.3327 17.1477 13.2273 16.9602 13.0398C16.7727 12.8523 16.6673 12.5979 16.6673 12.3327ZM17.6673 6.66602C17.4021 6.66602 17.1477 6.77137 16.9602 6.95891C16.7727 7.14645 16.6673 7.4008 16.6673 7.66602C16.6673 7.93123 16.7727 8.18559 16.9602 8.37312C17.1477 8.56066 17.4021 8.66602 17.6673 8.66602H18.334C18.5992 8.66602 18.8536 8.56066 19.0411 8.37312C19.2286 8.18559 19.334 7.93123 19.334 7.66602C19.334 7.4008 19.2286 7.14645 19.0411 6.95891C18.8536 6.77137 18.5992 6.66602 18.334 6.66602H17.6673Z" fill="#1E90FF"/>
<path d="M2.66602 26.6673V4.00065C2.66602 3.29341 2.94697 2.61513 3.44706 2.11503C3.94716 1.61494 4.62544 1.33398 5.33268 1.33398H21.3327C22.0399 1.33398 22.7182 1.61494 23.2183 2.11503C23.7184 2.61513 23.9993 3.29341 23.9993 4.00065V26.6673C23.9993 26.8984 23.9713 27.1207 23.9153 27.334H26.666C26.8428 27.334 27.0124 27.2637 27.1374 27.1387C27.2624 27.0137 27.3327 26.8441 27.3327 26.6673V16.0007C27.3327 15.8972 27.3086 15.7951 27.2623 15.7025C27.216 15.6099 27.1488 15.5294 27.066 15.4673L26.3993 14.9673C26.1872 14.8082 26.0469 14.5713 26.0094 14.3087C25.9719 14.0462 26.0402 13.7795 26.1993 13.5673C26.3585 13.3551 26.5954 13.2149 26.8579 13.1774C27.1205 13.1399 27.3872 13.2082 27.5993 13.3673L28.266 13.8673C28.938 14.3713 29.3327 15.1607 29.3327 16.0007V26.6673C29.3327 27.3746 29.0517 28.0528 28.5516 28.5529C28.0515 29.053 27.3733 29.334 26.666 29.334H21.9167C21.8424 29.3322 21.7683 29.3241 21.6953 29.31C21.5762 29.326 21.4553 29.334 21.3327 29.334H16.3327C16.0675 29.334 15.8131 29.2286 15.6256 29.0411C15.438 28.8536 15.3327 28.5992 15.3327 28.334V25.334H11.3327V28.334C11.3327 28.5992 11.2273 28.8536 11.0398 29.0411C10.8523 29.2286 10.5979 29.334 10.3327 29.334H5.33268C4.62544 29.334 3.94716 29.053 3.44706 28.5529C2.94697 28.0528 2.66602 27.3746 2.66602 26.6673ZM5.33268 27.334H9.33268V24.334C9.33268 24.0688 9.43804 23.8144 9.62558 23.6269C9.81311 23.4393 10.0675 23.334 10.3327 23.334H16.3327C16.5979 23.334 16.8523 23.4393 17.0398 23.6269C17.2273 23.8144 17.3327 24.0688 17.3327 24.334V27.334H21.3327C21.5095 27.334 21.6791 27.2637 21.8041 27.1387C21.9291 27.0137 21.9993 26.8441 21.9993 26.6673V4.00065C21.9993 3.82384 21.9291 3.65427 21.8041 3.52925C21.6791 3.40422 21.5095 3.33398 21.3327 3.33398H5.33268C5.15587 3.33398 4.9863 3.40422 4.86128 3.52925C4.73625 3.65427 4.66602 3.82384 4.66602 4.00065V26.6673C4.66602 26.8441 4.73625 27.0137 4.86128 27.1387C4.9863 27.2637 5.15587 27.334 5.33268 27.334Z" fill="#1E90FF"/>
</svg>
