<svg width="24" height="20" viewBox="0 0 24 20" fill="none" xmlns="http://www.w3.org/2000/svg">
<path d="M9.99231 11.6667L20.6512 2.5M9.99231 11.6667L13.3838 17.5C13.4263 17.5798 13.4945 17.6474 13.5804 17.6948C13.6663 17.7422 13.7662 17.7674 13.8683 17.7674C13.9703 17.7674 14.0702 17.7422 14.1561 17.6948C14.242 17.6474 14.3103 17.5798 14.3528 17.5L20.6512 2.5M9.99231 11.6667L3.20936 8.75C3.11659 8.71344 3.03797 8.65474 2.98285 8.58088C2.92774 8.50701 2.89844 8.4211 2.89844 8.33333C2.89844 8.24557 2.92774 8.15965 2.98285 8.08579C3.03797 8.01193 3.11659 7.95323 3.20936 7.91667L20.6512 2.5" stroke="#AAAAAA" stroke-width="2" stroke-linecap="round" stroke-linejoin="round"/>
</svg>
