<svg width="200" height="89" viewBox="0 0 200 89" fill="none" xmlns="http://www.w3.org/2000/svg">
<g filter="url(#filter0_d_113_7454)">
<rect x="4.5" y="4" width="191" height="81" rx="4" fill="url(#paint0_linear_113_7454)"/>
</g>
<circle cx="100.5" cy="30" r="16" fill="white"/>
<path d="M96.1892 25.146C96.0392 25.3834 95.839 25.5852 95.6028 25.737C95.3665 25.8889 95.0999 25.9873 94.8217 26.0252C94.505 26.0702 94.1908 26.1185 93.8767 26.171C92.9992 26.3168 92.375 27.0893 92.375 27.9785V35.0002C92.375 35.4975 92.5725 35.9744 92.9242 36.326C93.2758 36.6776 93.7527 36.8752 94.25 36.8752H106.75C107.247 36.8752 107.724 36.6776 108.076 36.326C108.427 35.9744 108.625 35.4975 108.625 35.0002V27.9785C108.625 27.0893 108 26.3168 107.123 26.171C106.809 26.1186 106.494 26.07 106.178 26.0252C105.9 25.9871 105.634 25.8887 105.398 25.7369C105.162 25.585 104.962 25.3833 104.812 25.146L104.127 24.0493C103.973 23.7994 103.761 23.5902 103.509 23.4395C103.257 23.2888 102.973 23.201 102.68 23.1835C101.228 23.1055 99.7723 23.1055 98.32 23.1835C98.027 23.201 97.7426 23.2888 97.4908 23.4395C97.239 23.5902 97.0272 23.7994 96.8733 24.0493L96.1892 25.146Z" stroke="#0472DD" stroke-width="1.5" stroke-linecap="round" stroke-linejoin="round"/>
<path d="M104.25 30.625C104.25 31.6196 103.855 32.5734 103.152 33.2766C102.448 33.9799 101.495 34.375 100.5 34.375C99.5054 34.375 98.5516 33.9799 97.8483 33.2766C97.1451 32.5734 96.75 31.6196 96.75 30.625C96.75 29.6304 97.1451 28.6766 97.8483 27.9733C98.5516 27.2701 99.5054 26.875 100.5 26.875C101.495 26.875 102.448 27.2701 103.152 27.9733C103.855 28.6766 104.25 29.6304 104.25 30.625ZM106.125 28.75H106.132V28.7567H106.125V28.75Z" stroke="#0472DD" stroke-width="1.5" stroke-linecap="round" stroke-linejoin="round"/>
<path d="M55.5938 57.625H57.5469V65.2266C57.5469 66.0911 57.3594 66.8151 56.9844 67.3984C56.6094 67.9818 56.099 68.4219 55.4531 68.7188C54.8125 69.0104 54.0964 69.1562 53.3047 69.1562C52.487 69.1562 51.7578 69.0104 51.1172 68.7188C50.4766 68.4219 49.9714 67.9818 49.6016 67.3984C49.237 66.8151 49.0547 66.0911 49.0547 65.2266V57.625H51.0078V65.2266C51.0078 65.7734 51.1016 66.224 51.2891 66.5781C51.4766 66.9271 51.7422 67.1849 52.0859 67.3516C52.4297 67.5182 52.8359 67.6016 53.3047 67.6016C53.7734 67.6016 54.1771 67.5182 54.5156 67.3516C54.8594 67.1849 55.125 66.9271 55.3125 66.5781C55.5 66.224 55.5938 65.7734 55.5938 65.2266V57.625ZM61.3828 62.1719V72.25H59.5V60.5469H61.2344L61.3828 62.1719ZM66.8906 64.6953V64.8594C66.8906 65.474 66.8177 66.0443 66.6719 66.5703C66.5312 67.0911 66.3203 67.5469 66.0391 67.9375C65.763 68.3229 65.4219 68.6224 65.0156 68.8359C64.6094 69.0495 64.1406 69.1562 63.6094 69.1562C63.0833 69.1562 62.6224 69.0599 62.2266 68.8672C61.8359 68.6693 61.5052 68.3906 61.2344 68.0312C60.9635 67.6719 60.7448 67.25 60.5781 66.7656C60.4167 66.276 60.3021 65.7396 60.2344 65.1562V64.5234C60.3021 63.9036 60.4167 63.3411 60.5781 62.8359C60.7448 62.3307 60.9635 61.8958 61.2344 61.5312C61.5052 61.1667 61.8359 60.8854 62.2266 60.6875C62.6172 60.4896 63.0729 60.3906 63.5938 60.3906C64.125 60.3906 64.5964 60.4948 65.0078 60.7031C65.4193 60.9062 65.7656 61.1979 66.0469 61.5781C66.3281 61.9531 66.5391 62.4062 66.6797 62.9375C66.8203 63.4635 66.8906 64.0495 66.8906 64.6953ZM65.0078 64.8594V64.6953C65.0078 64.3047 64.9714 63.9427 64.8984 63.6094C64.8255 63.2708 64.7109 62.974 64.5547 62.7188C64.3984 62.4635 64.1979 62.2656 63.9531 62.125C63.7135 61.9792 63.4245 61.9062 63.0859 61.9062C62.7526 61.9062 62.4661 61.9635 62.2266 62.0781C61.987 62.1875 61.7865 62.3411 61.625 62.5391C61.4635 62.737 61.3385 62.9688 61.25 63.2344C61.1615 63.4948 61.099 63.7786 61.0625 64.0859V65.6016C61.125 65.9766 61.2318 66.3203 61.3828 66.6328C61.5339 66.9453 61.7474 67.1953 62.0234 67.3828C62.3047 67.5651 62.6641 67.6562 63.1016 67.6562C63.4401 67.6562 63.7292 67.5833 63.9688 67.4375C64.2083 67.2917 64.4036 67.0911 64.5547 66.8359C64.7109 66.5755 64.8255 66.276 64.8984 65.9375C64.9714 65.599 65.0078 65.2396 65.0078 64.8594ZM70.5078 57V69H68.6172V57H70.5078ZM72.2109 64.8672V64.6875C72.2109 64.0781 72.2995 63.513 72.4766 62.9922C72.6536 62.4661 72.9089 62.0104 73.2422 61.625C73.5807 61.2344 73.9922 60.9323 74.4766 60.7188C74.9661 60.5 75.5182 60.3906 76.1328 60.3906C76.7526 60.3906 77.3047 60.5 77.7891 60.7188C78.2786 60.9323 78.6927 61.2344 79.0312 61.625C79.3698 62.0104 79.6276 62.4661 79.8047 62.9922C79.9818 63.513 80.0703 64.0781 80.0703 64.6875V64.8672C80.0703 65.4766 79.9818 66.0417 79.8047 66.5625C79.6276 67.0833 79.3698 67.5391 79.0312 67.9297C78.6927 68.3151 78.2812 68.6172 77.7969 68.8359C77.3125 69.0495 76.763 69.1562 76.1484 69.1562C75.5286 69.1562 74.974 69.0495 74.4844 68.8359C74 68.6172 73.5885 68.3151 73.25 67.9297C72.9115 67.5391 72.6536 67.0833 72.4766 66.5625C72.2995 66.0417 72.2109 65.4766 72.2109 64.8672ZM74.0938 64.6875V64.8672C74.0938 65.2474 74.1328 65.6068 74.2109 65.9453C74.2891 66.2839 74.4115 66.5807 74.5781 66.8359C74.7448 67.0911 74.9583 67.2917 75.2188 67.4375C75.4792 67.5833 75.7891 67.6562 76.1484 67.6562C76.4974 67.6562 76.7995 67.5833 77.0547 67.4375C77.3151 67.2917 77.5286 67.0911 77.6953 66.8359C77.862 66.5807 77.9844 66.2839 78.0625 65.9453C78.1458 65.6068 78.1875 65.2474 78.1875 64.8672V64.6875C78.1875 64.3125 78.1458 63.9583 78.0625 63.625C77.9844 63.2865 77.8594 62.987 77.6875 62.7266C77.5208 62.4661 77.3073 62.263 77.0469 62.1172C76.7917 61.9661 76.487 61.8906 76.1328 61.8906C75.7786 61.8906 75.4714 61.9661 75.2109 62.1172C74.9557 62.263 74.7448 62.4661 74.5781 62.7266C74.4115 62.987 74.2891 63.2865 74.2109 63.625C74.1328 63.9583 74.0938 64.3125 74.0938 64.6875ZM86.4141 67.3047V63.2734C86.4141 62.9714 86.3594 62.7109 86.25 62.4922C86.1406 62.2734 85.974 62.1042 85.75 61.9844C85.5312 61.8646 85.2552 61.8047 84.9219 61.8047C84.6146 61.8047 84.349 61.8568 84.125 61.9609C83.901 62.0651 83.7266 62.2057 83.6016 62.3828C83.4766 62.5599 83.4141 62.7604 83.4141 62.9844H81.5391C81.5391 62.651 81.6198 62.3281 81.7812 62.0156C81.9427 61.7031 82.1771 61.4245 82.4844 61.1797C82.7917 60.9349 83.1589 60.7422 83.5859 60.6016C84.013 60.4609 84.4922 60.3906 85.0234 60.3906C85.6589 60.3906 86.2214 60.4974 86.7109 60.7109C87.2057 60.9245 87.5938 61.2474 87.875 61.6797C88.1615 62.1068 88.3047 62.6432 88.3047 63.2891V67.0469C88.3047 67.4323 88.3307 67.7786 88.3828 68.0859C88.4401 68.388 88.5208 68.651 88.625 68.875V69H86.6953C86.6068 68.7969 86.5365 68.5391 86.4844 68.2266C86.4375 67.9089 86.4141 67.6016 86.4141 67.3047ZM86.6875 63.8594L86.7031 65.0234H85.3516C85.0026 65.0234 84.6953 65.0573 84.4297 65.125C84.1641 65.1875 83.9427 65.2812 83.7656 65.4062C83.5885 65.5312 83.4557 65.6823 83.3672 65.8594C83.2786 66.0365 83.2344 66.237 83.2344 66.4609C83.2344 66.6849 83.2865 66.8906 83.3906 67.0781C83.4948 67.2604 83.6458 67.4036 83.8438 67.5078C84.0469 67.612 84.2917 67.6641 84.5781 67.6641C84.9635 67.6641 85.2995 67.5859 85.5859 67.4297C85.8776 67.2682 86.1068 67.0729 86.2734 66.8438C86.4401 66.6094 86.5286 66.388 86.5391 66.1797L87.1484 67.0156C87.0859 67.2292 86.9792 67.4583 86.8281 67.7031C86.6771 67.9479 86.4792 68.1823 86.2344 68.4062C85.9948 68.625 85.7057 68.8047 85.3672 68.9453C85.0339 69.0859 84.6484 69.1562 84.2109 69.1562C83.6589 69.1562 83.1667 69.0469 82.7344 68.8281C82.3021 68.6042 81.9635 68.3047 81.7188 67.9297C81.474 67.5495 81.3516 67.1198 81.3516 66.6406C81.3516 66.1927 81.4349 65.7969 81.6016 65.4531C81.7734 65.1042 82.0234 64.8125 82.3516 64.5781C82.6849 64.3438 83.0911 64.1667 83.5703 64.0469C84.0495 63.9219 84.5964 63.8594 85.2109 63.8594H86.6875ZM95.4297 67.25V57H97.3203V69H95.6094L95.4297 67.25ZM89.9297 64.8672V64.7031C89.9297 64.0625 90.0052 63.4792 90.1562 62.9531C90.3073 62.4219 90.526 61.9661 90.8125 61.5859C91.099 61.2005 91.4479 60.9062 91.8594 60.7031C92.2708 60.4948 92.7344 60.3906 93.25 60.3906C93.7604 60.3906 94.2083 60.4896 94.5938 60.6875C94.9792 60.8854 95.3073 61.1693 95.5781 61.5391C95.849 61.9036 96.0651 62.3411 96.2266 62.8516C96.388 63.3568 96.5026 63.9193 96.5703 64.5391V65.0625C96.5026 65.6667 96.388 66.2188 96.2266 66.7188C96.0651 67.2188 95.849 67.651 95.5781 68.0156C95.3073 68.3802 94.9766 68.6615 94.5859 68.8594C94.2005 69.0573 93.75 69.1562 93.2344 69.1562C92.724 69.1562 92.263 69.0495 91.8516 68.8359C91.4453 68.6224 91.099 68.3229 90.8125 67.9375C90.526 67.5521 90.3073 67.099 90.1562 66.5781C90.0052 66.0521 89.9297 65.4818 89.9297 64.8672ZM91.8125 64.7031V64.8672C91.8125 65.2526 91.8464 65.612 91.9141 65.9453C91.987 66.2786 92.099 66.5729 92.25 66.8281C92.401 67.0781 92.5964 67.276 92.8359 67.4219C93.0807 67.5625 93.3724 67.6328 93.7109 67.6328C94.138 67.6328 94.4896 67.5391 94.7656 67.3516C95.0417 67.1641 95.2578 66.9115 95.4141 66.5938C95.5755 66.2708 95.6849 65.9115 95.7422 65.5156V64.1016C95.7109 63.7943 95.6458 63.5078 95.5469 63.2422C95.4531 62.9766 95.3255 62.7448 95.1641 62.5469C95.0026 62.3438 94.8021 62.1875 94.5625 62.0781C94.3281 61.9635 94.0495 61.9062 93.7266 61.9062C93.3828 61.9062 93.0911 61.9792 92.8516 62.125C92.612 62.2708 92.4141 62.4714 92.2578 62.7266C92.1068 62.9818 91.9948 63.2786 91.9219 63.6172C91.849 63.9557 91.8125 64.3177 91.8125 64.7031ZM107.781 64.7578H104.82V63.2031H107.781C108.297 63.2031 108.714 63.1198 109.031 62.9531C109.349 62.7865 109.581 62.5573 109.727 62.2656C109.878 61.9688 109.953 61.6302 109.953 61.25C109.953 60.8906 109.878 60.5547 109.727 60.2422C109.581 59.9245 109.349 59.6693 109.031 59.4766C108.714 59.2839 108.297 59.1875 107.781 59.1875H105.422V69H103.461V57.625H107.781C108.661 57.625 109.409 57.7812 110.023 58.0938C110.643 58.401 111.115 58.8281 111.438 59.375C111.76 59.9167 111.922 60.5365 111.922 61.2344C111.922 61.9688 111.76 62.599 111.438 63.125C111.115 63.651 110.643 64.0547 110.023 64.3359C109.409 64.6172 108.661 64.7578 107.781 64.7578ZM115.352 57V69H113.477V57H115.352ZM115.023 64.4609L114.414 64.4531C114.419 63.8698 114.5 63.3307 114.656 62.8359C114.818 62.3411 115.042 61.9115 115.328 61.5469C115.62 61.1771 115.969 60.8932 116.375 60.6953C116.781 60.4922 117.232 60.3906 117.727 60.3906C118.143 60.3906 118.518 60.4479 118.852 60.5625C119.19 60.6771 119.482 60.862 119.727 61.1172C119.971 61.3672 120.156 61.6953 120.281 62.1016C120.411 62.5026 120.477 62.9922 120.477 63.5703V69H118.586V63.5547C118.586 63.1484 118.526 62.8255 118.406 62.5859C118.292 62.3464 118.122 62.1745 117.898 62.0703C117.674 61.9609 117.401 61.9062 117.078 61.9062C116.74 61.9062 116.44 61.974 116.18 62.1094C115.924 62.2448 115.711 62.4297 115.539 62.6641C115.367 62.8984 115.237 63.1693 115.148 63.4766C115.065 63.7839 115.023 64.112 115.023 64.4609ZM122.023 64.8672V64.6875C122.023 64.0781 122.112 63.513 122.289 62.9922C122.466 62.4661 122.721 62.0104 123.055 61.625C123.393 61.2344 123.805 60.9323 124.289 60.7188C124.779 60.5 125.331 60.3906 125.945 60.3906C126.565 60.3906 127.117 60.5 127.602 60.7188C128.091 60.9323 128.505 61.2344 128.844 61.625C129.182 62.0104 129.44 62.4661 129.617 62.9922C129.794 63.513 129.883 64.0781 129.883 64.6875V64.8672C129.883 65.4766 129.794 66.0417 129.617 66.5625C129.44 67.0833 129.182 67.5391 128.844 67.9297C128.505 68.3151 128.094 68.6172 127.609 68.8359C127.125 69.0495 126.576 69.1562 125.961 69.1562C125.341 69.1562 124.786 69.0495 124.297 68.8359C123.812 68.6172 123.401 68.3151 123.062 67.9297C122.724 67.5391 122.466 67.0833 122.289 66.5625C122.112 66.0417 122.023 65.4766 122.023 64.8672ZM123.906 64.6875V64.8672C123.906 65.2474 123.945 65.6068 124.023 65.9453C124.102 66.2839 124.224 66.5807 124.391 66.8359C124.557 67.0911 124.771 67.2917 125.031 67.4375C125.292 67.5833 125.602 67.6562 125.961 67.6562C126.31 67.6562 126.612 67.5833 126.867 67.4375C127.128 67.2917 127.341 67.0911 127.508 66.8359C127.674 66.5807 127.797 66.2839 127.875 65.9453C127.958 65.6068 128 65.2474 128 64.8672V64.6875C128 64.3125 127.958 63.9583 127.875 63.625C127.797 63.2865 127.672 62.987 127.5 62.7266C127.333 62.4661 127.12 62.263 126.859 62.1172C126.604 61.9661 126.299 61.8906 125.945 61.8906C125.591 61.8906 125.284 61.9661 125.023 62.1172C124.768 62.263 124.557 62.4661 124.391 62.7266C124.224 62.987 124.102 63.2865 124.023 63.625C123.945 63.9583 123.906 64.3125 123.906 64.6875ZM135.336 60.5469V61.9219H130.57V60.5469H135.336ZM131.945 58.4766H133.828V66.6641C133.828 66.9245 133.865 67.125 133.938 67.2656C134.016 67.401 134.122 67.4922 134.258 67.5391C134.393 67.5859 134.552 67.6094 134.734 67.6094C134.865 67.6094 134.99 67.6016 135.109 67.5859C135.229 67.5703 135.326 67.5547 135.398 67.5391L135.406 68.9766C135.25 69.0234 135.068 69.0651 134.859 69.1016C134.656 69.138 134.422 69.1562 134.156 69.1562C133.724 69.1562 133.341 69.0807 133.008 68.9297C132.674 68.7734 132.414 68.5208 132.227 68.1719C132.039 67.8229 131.945 67.3594 131.945 66.7812V58.4766ZM136.242 64.8672V64.6875C136.242 64.0781 136.331 63.513 136.508 62.9922C136.685 62.4661 136.94 62.0104 137.273 61.625C137.612 61.2344 138.023 60.9323 138.508 60.7188C138.997 60.5 139.549 60.3906 140.164 60.3906C140.784 60.3906 141.336 60.5 141.82 60.7188C142.31 60.9323 142.724 61.2344 143.062 61.625C143.401 62.0104 143.659 62.4661 143.836 62.9922C144.013 63.513 144.102 64.0781 144.102 64.6875V64.8672C144.102 65.4766 144.013 66.0417 143.836 66.5625C143.659 67.0833 143.401 67.5391 143.062 67.9297C142.724 68.3151 142.312 68.6172 141.828 68.8359C141.344 69.0495 140.794 69.1562 140.18 69.1562C139.56 69.1562 139.005 69.0495 138.516 68.8359C138.031 68.6172 137.62 68.3151 137.281 67.9297C136.943 67.5391 136.685 67.0833 136.508 66.5625C136.331 66.0417 136.242 65.4766 136.242 64.8672ZM138.125 64.6875V64.8672C138.125 65.2474 138.164 65.6068 138.242 65.9453C138.32 66.2839 138.443 66.5807 138.609 66.8359C138.776 67.0911 138.99 67.2917 139.25 67.4375C139.51 67.5833 139.82 67.6562 140.18 67.6562C140.529 67.6562 140.831 67.5833 141.086 67.4375C141.346 67.2917 141.56 67.0911 141.727 66.8359C141.893 66.5807 142.016 66.2839 142.094 65.9453C142.177 65.6068 142.219 65.2474 142.219 64.8672V64.6875C142.219 64.3125 142.177 63.9583 142.094 63.625C142.016 63.2865 141.891 62.987 141.719 62.7266C141.552 62.4661 141.339 62.263 141.078 62.1172C140.823 61.9661 140.518 61.8906 140.164 61.8906C139.81 61.8906 139.503 61.9661 139.242 62.1172C138.987 62.263 138.776 62.4661 138.609 62.7266C138.443 62.987 138.32 63.2865 138.242 63.625C138.164 63.9583 138.125 64.3125 138.125 64.6875ZM150.422 66.7109C150.422 66.5234 150.375 66.3542 150.281 66.2031C150.188 66.0469 150.008 65.9062 149.742 65.7812C149.482 65.6562 149.096 65.5417 148.586 65.4375C148.138 65.3385 147.727 65.2214 147.352 65.0859C146.982 64.9453 146.664 64.776 146.398 64.5781C146.133 64.3802 145.927 64.1458 145.781 63.875C145.635 63.6042 145.562 63.2917 145.562 62.9375C145.562 62.5938 145.638 62.2682 145.789 61.9609C145.94 61.6536 146.156 61.3828 146.438 61.1484C146.719 60.9141 147.06 60.7292 147.461 60.5938C147.867 60.4583 148.32 60.3906 148.82 60.3906C149.529 60.3906 150.135 60.5104 150.641 60.75C151.151 60.9844 151.542 61.3047 151.812 61.7109C152.083 62.112 152.219 62.5651 152.219 63.0703H150.336C150.336 62.8464 150.279 62.638 150.164 62.4453C150.055 62.2474 149.888 62.0885 149.664 61.9688C149.44 61.8438 149.159 61.7812 148.82 61.7812C148.497 61.7812 148.229 61.8333 148.016 61.9375C147.807 62.0365 147.651 62.1667 147.547 62.3281C147.448 62.4896 147.398 62.6667 147.398 62.8594C147.398 63 147.424 63.1276 147.477 63.2422C147.534 63.3516 147.628 63.4531 147.758 63.5469C147.888 63.6354 148.065 63.7188 148.289 63.7969C148.518 63.875 148.805 63.9505 149.148 64.0234C149.794 64.1589 150.349 64.3333 150.812 64.5469C151.281 64.7552 151.641 65.026 151.891 65.3594C152.141 65.6875 152.266 66.1042 152.266 66.6094C152.266 66.9844 152.185 67.3281 152.023 67.6406C151.867 67.9479 151.638 68.2161 151.336 68.4453C151.034 68.6693 150.672 68.8438 150.25 68.9688C149.833 69.0938 149.365 69.1562 148.844 69.1562C148.078 69.1562 147.43 69.0208 146.898 68.75C146.367 68.474 145.964 68.1224 145.688 67.6953C145.417 67.263 145.281 66.8151 145.281 66.3516H147.102C147.122 66.7005 147.219 66.9792 147.391 67.1875C147.568 67.3906 147.786 67.5391 148.047 67.6328C148.312 67.7214 148.586 67.7656 148.867 67.7656C149.206 67.7656 149.49 67.7214 149.719 67.6328C149.948 67.5391 150.122 67.4141 150.242 67.2578C150.362 67.0964 150.422 66.9141 150.422 66.7109Z" fill="white"/>
<defs>
<filter id="filter0_d_113_7454" x="0.5" y="0" width="199" height="89" filterUnits="userSpaceOnUse" color-interpolation-filters="sRGB">
<feFlood flood-opacity="0" result="BackgroundImageFix"/>
<feColorMatrix in="SourceAlpha" type="matrix" values="0 0 0 0 0 0 0 0 0 0 0 0 0 0 0 0 0 0 127 0" result="hardAlpha"/>
<feOffset/>
<feGaussianBlur stdDeviation="2"/>
<feComposite in2="hardAlpha" operator="out"/>
<feColorMatrix type="matrix" values="0 0 0 0 0 0 0 0 0 0 0 0 0 0 0 0 0 0 0.25 0"/>
<feBlend mode="normal" in2="BackgroundImageFix" result="effect1_dropShadow_113_7454"/>
<feBlend mode="normal" in="SourceGraphic" in2="effect1_dropShadow_113_7454" result="shape"/>
</filter>
<linearGradient id="paint0_linear_113_7454" x1="-31" y1="14.9766" x2="221.185" y2="97.3098" gradientUnits="userSpaceOnUse">
<stop stop-color="#1959BA"/>
<stop offset="1" stop-color="#51A9FF"/>
</linearGradient>
</defs>
</svg>
