<svg width="64" height="63" viewBox="0 0 64 63" fill="none" xmlns="http://www.w3.org/2000/svg">
<rect width="64" height="62.2222" rx="31.1111" fill="#1E90FF" fill-opacity="0.1"/>
<path d="M21.8418 42.6671C17.6338 42.6671 14.2222 39.2964 14.2222 35.1382C14.2222 30.98 17.6338 27.6075 21.8418 27.6075C22.3479 27.6087 22.8397 27.6561 23.3173 27.7498M23.3173 27.7498C22.9006 26.6341 22.6875 25.4527 22.688 24.2618C22.688 18.7169 27.2356 14.2227 32.8462 14.2227C38.0729 14.2227 42.3769 18.1231 42.944 23.1382M23.3173 27.7498C24.3008 27.9413 25.2371 28.3242 26.0729 28.8769M36.2329 23.1595C37.3219 22.7813 38.4667 22.5884 39.6196 22.5889C40.7822 22.5889 41.9005 22.7827 42.944 23.1382M42.944 23.1382C46.9191 24.4982 49.7778 28.2333 49.7778 32.628C49.7778 37.4404 46.352 41.4635 41.7778 42.4413" stroke="#1E90FF" stroke-width="2.66667" stroke-linecap="round"/>
<path d="M32 37.334V48.0007M32 37.334L35.5556 40.8895M32 37.334L28.4445 40.8895" stroke="#1E90FF" stroke-width="2.66667" stroke-linecap="round" stroke-linejoin="round"/>
</svg>
