<svg width="200" height="89" viewBox="0 0 200 89" fill="none" xmlns="http://www.w3.org/2000/svg">
<g filter="url(#filter0_d_48_2292)">
<rect x="4.5" y="4" width="191" height="81" rx="4" fill="url(#paint0_linear_48_2292)"/>
</g>
<circle cx="100.5" cy="30" r="16" fill="white"/>
<path d="M102.167 21.668H95.5C95.058 21.668 94.6341 21.8436 94.3215 22.1561C94.009 22.4687 93.8334 22.8926 93.8334 23.3346V36.668C93.8334 37.11 94.009 37.5339 94.3215 37.8465C94.6341 38.159 95.058 38.3346 95.5 38.3346H105.5C105.942 38.3346 106.366 38.159 106.679 37.8465C106.991 37.5339 107.167 37.11 107.167 36.668V26.668L102.167 21.668Z" stroke="#56A0DD" stroke-width="2" stroke-linecap="round" stroke-linejoin="round"/>
<path d="M102.167 21.668V26.668H107.167" stroke="#56A0DD" stroke-width="2" stroke-linecap="round" stroke-linejoin="round"/>
<path d="M103.833 30.832H97.1666" stroke="#56A0DD" stroke-width="2" stroke-linecap="round" stroke-linejoin="round"/>
<path d="M103.833 34.168H97.1666" stroke="#56A0DD" stroke-width="2" stroke-linecap="round" stroke-linejoin="round"/>
<path d="M98.8334 27.5H98H97.1667" stroke="#56A0DD" stroke-width="2" stroke-linecap="round" stroke-linejoin="round"/>
<path d="M47.4766 66.9219L50.4688 57.625H52.6328L48.5547 69H47.0938L47.4766 66.9219ZM44.7109 57.625L47.6797 66.9219L48.0859 69H46.6172L42.5547 57.625H44.7109ZM55.7344 60.5469V69H53.8438V60.5469H55.7344ZM53.7188 58.3281C53.7188 58.0417 53.8125 57.8047 54 57.6172C54.1927 57.4245 54.4583 57.3281 54.7969 57.3281C55.1302 57.3281 55.3932 57.4245 55.5859 57.6172C55.7786 57.8047 55.875 58.0417 55.875 58.3281C55.875 58.6094 55.7786 58.8438 55.5859 59.0312C55.3932 59.2188 55.1302 59.3125 54.7969 59.3125C54.4583 59.3125 54.1927 59.2188 54 59.0312C53.8125 58.8438 53.7188 58.6094 53.7188 58.3281ZM61.5234 69.1562C60.8984 69.1562 60.3333 69.0547 59.8281 68.8516C59.3281 68.6432 58.901 68.3542 58.5469 67.9844C58.1979 67.6146 57.9297 67.1797 57.7422 66.6797C57.5547 66.1797 57.4609 65.6406 57.4609 65.0625V64.75C57.4609 64.0885 57.5573 63.4896 57.75 62.9531C57.9427 62.4167 58.2109 61.9583 58.5547 61.5781C58.8984 61.1927 59.3047 60.8984 59.7734 60.6953C60.2422 60.4922 60.75 60.3906 61.2969 60.3906C61.901 60.3906 62.4297 60.4922 62.8828 60.6953C63.3359 60.8984 63.7109 61.1849 64.0078 61.5547C64.3099 61.9193 64.5339 62.3542 64.6797 62.8594C64.8307 63.3646 64.9062 63.9219 64.9062 64.5312V65.3359H58.375V63.9844H63.0469V63.8359C63.0365 63.4974 62.9688 63.1797 62.8438 62.8828C62.724 62.5859 62.5391 62.3464 62.2891 62.1641C62.0391 61.9818 61.7057 61.8906 61.2891 61.8906C60.9766 61.8906 60.6979 61.9583 60.4531 62.0938C60.2135 62.224 60.013 62.4141 59.8516 62.6641C59.6901 62.9141 59.5651 63.2161 59.4766 63.5703C59.3932 63.9193 59.3516 64.3125 59.3516 64.75V65.0625C59.3516 65.4323 59.401 65.776 59.5 66.0938C59.6042 66.4062 59.7552 66.6797 59.9531 66.9141C60.151 67.1484 60.3906 67.3333 60.6719 67.4688C60.9531 67.599 61.2734 67.6641 61.6328 67.6641C62.0859 67.6641 62.4896 67.5729 62.8438 67.3906C63.1979 67.2083 63.5052 66.9505 63.7656 66.6172L64.7578 67.5781C64.5755 67.8438 64.3385 68.099 64.0469 68.3438C63.7552 68.5833 63.3984 68.7786 62.9766 68.9297C62.5599 69.0807 62.0755 69.1562 61.5234 69.1562ZM68.6719 67.125L70.625 60.5469H71.8281L71.5 62.5156L69.5312 69H68.4531L68.6719 67.125ZM67.5234 60.5469L69.0469 67.1562L69.1719 69H67.9688L65.6797 60.5469H67.5234ZM73.6562 67.0781L75.1328 60.5469H76.9688L74.6875 69H73.4844L73.6562 67.0781ZM72.0312 60.5469L73.9609 67.0469L74.2031 69H73.125L71.1328 62.5078L70.8047 60.5469H72.0312ZM84.5156 57.625V69H82.5547V57.625H84.5156ZM88.6328 62.3516V69H86.75V60.5469H88.5234L88.6328 62.3516ZM88.2969 64.4609L87.6875 64.4531C87.6927 63.8542 87.776 63.3047 87.9375 62.8047C88.1042 62.3047 88.3333 61.875 88.625 61.5156C88.9219 61.1562 89.276 60.8802 89.6875 60.6875C90.099 60.4896 90.5573 60.3906 91.0625 60.3906C91.4688 60.3906 91.8359 60.4479 92.1641 60.5625C92.4974 60.6719 92.7812 60.8516 93.0156 61.1016C93.2552 61.3516 93.4375 61.6771 93.5625 62.0781C93.6875 62.474 93.75 62.9609 93.75 63.5391V69H91.8594V63.5312C91.8594 63.125 91.7995 62.8047 91.6797 62.5703C91.5651 62.3307 91.3958 62.1615 91.1719 62.0625C90.9531 61.9583 90.6797 61.9062 90.3516 61.9062C90.0286 61.9062 89.7396 61.974 89.4844 62.1094C89.2292 62.2448 89.013 62.4297 88.8359 62.6641C88.6641 62.8984 88.5312 63.1693 88.4375 63.4766C88.3438 63.7839 88.2969 64.112 88.2969 64.4609ZM100.414 66.7109C100.414 66.5234 100.367 66.3542 100.273 66.2031C100.18 66.0469 100 65.9062 99.7344 65.7812C99.474 65.6562 99.0885 65.5417 98.5781 65.4375C98.1302 65.3385 97.7188 65.2214 97.3438 65.0859C96.974 64.9453 96.6562 64.776 96.3906 64.5781C96.125 64.3802 95.9193 64.1458 95.7734 63.875C95.6276 63.6042 95.5547 63.2917 95.5547 62.9375C95.5547 62.5938 95.6302 62.2682 95.7812 61.9609C95.9323 61.6536 96.1484 61.3828 96.4297 61.1484C96.7109 60.9141 97.0521 60.7292 97.4531 60.5938C97.8594 60.4583 98.3125 60.3906 98.8125 60.3906C99.5208 60.3906 100.128 60.5104 100.633 60.75C101.143 60.9844 101.534 61.3047 101.805 61.7109C102.076 62.112 102.211 62.5651 102.211 63.0703H100.328C100.328 62.8464 100.271 62.638 100.156 62.4453C100.047 62.2474 99.8802 62.0885 99.6562 61.9688C99.4323 61.8438 99.151 61.7812 98.8125 61.7812C98.4896 61.7812 98.2214 61.8333 98.0078 61.9375C97.7995 62.0365 97.6432 62.1667 97.5391 62.3281C97.4401 62.4896 97.3906 62.6667 97.3906 62.8594C97.3906 63 97.4167 63.1276 97.4688 63.2422C97.526 63.3516 97.6198 63.4531 97.75 63.5469C97.8802 63.6354 98.0573 63.7188 98.2812 63.7969C98.5104 63.875 98.7969 63.9505 99.1406 64.0234C99.7865 64.1589 100.341 64.3333 100.805 64.5469C101.273 64.7552 101.633 65.026 101.883 65.3594C102.133 65.6875 102.258 66.1042 102.258 66.6094C102.258 66.9844 102.177 67.3281 102.016 67.6406C101.859 67.9479 101.63 68.2161 101.328 68.4453C101.026 68.6693 100.664 68.8438 100.242 68.9688C99.8255 69.0938 99.3568 69.1562 98.8359 69.1562C98.0703 69.1562 97.4219 69.0208 96.8906 68.75C96.3594 68.474 95.9557 68.1224 95.6797 67.6953C95.4089 67.263 95.2734 66.8151 95.2734 66.3516H97.0938C97.1146 66.7005 97.2109 66.9792 97.3828 67.1875C97.5599 67.3906 97.7786 67.5391 98.0391 67.6328C98.3047 67.7214 98.5781 67.7656 98.8594 67.7656C99.1979 67.7656 99.4818 67.7214 99.7109 67.6328C99.9401 67.5391 100.115 67.4141 100.234 67.2578C100.354 67.0964 100.414 66.9141 100.414 66.7109ZM107.781 60.5469V61.9219H103.016V60.5469H107.781ZM104.391 58.4766H106.273V66.6641C106.273 66.9245 106.31 67.125 106.383 67.2656C106.461 67.401 106.568 67.4922 106.703 67.5391C106.839 67.5859 106.997 67.6094 107.18 67.6094C107.31 67.6094 107.435 67.6016 107.555 67.5859C107.674 67.5703 107.771 67.5547 107.844 67.5391L107.852 68.9766C107.695 69.0234 107.513 69.0651 107.305 69.1016C107.102 69.138 106.867 69.1562 106.602 69.1562C106.169 69.1562 105.786 69.0807 105.453 68.9297C105.12 68.7734 104.859 68.5208 104.672 68.1719C104.484 67.8229 104.391 67.3594 104.391 66.7812V58.4766ZM111.125 62.1562V69H109.242V60.5469H111.039L111.125 62.1562ZM113.711 60.4922L113.695 62.2422C113.581 62.2214 113.456 62.2057 113.32 62.1953C113.19 62.1849 113.06 62.1797 112.93 62.1797C112.607 62.1797 112.323 62.2266 112.078 62.3203C111.833 62.4089 111.628 62.5391 111.461 62.7109C111.299 62.8776 111.174 63.0807 111.086 63.3203C110.997 63.5599 110.945 63.8281 110.93 64.125L110.5 64.1562C110.5 63.625 110.552 63.1328 110.656 62.6797C110.76 62.2266 110.917 61.8281 111.125 61.4844C111.339 61.1406 111.604 60.8724 111.922 60.6797C112.245 60.487 112.617 60.3906 113.039 60.3906C113.154 60.3906 113.276 60.401 113.406 60.4219C113.542 60.4427 113.643 60.4661 113.711 60.4922ZM119.977 67.0078V60.5469H121.867V69H120.086L119.977 67.0078ZM120.242 65.25L120.875 65.2344C120.875 65.8021 120.812 66.3255 120.688 66.8047C120.562 67.2786 120.37 67.6927 120.109 68.0469C119.849 68.3958 119.516 68.6693 119.109 68.8672C118.703 69.0599 118.216 69.1562 117.648 69.1562C117.237 69.1562 116.859 69.0964 116.516 68.9766C116.172 68.8568 115.875 68.6719 115.625 68.4219C115.38 68.1719 115.19 67.8464 115.055 67.4453C114.919 67.0443 114.852 66.5651 114.852 66.0078V60.5469H116.734V66.0234C116.734 66.3307 116.771 66.5885 116.844 66.7969C116.917 67 117.016 67.1641 117.141 67.2891C117.266 67.4141 117.411 67.5026 117.578 67.5547C117.745 67.6068 117.922 67.6328 118.109 67.6328C118.646 67.6328 119.068 67.5286 119.375 67.3203C119.688 67.1068 119.909 66.8203 120.039 66.4609C120.174 66.1016 120.242 65.6979 120.242 65.25ZM127.25 67.6562C127.557 67.6562 127.833 67.5964 128.078 67.4766C128.328 67.3516 128.529 67.1797 128.68 66.9609C128.836 66.7422 128.922 66.4896 128.938 66.2031H130.711C130.701 66.75 130.539 67.2474 130.227 67.6953C129.914 68.1432 129.5 68.5 128.984 68.7656C128.469 69.026 127.898 69.1562 127.273 69.1562C126.628 69.1562 126.065 69.0469 125.586 68.8281C125.107 68.6042 124.708 68.2969 124.391 67.9062C124.073 67.5156 123.833 67.0651 123.672 66.5547C123.516 66.0443 123.438 65.4974 123.438 64.9141V64.6406C123.438 64.0573 123.516 63.5104 123.672 63C123.833 62.4844 124.073 62.0312 124.391 61.6406C124.708 61.25 125.107 60.9453 125.586 60.7266C126.065 60.5026 126.625 60.3906 127.266 60.3906C127.943 60.3906 128.536 60.526 129.047 60.7969C129.557 61.0625 129.958 61.4349 130.25 61.9141C130.547 62.388 130.701 62.9401 130.711 63.5703H128.938C128.922 63.2578 128.844 62.9766 128.703 62.7266C128.568 62.4714 128.375 62.2682 128.125 62.1172C127.88 61.9661 127.586 61.8906 127.242 61.8906C126.862 61.8906 126.547 61.9688 126.297 62.125C126.047 62.276 125.852 62.4844 125.711 62.75C125.57 63.0104 125.469 63.3047 125.406 63.6328C125.349 63.9557 125.32 64.2917 125.32 64.6406V64.9141C125.32 65.263 125.349 65.6016 125.406 65.9297C125.464 66.2578 125.562 66.5521 125.703 66.8125C125.849 67.0677 126.047 67.2734 126.297 67.4297C126.547 67.5807 126.865 67.6562 127.25 67.6562ZM136.031 60.5469V61.9219H131.266V60.5469H136.031ZM132.641 58.4766H134.523V66.6641C134.523 66.9245 134.56 67.125 134.633 67.2656C134.711 67.401 134.818 67.4922 134.953 67.5391C135.089 67.5859 135.247 67.6094 135.43 67.6094C135.56 67.6094 135.685 67.6016 135.805 67.5859C135.924 67.5703 136.021 67.5547 136.094 67.5391L136.102 68.9766C135.945 69.0234 135.763 69.0651 135.555 69.1016C135.352 69.138 135.117 69.1562 134.852 69.1562C134.419 69.1562 134.036 69.0807 133.703 68.9297C133.37 68.7734 133.109 68.5208 132.922 68.1719C132.734 67.8229 132.641 67.3594 132.641 66.7812V58.4766ZM139.5 60.5469V69H137.609V60.5469H139.5ZM137.484 58.3281C137.484 58.0417 137.578 57.8047 137.766 57.6172C137.958 57.4245 138.224 57.3281 138.562 57.3281C138.896 57.3281 139.159 57.4245 139.352 57.6172C139.544 57.8047 139.641 58.0417 139.641 58.3281C139.641 58.6094 139.544 58.8438 139.352 59.0312C139.159 59.2188 138.896 59.3125 138.562 59.3125C138.224 59.3125 137.958 59.2188 137.766 59.0312C137.578 58.8438 137.484 58.6094 137.484 58.3281ZM141.203 64.8672V64.6875C141.203 64.0781 141.292 63.513 141.469 62.9922C141.646 62.4661 141.901 62.0104 142.234 61.625C142.573 61.2344 142.984 60.9323 143.469 60.7188C143.958 60.5 144.51 60.3906 145.125 60.3906C145.745 60.3906 146.297 60.5 146.781 60.7188C147.271 60.9323 147.685 61.2344 148.023 61.625C148.362 62.0104 148.62 62.4661 148.797 62.9922C148.974 63.513 149.062 64.0781 149.062 64.6875V64.8672C149.062 65.4766 148.974 66.0417 148.797 66.5625C148.62 67.0833 148.362 67.5391 148.023 67.9297C147.685 68.3151 147.273 68.6172 146.789 68.8359C146.305 69.0495 145.755 69.1562 145.141 69.1562C144.521 69.1562 143.966 69.0495 143.477 68.8359C142.992 68.6172 142.581 68.3151 142.242 67.9297C141.904 67.5391 141.646 67.0833 141.469 66.5625C141.292 66.0417 141.203 65.4766 141.203 64.8672ZM143.086 64.6875V64.8672C143.086 65.2474 143.125 65.6068 143.203 65.9453C143.281 66.2839 143.404 66.5807 143.57 66.8359C143.737 67.0911 143.951 67.2917 144.211 67.4375C144.471 67.5833 144.781 67.6562 145.141 67.6562C145.49 67.6562 145.792 67.5833 146.047 67.4375C146.307 67.2917 146.521 67.0911 146.688 66.8359C146.854 66.5807 146.977 66.2839 147.055 65.9453C147.138 65.6068 147.18 65.2474 147.18 64.8672V64.6875C147.18 64.3125 147.138 63.9583 147.055 63.625C146.977 63.2865 146.852 62.987 146.68 62.7266C146.513 62.4661 146.299 62.263 146.039 62.1172C145.784 61.9661 145.479 61.8906 145.125 61.8906C144.771 61.8906 144.464 61.9661 144.203 62.1172C143.948 62.263 143.737 62.4661 143.57 62.7266C143.404 62.987 143.281 63.2865 143.203 63.625C143.125 63.9583 143.086 64.3125 143.086 64.6875ZM152.508 62.3516V69H150.625V60.5469H152.398L152.508 62.3516ZM152.172 64.4609L151.562 64.4531C151.568 63.8542 151.651 63.3047 151.812 62.8047C151.979 62.3047 152.208 61.875 152.5 61.5156C152.797 61.1562 153.151 60.8802 153.562 60.6875C153.974 60.4896 154.432 60.3906 154.938 60.3906C155.344 60.3906 155.711 60.4479 156.039 60.5625C156.372 60.6719 156.656 60.8516 156.891 61.1016C157.13 61.3516 157.312 61.6771 157.438 62.0781C157.562 62.474 157.625 62.9609 157.625 63.5391V69H155.734V63.5312C155.734 63.125 155.674 62.8047 155.555 62.5703C155.44 62.3307 155.271 62.1615 155.047 62.0625C154.828 61.9583 154.555 61.9062 154.227 61.9062C153.904 61.9062 153.615 61.974 153.359 62.1094C153.104 62.2448 152.888 62.4297 152.711 62.6641C152.539 62.8984 152.406 63.1693 152.312 63.4766C152.219 63.7839 152.172 64.112 152.172 64.4609Z" fill="white"/>
<defs>
<filter id="filter0_d_48_2292" x="0.5" y="0" width="199" height="89" filterUnits="userSpaceOnUse" color-interpolation-filters="sRGB">
<feFlood flood-opacity="0" result="BackgroundImageFix"/>
<feColorMatrix in="SourceAlpha" type="matrix" values="0 0 0 0 0 0 0 0 0 0 0 0 0 0 0 0 0 0 127 0" result="hardAlpha"/>
<feOffset/>
<feGaussianBlur stdDeviation="2"/>
<feComposite in2="hardAlpha" operator="out"/>
<feColorMatrix type="matrix" values="0 0 0 0 0 0 0 0 0 0 0 0 0 0 0 0 0 0 0.25 0"/>
<feBlend mode="normal" in2="BackgroundImageFix" result="effect1_dropShadow_48_2292"/>
<feBlend mode="normal" in="SourceGraphic" in2="effect1_dropShadow_48_2292" result="shape"/>
</filter>
<linearGradient id="paint0_linear_48_2292" x1="5" y1="6.64953" x2="158.815" y2="126.79" gradientUnits="userSpaceOnUse">
<stop stop-color="#253266"/>
<stop offset="1" stop-color="#5B98B6"/>
</linearGradient>
</defs>
</svg>
