<svg width="24" height="25" viewBox="0 0 24 25" fill="none" xmlns="http://www.w3.org/2000/svg">
<path d="M12.6862 2.19531C12.8032 2.19708 12.8486 2.20482 12.8747 2.21289C12.8888 2.21729 12.9123 2.22814 12.9587 2.2666C12.9929 2.30671 13.0073 2.33875 13.0153 2.38672C13.0293 2.4704 13.0255 2.55713 13.0241 2.75293H13.0231L13.0241 2.76074C13.0248 2.84267 13.0244 2.84301 13.0251 2.92676C13.0264 3.09918 13.0261 3.27202 13.0261 3.44629V3.44727C13.0262 3.62207 13.0267 3.79777 13.028 3.97363C13.0288 4.07991 13.0296 4.18603 13.029 4.29199V4.29785C13.031 4.61222 13.0489 4.98699 13.2409 5.36816L13.279 5.44238L13.3386 5.50098C13.4828 5.64172 13.6396 5.75545 13.8366 5.82227C14.0239 5.88573 14.2076 5.8925 14.3708 5.89062H14.3952L14.4206 5.8877C14.5633 5.87187 14.6934 5.83417 14.8181 5.76758C14.9348 5.70521 15.0274 5.62729 15.1003 5.56152L15.1374 5.52832L15.1667 5.48828C15.4645 5.08778 15.4606 4.66282 15.4675 4.37402C15.4689 4.32344 15.4689 4.32327 15.4704 4.27148C15.473 4.17796 15.4748 4.08419 15.4772 3.99121C15.563 4.04483 15.6461 4.09995 15.7253 4.16211L15.7292 4.16504C15.7591 4.18809 15.7893 4.21068 15.82 4.23438V4.23535C16.8933 5.07532 17.7293 6.21927 18.0641 7.51562C18.0656 7.55817 18.0671 7.57834 18.0671 7.5957C18.0671 7.61633 18.0663 7.6337 18.0632 7.69727L18.0397 8.17383L18.5153 8.21875C18.5406 8.22116 18.5659 8.22315 18.5915 8.22559C18.7185 8.25821 18.8339 8.3473 18.9704 8.53711C19.033 8.68502 19.0429 8.89639 18.9938 9.12109C18.9221 9.25827 18.7947 9.38359 18.6413 9.46094C18.5909 9.47641 18.5514 9.48325 18.4655 9.4834H18.4626C18.4159 9.4837 18.3691 9.48406 18.321 9.48438H18.0007C17.8502 9.48486 17.6995 9.48546 17.5485 9.48535C17.3842 9.48533 17.2194 9.48588 17.0563 9.48633C16.7366 9.48711 16.4165 9.48725 16.0964 9.4873C15.8357 9.48735 15.5747 9.48701 15.3141 9.4873C14.5758 9.48813 13.8376 9.48835 13.0993 9.48828H12.8571C12.2108 9.48824 11.5647 9.48989 10.9186 9.49121C10.2556 9.49256 9.59242 9.49325 8.92938 9.49316C8.55689 9.49313 8.18412 9.49313 7.81122 9.49414C7.49484 9.49499 7.17818 9.49477 6.862 9.49414C6.69988 9.49383 6.53691 9.4943 6.37372 9.49512C6.20031 9.49583 6.0263 9.49486 5.85126 9.49414H5.84442C5.79604 9.4946 5.74765 9.49465 5.69794 9.49512C5.54636 9.49364 5.45235 9.48059 5.37958 9.45703C5.31686 9.43672 5.2509 9.40156 5.16669 9.33105C5.156 9.31815 5.14705 9.30611 5.12567 9.28027L5.12079 9.27441L5.06317 9.20703C4.98089 9.07789 4.96841 8.93207 4.99384 8.61719C5.03073 8.50018 5.11768 8.39511 5.32098 8.24512C5.3585 8.22694 5.3676 8.22468 5.36786 8.22461H5.36981C5.37119 8.22438 5.3741 8.22406 5.3786 8.22363C5.38884 8.22267 5.40635 8.22169 5.43719 8.22168H5.91962L5.93719 7.73926C5.93881 7.69498 5.93946 7.65068 5.9411 7.60547C6.07895 6.47387 6.94768 5.25267 7.8786 4.46875C8.09017 4.30287 8.29943 4.15289 8.51532 4.01562L8.5163 4.03613C8.50991 4.33562 8.50189 4.57375 8.55536 4.7998C8.61065 5.03343 8.7276 5.24065 8.86786 5.49902L8.93231 5.61621L9.04559 5.68652C9.40793 5.90946 9.7268 5.90961 10.0397 5.875L10.1266 5.86523L10.2048 5.82617C10.3386 5.76044 10.4705 5.68 10.5886 5.56348C10.7082 5.44536 10.7926 5.31155 10.86 5.16602L10.8806 5.12207L10.8923 5.07422C10.9445 4.85995 10.9589 4.66483 10.9597 4.46973C10.96 4.42006 10.9603 4.3705 10.9606 4.31934V4.31836C10.9609 4.23934 10.9613 4.23802 10.9616 4.15918C10.9627 4.04623 10.9634 3.93327 10.9645 3.82031V3.81934C10.9662 3.64079 10.9678 3.46167 10.9684 3.28223C10.9692 3.11214 10.9713 2.94148 10.9733 2.76953V2.7627C10.9732 2.71221 10.9724 2.66124 10.9724 2.60938C10.9747 2.45772 10.9796 2.39701 10.9909 2.35156C10.9963 2.33014 11.0047 2.30715 11.0378 2.26855C11.0871 2.22779 11.118 2.2165 11.1472 2.20996C11.2009 2.1979 11.2704 2.19484 11.4333 2.19629H11.5739L11.8513 2.19727H11.8522C11.9994 2.19829 12.1457 2.1965 12.2888 2.19531C12.3793 2.19544 12.4698 2.19593 12.5602 2.19629H12.5671C12.6275 2.19575 12.631 2.1958 12.6862 2.19531Z" stroke="white"/>
<path d="M16.7485 11.9707C16.7476 12.5112 16.7447 12.8045 16.728 13.0098C16.7096 13.2347 16.6791 13.3315 16.5873 13.6123L16.5854 13.6172C16.5756 13.6481 16.5661 13.6792 16.5561 13.7109C16.3447 14.3673 16.0276 14.966 15.5629 15.3945L15.5385 15.416L15.518 15.4414C15.3358 15.6595 15.2909 15.8994 15.2865 16.0898C15.2831 16.2411 15.3112 16.4516 15.3158 16.5127L15.3168 16.5254L15.3188 16.5391C15.3265 16.5986 15.3269 16.6094 15.3324 16.6523C15.3339 16.6976 15.3328 16.7223 15.3315 16.7373C15.2059 16.8196 15.0462 16.883 14.8031 16.9922L14.7973 16.9951C14.5301 17.1193 14.2698 17.2593 14.0297 17.3857L13.4809 17.668C13.3207 17.7497 13.1599 17.8319 12.9994 17.916C12.8461 17.9963 12.6918 18.0759 12.5365 18.1543L12.5346 18.1553C12.4731 18.1866 12.4111 18.2185 12.35 18.251C12.2365 18.3111 12.1587 18.3529 12.099 18.3828C12.0607 18.402 12.0362 18.4109 12.0219 18.417C11.9735 18.398 11.9224 18.3751 11.8598 18.3418L11.8412 18.332L11.8207 18.3232L11.6078 18.2334C11.5297 18.1987 11.4506 18.1631 11.3725 18.1279H11.3705C11.3062 18.0993 11.3062 18.0986 11.2406 18.0693C11.1032 18.008 10.9655 17.9467 10.8276 17.8848H10.8266C10.7318 17.8424 10.6373 17.7992 10.5424 17.7568L9.9799 17.5059L8.95354 17.0488C8.89135 17.0212 8.8292 16.9935 8.76701 16.9658C8.78469 16.7072 8.79502 16.5038 8.76701 16.3057C8.73042 16.0471 8.63555 15.8082 8.50627 15.4717L8.46721 15.3711L8.39104 15.2959L8.11369 15.0332C7.85645 14.771 7.67621 14.3525 7.50237 13.8906L7.50139 13.8896L7.46623 13.7969C7.25323 13.1911 7.24474 12.6611 7.24846 11.9707H16.7485Z" stroke="white"/>
<path d="M16 22.2207H8V19.2627L8.79688 19.6084C8.86032 19.6367 8.86105 19.6372 8.92578 19.666C9.01364 19.7052 9.10162 19.744 9.18945 19.7832C9.32737 19.8447 9.46584 19.9067 9.60352 19.9678C10.3622 20.3044 10.3595 20.3028 10.6777 20.4502L10.9277 20.5654C11.0188 20.6072 11.1095 20.6494 11.1992 20.6924L11.208 20.6963C11.2483 20.7146 11.2886 20.7331 11.3301 20.752V20.751C11.3616 20.7658 11.3933 20.7816 11.4258 20.7969L11.4688 20.8174L11.5146 20.8291C12.0568 20.9673 12.4859 20.8433 12.8965 20.6299L12.8975 20.6309C12.9386 20.6103 12.9801 20.5895 13.0225 20.5684L13.0234 20.5674C13.1604 20.4986 13.2963 20.429 13.4297 20.3604L13.4287 20.3594C13.5212 20.3126 13.6144 20.2673 13.707 20.2207L13.708 20.2197C13.955 20.0952 14.201 19.9691 14.4463 19.8438C14.6959 19.7164 14.947 19.5909 15.1982 19.4639C15.4654 19.3288 15.7325 19.192 16 19.0557V22.2207Z" stroke="white"/>
<path d="M18.5 18.9668C18.6211 19.0099 18.6951 19.0372 18.7744 19.0732L18.9697 19.166C19.0093 19.1851 19.0492 19.2041 19.0898 19.2236V19.2246C19.714 19.5335 20.2851 19.9361 20.8008 20.415V20.416C20.8287 20.4419 20.857 20.4675 20.8857 20.4941C21.5166 21.086 21.7795 21.335 21.9082 21.5039C21.9587 21.5702 21.9713 21.6044 21.9795 21.6318C21.992 21.6736 22.0003 21.7247 22.0156 21.8506C22.017 21.9644 22.0184 22.037 22.0166 22.0918C22.0163 22.1011 22.015 22.1095 22.0146 22.1162C22.0058 22.126 21.9938 22.1399 21.9756 22.1592C21.9105 22.2096 21.8785 22.223 21.8584 22.2285C21.8259 22.2375 21.7739 22.2447 21.6387 22.2422H21.5088C21.3831 22.2421 21.2568 22.2407 21.1279 22.2393H21.124C21.0441 22.239 20.9638 22.2384 20.8838 22.2383H20.8848C20.5914 22.2373 20.2974 22.2348 20.002 22.2324H20.001C19.2082 22.2278 19.0509 22.2259 18.5 22.2227V18.9668Z" stroke="white"/>
<path d="M5.5 22.2227C5.00528 22.2256 4.50776 22.2294 3.99902 22.2324H3.99805L3.36816 22.2373C3.11572 22.2381 3.11555 22.2381 2.99707 22.2383H2.99609L2.74316 22.2402C2.62016 22.2416 2.49657 22.2423 2.37109 22.2422H2.36133C2.30979 22.2431 2.3065 22.2423 2.25977 22.2432C2.17544 22.2423 2.14421 22.2342 2.12891 22.2285C2.11408 22.223 2.08729 22.2092 2.03125 22.166C2.00306 22.1332 1.99418 22.1159 1.99023 22.1055C1.98384 22.0885 1.97598 22.057 1.96973 21.9834C1.98024 21.8215 2.0358 21.7182 2.2207 21.4834L2.22168 21.4814C2.27538 21.4128 2.27721 21.4111 2.3291 21.3447C2.72909 20.8485 3.35101 20.1878 4.04004 19.6562C4.5488 19.2638 5.0505 18.9781 5.5 18.8477V22.2227Z" stroke="white"/>
</svg>
