<svg width="24" height="24" viewBox="0 0 24 24" fill="none" xmlns="http://www.w3.org/2000/svg">
<path d="M5.58691 7.65125C8.91113 4.9051 13.9323 4.69387 18.5469 7.76257L18.6094 7.81433C18.9992 8.13822 19.3536 8.47236 19.6807 8.83875L19.999 9.21667L20.0059 9.22644L20.0986 9.33582V9.33679C21.8135 11.4126 22.5191 14.1708 22.2695 16.8573C22.2412 17.13 22.2007 17.4019 22.1514 17.6776V17.6786L22.1299 17.7987C22.0538 18.1978 21.9898 18.3823 21.8633 18.4794C21.7168 18.5643 21.5988 18.5836 21.3262 18.5839H21.3252L21.2266 18.5848H20.6582C20.4399 18.5852 20.2216 18.5858 20.0029 18.5858H20.002C19.7959 18.5859 19.5895 18.5865 19.3838 18.5868H19.2939C18.7782 18.5874 18.262 18.5876 17.7461 18.5878H16.7803C15.8885 18.5883 14.9962 18.5896 14.1045 18.5897H13.2363C12.304 18.5899 11.3716 18.5906 10.4395 18.5917C9.48287 18.5928 8.52592 18.5936 7.56934 18.5936C7.03205 18.5937 6.49454 18.5938 5.95703 18.5946C5.49995 18.5953 5.04292 18.595 4.58594 18.5946L3.88379 18.5956H3.00977L2.70312 18.5927C2.45741 18.5841 2.28272 18.5533 2.11328 18.4628C1.99962 18.3292 1.943 18.1789 1.8916 17.9071L1.89062 17.9032L1.86719 17.7841C1.3608 15.1658 1.84946 12.359 3.31738 10.1366C3.93132 9.2312 4.63008 8.41468 5.4668 7.75085L5.47656 7.74402L5.58691 7.65125ZM17.5 8.76746C17.2091 8.82865 16.9862 8.98749 16.8242 9.13074C16.6754 9.26233 16.5154 9.4416 16.4307 9.5282L16.3096 9.65222C16.2212 9.74175 16.1322 9.83093 16.0439 9.92078C15.9056 10.0615 15.7665 10.2019 15.627 10.3427C15.2296 10.7435 14.8328 11.1457 14.4365 11.5487C14.2184 11.7705 13.9995 11.9913 13.7803 12.2118C13.6635 12.3292 13.5462 12.4479 13.4297 12.5673C13.3034 12.6966 13.1747 12.8249 13.0449 12.955L13.04 12.9608L12.9316 13.0721C12.8945 13.109 12.8646 13.1369 12.8408 13.16C12.1702 12.9583 11.5065 13.0022 10.8672 13.2743L10.8447 13.2841L10.8242 13.2948C10.733 13.3443 10.6476 13.3964 10.5664 13.451L10.3496 13.6093L10.2627 13.6718L10.249 13.6815C9.67365 14.1233 9.40956 14.78 9.30469 15.3837L9.30078 15.4032L9.29883 15.4237C9.22657 16.2292 9.48475 16.9334 9.96387 17.5331L9.97363 17.5448L9.98438 17.5565C10.467 18.0875 11.1349 18.3983 11.8311 18.4608L11.8428 18.4618L11.8555 18.4628C12.6405 18.495 13.3456 18.1961 13.8975 17.6884L13.9102 17.6766L13.9219 17.6649C14.4615 17.096 14.7254 16.376 14.7158 15.6083V15.5887L14.7139 15.5702C14.6933 15.3367 14.6356 15.133 14.5742 14.9481C14.5736 14.9451 14.5727 14.9426 14.5723 14.9403C14.5817 14.9306 14.5981 14.9152 14.6279 14.8856L14.7393 14.7743L14.7383 14.7733L14.8545 14.661L14.8584 14.6581L14.9824 14.5321L14.9834 14.5331C15.0731 14.4438 15.1631 14.354 15.2529 14.2655C15.3971 14.1235 15.5402 13.9806 15.6826 13.8387C15.9076 13.6149 16.1335 13.3914 16.3594 13.1678C16.7645 12.7669 17.1692 12.3657 17.5732 11.9637C17.7145 11.8233 17.8562 11.6829 17.998 11.5428V11.5419L18.2754 11.2675L18.3242 11.2186L18.4443 11.1014L18.4463 11.0985L18.5537 10.9911L18.6484 10.8973L18.6611 10.8846L18.6729 10.8719C18.8054 10.7207 18.8951 10.5589 18.9424 10.3749C18.9861 10.2044 18.9868 10.0391 18.9834 9.9032L18.9824 9.87878L18.9795 9.85535L18.9414 9.65515C18.9238 9.59014 18.9013 9.52632 18.8711 9.46277C18.8142 9.34331 18.741 9.24467 18.6758 9.16101L18.6377 9.11218L18.5889 9.0741C18.4369 8.95563 18.2816 8.87002 18.1025 8.81824C17.9312 8.76871 17.7644 8.75872 17.6094 8.75671L17.5537 8.75574L17.5 8.76746ZM17.6621 9.75964C17.7458 9.76301 17.7919 9.76858 17.8252 9.7782C17.85 9.7854 17.8788 9.79971 17.9229 9.82898C17.9493 9.86523 17.9622 9.8808 17.9678 9.89246C17.9714 9.89998 17.9761 9.9154 17.9824 9.95789C17.9839 10.0574 17.9804 10.1006 17.9736 10.1268C17.9699 10.1414 17.9618 10.1625 17.9258 10.205L17.8506 10.2811L17.8496 10.2821L17.7422 10.3885L17.623 10.5057L17.6211 10.5077L17.5703 10.5575C17.4782 10.649 17.3867 10.7402 17.2949 10.8309C17.1524 10.9717 17.0103 11.1134 16.8682 11.2548C16.4646 11.6562 16.0598 12.0565 15.6553 12.4569C15.429 12.6809 15.2035 12.9059 14.9775 13.1307C14.8351 13.2726 14.693 13.4135 14.5508 13.5536L14.2773 13.8241L14.1553 13.9462L14.0352 14.0634L14.0312 14.0682L13.9219 14.1766C13.8145 14.2831 13.7981 14.3011 13.7109 14.4159L13.6553 14.4901L13.6299 14.579C13.6083 14.6531 13.5825 14.7471 13.5742 14.8544C13.5653 14.9692 13.5778 15.0746 13.6016 15.1796L13.6064 15.205L13.6152 15.2294C13.6691 15.3882 13.7016 15.5123 13.7148 15.6376C13.7174 16.1432 13.548 16.5946 13.21 16.9589C12.8361 17.2992 12.3932 17.4784 11.9121 17.4628C11.4582 17.42 11.0363 17.2204 10.7354 16.8954C10.4059 16.478 10.2541 16.0352 10.2939 15.5341C10.3763 15.0797 10.5585 14.7047 10.8584 14.4745L10.8574 14.4735L10.9316 14.4218L10.9404 14.4159L10.9482 14.41C11.0621 14.321 11.1684 14.2482 11.2812 14.1854C11.7007 14.0121 12.1136 13.9882 12.543 14.1151L12.6416 14.1552L12.7363 14.1932L12.8389 14.1903C12.9123 14.1887 13.0949 14.1954 13.2812 14.0878C13.3576 14.0437 13.4202 13.9898 13.4678 13.9462C13.5163 13.9016 13.5734 13.8449 13.6357 13.7831L13.6436 13.7753L13.7588 13.6561L13.7578 13.6552C13.8857 13.527 14.016 13.398 14.1445 13.2665C14.2584 13.1499 14.3735 13.0333 14.4893 12.9169C14.7099 12.695 14.9301 12.4729 15.1494 12.2499C15.5443 11.8483 15.9409 11.4473 16.3379 11.0468L16.3369 11.0458C16.4767 10.9048 16.618 10.7641 16.7578 10.6219C16.8454 10.5328 16.9326 10.4434 17.0205 10.3544L17.1445 10.2294L17.1455 10.2274C17.2929 10.0767 17.3711 9.98173 17.4863 9.87976C17.5611 9.81361 17.618 9.77797 17.6621 9.75964ZM14.2949 6.65808C10.8846 5.82026 7.53303 6.95536 5.12207 9.39539L4.88379 9.64441L4.87695 9.65222C4.68765 9.86499 4.52181 10.0872 4.36914 10.3114L4.30273 10.4081L4.30078 10.411C3.25413 11.9588 2.48243 13.9563 2.64258 15.9315L2.64648 15.9784L2.65918 16.0243C2.76491 16.4057 2.97202 16.6682 3.29297 16.8739L3.3457 16.9081L3.4043 16.9276C3.6975 17.0253 4.05133 17.0723 4.42285 16.9178L4.45508 16.9042L4.48535 16.8866C4.76646 16.7208 5.02182 16.5034 5.14551 16.0897L5.15137 16.0692L5.15527 16.0487C5.18857 15.8897 5.19822 15.742 5.20508 15.619C5.24299 15.0063 5.29444 14.4599 5.44922 13.9188H5.4502L5.47949 13.8134L5.47852 13.8124C5.62079 13.3282 5.81724 12.8804 6.06445 12.4266L6.06641 12.4237L6.14258 12.2802C6.95451 10.8228 8.38247 9.73507 9.98926 9.24304C11.3803 8.85749 12.8203 8.85744 14.1768 9.30652H14.1787C14.4696 9.40113 14.8395 9.50592 15.2842 9.33191L15.3125 9.32117L15.3389 9.30652C15.6397 9.14477 15.8553 8.92856 15.9971 8.5946L16.0117 8.55945L16.0205 8.52332C16.1239 8.11993 16.0323 7.78841 15.8818 7.49304L15.8545 7.43933L15.8154 7.39343C15.4893 7.01459 15.0999 6.88305 14.7598 6.78503L14.6396 6.74988L14.6357 6.7489L14.2949 6.65808ZM5.62012 10.3202C7.89715 7.87206 11.1248 6.78991 14.3623 7.70984L14.4814 7.745L14.4834 7.74597C14.7582 7.82515 14.9 7.8895 15.0176 8.00769C15.062 8.10822 15.0697 8.17168 15.0576 8.24011C15.0208 8.31424 14.9777 8.35858 14.8926 8.40808C14.8042 8.43671 14.7207 8.43119 14.4902 8.35632H14.4912C12.9244 7.83761 11.2765 7.84747 9.70996 8.28406L9.69727 8.28796C7.86635 8.84851 6.21754 10.0901 5.26855 11.7938L5.26465 11.8016L5.18652 11.9481C4.91093 12.454 4.68535 12.9695 4.51953 13.535L4.51758 13.5389L4.48828 13.6434C4.30174 14.2954 4.2456 14.934 4.20703 15.5575V15.5604C4.20097 15.6692 4.1939 15.7469 4.18066 15.8192C4.16425 15.8679 4.14766 15.8933 4.13086 15.912C4.11067 15.9344 4.07649 15.9613 4.01172 16.0018C3.95354 16.02 3.88473 16.0225 3.78125 15.995C3.70264 15.9362 3.6646 15.881 3.63574 15.7938C3.51894 14.1349 4.17162 12.386 5.12695 10.9725L5.12793 10.9735L5.19434 10.8759V10.8749C5.33014 10.6754 5.4687 10.4908 5.62012 10.3202Z" stroke="white"/>
</svg>
