<svg width="24" height="25" viewBox="0 0 24 25" fill="none" xmlns="http://www.w3.org/2000/svg">
<path d="M9.59399 4.44C9.68399 3.898 10.154 3.5 10.704 3.5H13.297C13.847 3.5 14.317 3.898 14.407 4.44L14.62 5.721C14.683 6.095 14.933 6.407 15.265 6.591C15.339 6.631 15.412 6.674 15.485 6.718C15.81 6.914 16.205 6.975 16.56 6.842L17.777 6.386C18.0264 6.29221 18.301 6.28998 18.5519 6.37971C18.8028 6.46945 19.0136 6.64531 19.147 6.876L20.443 9.123C20.576 9.3537 20.6229 9.62413 20.5753 9.88617C20.5277 10.1482 20.3887 10.3848 20.183 10.554L19.18 11.381C18.887 11.622 18.742 11.994 18.75 12.373C18.7514 12.458 18.7514 12.543 18.75 12.628C18.742 13.006 18.887 13.378 19.18 13.619L20.184 14.446C20.608 14.796 20.718 15.401 20.444 15.876L19.146 18.123C19.0128 18.3536 18.8022 18.5296 18.5515 18.6195C18.3008 18.7094 18.0264 18.7074 17.777 18.614L16.56 18.158C16.205 18.025 15.81 18.086 15.484 18.282C15.4115 18.3261 15.3382 18.3688 15.264 18.41C14.933 18.593 14.683 18.905 14.62 19.279L14.407 20.56C14.317 21.103 13.847 21.5 13.297 21.5H10.703C10.153 21.5 9.68399 21.102 9.59299 20.56L9.37999 19.279C9.31799 18.905 9.06799 18.593 8.73599 18.409C8.66184 18.3681 8.58849 18.3258 8.51599 18.282C8.19099 18.086 7.79599 18.025 7.43999 18.158L6.22299 18.614C5.97372 18.7075 5.69936 18.7096 5.44869 18.6199C5.19803 18.5302 4.9873 18.3545 4.85399 18.124L3.55699 15.877C3.42394 15.6463 3.37704 15.3759 3.42465 15.1138C3.47226 14.8518 3.61128 14.6152 3.81699 14.446L4.82099 13.619C5.11299 13.379 5.25799 13.006 5.25099 12.628C5.24943 12.543 5.24943 12.458 5.25099 12.373C5.25799 11.993 5.11299 11.622 4.82099 11.381L3.81699 10.554C3.61153 10.3849 3.47267 10.1484 3.42506 9.88662C3.37746 9.62481 3.42421 9.3546 3.55699 9.124L4.85399 6.877C4.98718 6.64614 5.198 6.47006 5.4489 6.38014C5.6998 6.29021 5.97448 6.29229 6.22399 6.386L7.43999 6.842C7.79599 6.975 8.19099 6.914 8.51599 6.718C8.58799 6.674 8.66199 6.632 8.73599 6.59C9.06799 6.407 9.31799 6.095 9.37999 5.721L9.59399 4.44Z" stroke="white" stroke-width="1.5" stroke-linecap="round" stroke-linejoin="round"/>
<path d="M15 12.5C15 13.2956 14.6839 14.0587 14.1213 14.6213C13.5587 15.1839 12.7956 15.5 12 15.5C11.2044 15.5 10.4413 15.1839 9.87868 14.6213C9.31607 14.0587 9 13.2956 9 12.5C9 11.7044 9.31607 10.9413 9.87868 10.3787C10.4413 9.81607 11.2044 9.5 12 9.5C12.7956 9.5 13.5587 9.81607 14.1213 10.3787C14.6839 10.9413 15 11.7044 15 12.5Z" stroke="white" stroke-width="1.5" stroke-linecap="round" stroke-linejoin="round"/>
</svg>
